<svg width="720" height="288" viewBox="0 0 720 288" fill="none" xmlns="http://www.w3.org/2000/svg">
<g clip-path="url(#clip0_46_2432)">
<path fill-rule="evenodd" clip-rule="evenodd" d="M486.87 -194.382L443.535 -206.766L416.805 -116.181L427.425 -113.004L439.863 -155.124L472.56 -145.62L473.847 -149.58L440.853 -159.093L452.976 -199.629L485.772 -190.413L486.87 -194.373V-194.382ZM548.682 -141.948L542.625 -92.9881L539.439 -91.3951L544.902 -137.493L548.682 -141.948ZM533.283 -82.6741L594.105 -116.379L542.328 -51.8491L546 -48.9691L605.436 -123.021L602.052 -125.595L554.748 -99.3241L561.309 -157.509L557.628 -160.389L498.192 -86.3461L501.873 -83.4661L539.439 -130.356L533.283 -82.6741ZM567.969 -24.4981L575.025 -16.0741L648.762 -76.1311L641.913 -84.7711L567.969 -24.4981ZM645.099 -36.8821L650.652 -40.0591L620.538 12.3749L615.471 15.3449L645.099 -36.8821ZM582.972 -7.64108L585.06 -3.38406L637.935 -32.9221L603.348 27.9359L686.535 -18.4501L684.15 -22.6171L638.727 2.66393L668.544 -50.0761L666.258 -53.9281L582.972 -7.64108ZM548.682 -47.0971L557.331 -40.2571L616.767 -114.291L608.118 -121.131L548.682 -47.0971ZM562.893 -30.5371L566.079 -27.0721L639.825 -87.1381L636.639 -90.9001L562.893 -30.5371ZM707.901 29.3219L706.605 24.7679L614.175 49.3379L615.471 53.8109L707.901 29.3309V29.3219ZM693.681 -6.25507L688.119 -15.7771L604.635 30.6089L610.197 40.1309L693.69 -6.25507H693.681ZM388.59 -207.567C389.976 -206.703 391.029 -205.848 391.758 -204.984L388.077 -130.95L384.603 -128.763L388.572 -207.567H388.59ZM376.161 -211.527C378.951 -211.527 381.489 -210.996 383.811 -209.943L379.833 -126.684C376.323 -125.964 373.677 -125.694 371.886 -125.892C365.721 -126.09 360.555 -128.205 356.379 -132.237C352.14 -136.467 350.079 -141.291 350.223 -146.709L352.608 -192.789C353.004 -198.279 355.488 -202.833 360.06 -206.469C364.632 -210.168 369.996 -211.86 376.161 -211.527ZM356.577 -209.637C351.141 -205.281 348.225 -199.773 347.838 -193.095L345.552 -147.006C345.147 -140.328 347.505 -134.514 352.608 -129.555C357.711 -124.47 364.065 -121.86 371.688 -121.725C379.248 -121.329 385.728 -123.345 391.164 -127.773C396.798 -132.138 399.813 -137.655 400.209 -144.333L402.297 -190.413C402.63 -197.091 400.344 -202.905 395.439 -207.855C390.336 -212.949 384.009 -215.658 376.449 -215.991C368.709 -216.189 362.076 -214.074 356.577 -209.646V-209.637ZM194.667 -175.95L192.282 -179.622L141 -149.094L143.088 -145.422L160.278 -155.439L207.591 -78.2191L211.569 -80.9011L164.553 -158.013L167.145 -159.597L214.449 -82.4851L224.286 -88.2451L176.982 -165.447L194.667 -175.95ZM274.173 -208.053L230.847 -194.976L258.873 -104.778L302.208 -117.963L301.11 -121.923L268.314 -111.915L256.488 -149.877L289.185 -159.597L287.889 -163.557L255.399 -153.837L242.772 -194.175L275.271 -204.192L274.173 -208.053ZM227.67 -193.887L223.188 -192.591L251.421 -102.501L255.885 -103.788L227.67 -193.887ZM151.044 -57.8971L131.559 -38.1691L109.293 -78.5161L151.044 -57.8971ZM169.323 -48.6811L172.707 -52.3441L105.117 -85.8511L102.435 -90.6031L174.795 -54.5221L182.544 -62.3521L93.1917 -107.154L89.8167 -103.788L138.417 -17.0641L141.603 -20.5291L136.032 -30.5461L158.991 -53.9371L169.323 -48.6811ZM409.146 -118.26L413.619 -117.171L440.349 -207.855L435.885 -209.16L409.146 -118.26ZM135.438 305.163L139.416 302.985L110.391 251.343L106.719 253.224L116.151 270.567L36.1497 314.082L38.5347 318.042L118.545 274.833L120.129 277.407L40.1187 320.922L45.6987 330.633L125.7 287.424L135.438 305.154V305.163ZM112.776 386.532L93.6957 366.219L136.032 346.491L112.776 386.532ZM143.376 342.819L148.452 340.443L108.006 409.923L115.359 417.663L165.849 332.226L162.465 328.842L72.3297 371.772L75.5067 374.94L85.8387 370.179L108.303 394.164L102.435 403.884L105.918 407.646L143.385 342.819H143.376ZM189.906 356.805L187.521 360.171L204.405 370.971L154.518 446.598L158.694 449.28L208.383 373.356L211.074 375.246L161.376 450.756L170.916 456.903L220.803 381.285L238.002 392.283L240.387 388.917L189.906 356.805ZM277.566 403.38L273.084 402.3L252.015 494.28L256.488 495.36L277.566 403.38ZM318.309 461.07C315.456 473.031 310.425 481.986 303.207 487.935C294.783 495.135 284.154 497.241 271.293 494.271L290.58 410.229C303.567 413.199 312.279 419.769 316.716 429.939C320.424 438.606 320.955 448.974 318.309 461.07ZM291.579 406.557L280.743 403.884L259.665 496.152L270.501 498.537C284.541 501.642 296.349 499.329 305.889 491.607C314.295 484.92 320.028 475.11 323.079 462.159C326.058 449.145 325.266 437.805 320.694 428.157C315.384 416.934 305.691 409.725 291.579 406.557ZM375.648 415.278L362.634 415.476L363.435 442.926L376.647 450.756L375.657 415.278H375.648ZM410.739 412.11L406.266 413.397L430.809 504.576L435.282 503.496L410.739 412.11ZM707.703 43.7939C711.015 56.4119 709.161 67.0139 702.141 75.6089C696.174 83.0069 687.201 88.2989 675.204 91.4669C663.216 94.6439 652.812 94.4729 643.992 90.9719C633.795 86.877 626.928 78.5249 623.418 65.8979L707.703 43.7939ZM705.813 78.2909C713.562 68.6429 715.524 56.7809 711.681 42.7049L708.702 32.2019L616.272 56.6819L619.152 67.1849C623.058 81.0629 630.645 90.3779 641.913 95.1389C651.777 99.3689 663.243 99.7289 676.293 96.2279C689.478 92.7179 699.324 86.7419 705.813 78.2909ZM636.837 186.822L632.661 185.733L617.559 243.216L621.834 244.305L626.802 225.279L715.362 247.977L716.442 243.216L628.197 220.518L628.989 217.35L717.243 240.048L720.123 229.248L631.572 206.541L636.837 186.822ZM581.982 312.498L590.622 300.402C594.132 295.119 598.974 291.789 605.139 290.394C611.169 288.945 616.47 289.899 621.033 293.274C625.803 296.568 628.62 301.23 629.484 307.242C630.213 313.191 628.728 318.807 625.011 324.09L616.263 336.186L581.982 312.498ZM587.247 298.026L572.136 319.338L650.652 373.356L656.916 364.131L619.746 338.571L626.802 328.554L678.885 333.315L681.765 329.346L629.484 324.882C633.39 318.546 634.821 311.967 633.759 305.163C632.697 298.287 629.421 293.013 623.913 289.305C618.288 285.471 611.853 284.418 604.635 286.128C597.567 287.808 591.373 292.047 587.247 298.026ZM570.354 322.011L567.663 325.674L646.08 379.692L648.762 375.732L570.354 322.011ZM458.844 403.884L457.746 399.915L413.916 411.318L438.459 502.398L482.091 491.103L481.011 487.143L448.008 495.855L437.964 457.398L470.76 448.677L469.68 444.717L436.677 453.438L425.841 412.308L458.835 403.884H458.844ZM538.044 438.174C534.741 433.089 526.821 429.912 514.293 428.661C500.379 427.275 492.099 425.151 489.453 422.316C490.515 423.378 498.003 424.368 511.908 425.286C524.436 425.952 533.139 430.245 538.044 438.174ZM476.529 398.133C472.686 405.135 472.317 411.543 475.44 417.366C479.67 425.286 489.552 430.38 505.05 432.621C520.557 434.736 529.971 439.137 533.283 445.806C535.803 450.36 536.001 454.761 533.877 458.991C532.086 462.69 528.54 465.921 523.239 468.702C516.219 472.203 509.622 473.697 503.466 473.157L505.545 477.126C510.513 478.053 517.209 476.406 525.624 472.176C534.309 467.946 540.474 462.654 544.11 456.318C548.214 449.307 548.322 442.098 544.407 434.709C539.511 425.394 528.513 420.462 511.413 419.931C494.124 419.274 484.251 416.466 481.803 411.516C479.544 407.151 479.706 402.525 482.298 397.638C484.818 393.012 488.616 389.412 493.728 386.838C500.946 383.13 508.965 382.41 517.776 384.651L515.391 380.484C508.299 377.847 500.451 378.702 491.838 383.067C484.944 386.631 479.841 391.653 476.529 398.133ZM562.101 344.907C568.131 345.105 573.063 347.283 576.906 351.45C580.623 355.878 582.108 361.062 581.388 367.011C580.722 373.023 577.905 378.117 572.928 382.275L561.606 392.085L534.066 360.675L545.505 350.955C550.41 346.725 555.945 344.709 562.101 344.907ZM580.587 348.282C576.015 343.188 570.057 340.578 562.695 340.443C555.27 340.443 548.655 342.891 542.823 347.787L523.041 364.626L585.654 436.293L594.105 428.958L564.189 394.956L575.619 385.443C581.586 380.358 584.997 374.211 585.852 367.011C586.914 359.811 585.159 353.565 580.587 348.282ZM520.359 366.813L516.984 369.882L579.597 441.342L582.972 438.174L520.359 366.813ZM692.394 306.648L694.482 302.49L607.317 263.241L605.427 267.399L692.394 306.648ZM695.778 299.61L700.251 289.602L613.383 250.353L608.613 260.361L695.778 299.61ZM35.3577 -22.9051L36.9417 -25.7851L116.754 18.2249L122.514 8.50491L42.5037 -35.5051L52.5477 -53.1451L48.8667 -55.3231L19.7517 -3.68108L23.4237 -1.50308L32.9637 -18.6481L112.974 25.3619L115.359 21.0959L35.3487 -22.9141L35.3577 -22.9051ZM46.4907 62.4329C55.6257 53.7029 64.8687 50.4629 74.2107 52.7129C67.8567 51.3269 59.9007 54.8279 50.3607 63.2249C40.0287 72.4049 32.9007 76.9949 28.9947 76.9949C30.6507 76.9319 36.4827 72.0719 46.4907 62.4329ZM19.7517 30.8069L15.2787 29.8169C12.0927 31.4099 9.17671 34.0469 6.53071 37.7459C6.4654 37.8103 6.41409 37.8876 6.38002 37.9727C6.34595 38.0579 6.32984 38.1492 6.33271 38.2409C4.01848 41.4076 2.30137 44.9699 1.26571 48.7529C-0.672479 55.7998 -0.392796 63.2726 2.06671 70.1549C3.11971 73.1249 4.54171 75.6719 6.33271 77.7959L6.82771 78.2909C9.28471 81.0629 12.2637 82.9079 15.7737 83.8349C22.6677 85.5539 30.5877 83.7089 39.5337 78.2909C42.0447 76.6979 44.6277 74.8529 47.2737 72.7379C59.1987 62.8919 68.8737 58.9229 76.2987 60.8399C79.6107 61.7669 82.2657 63.3599 84.2547 65.6009C85.1097 66.6539 85.8027 67.8149 86.3427 69.0659C86.5407 69.6059 86.7027 70.1279 86.8377 70.6589C88.0977 73.9529 88.0977 77.8859 86.8377 82.4489C86.8434 82.8214 86.7762 83.1913 86.6397 83.5379C84.5157 90.9449 81.1677 96.7589 76.5957 100.98L81.0777 102.276C83.5183 100.249 85.4845 97.7113 86.8377 94.8419C88.4983 91.4951 89.7667 87.9678 90.6177 84.3299C93.1917 75.0149 93.3627 66.9599 91.1127 60.1469C90.1459 57.2841 88.7004 54.6061 86.8377 52.2269C86.0438 51.3622 85.1799 50.5645 84.2547 49.8419C81.7294 47.6881 78.7326 46.1589 75.5067 45.3779C65.3007 42.5429 54.1047 47.1959 41.9097 59.3549C29.7867 71.4419 21.0747 76.7969 15.7737 75.4109C11.3997 74.3579 8.25871 71.4509 6.33271 66.6809C6.0964 66.2738 5.89758 65.846 5.73871 65.4029C4.01137 60.3839 3.83885 54.9605 5.24371 49.8419C5.54284 48.859 5.90664 47.8969 6.33271 46.9619C8.78071 40.8239 13.2717 35.4419 19.7517 30.8069ZM1.76071 220.518L3.15571 224.982L95.2887 199.512L93.9927 194.949L1.76071 220.5V220.518ZM53.8347 225.774L95.0817 214.272L104.334 246.582L108.294 245.592L96.0807 202.68L3.93871 228.15L16.3587 271.17L20.2287 270.081L10.9947 237.663L49.6587 226.863L58.9017 259.272L63.0777 258.192L53.8347 225.774ZM570.246 50.7329C570.912 49.4729 570.417 46.9349 568.761 43.1009C567.033 39.2669 561.111 35.5949 550.968 32.0939C540.994 28.6937 532.317 22.2897 526.128 13.7609C522.672 9.13492 521.115 3.77994 521.448 -2.29507C518.271 -3.22206 515.922 -4.63507 514.392 -6.56108C512.862 -8.47807 511.944 -13.2031 511.602 -20.7361C511.278 -28.2691 508.659 -34.3081 503.763 -38.8711C498.795 -43.4341 495.375 -46.2691 493.53 -47.3941C490.696 -49.157 487.876 -50.9421 485.07 -52.7491C481.299 -55.1251 474.477 -57.9061 464.604 -61.0741C454.668 -64.2421 445.317 -63.9811 436.578 -60.2821C446.181 -61.1371 454.362 -60.2821 461.121 -57.6991C467.644 -55.2781 473.853 -52.0844 479.616 -48.1861C485.241 -44.4241 490.614 -39.3301 495.717 -32.9221C500.811 -26.4421 503.637 -18.1621 504.159 -8.04607C504.429 -3.28506 504.492 -0.306076 504.357 0.872925C504.627 1.60193 504.951 2.33093 505.347 3.05992C508.633 9.88982 512.809 16.2542 517.767 21.9869C522.744 27.7379 532.752 33.4529 547.791 39.1319C557.988 42.9659 565.476 46.8269 570.246 50.7329ZM425.346 -61.3711C428.658 -61.5691 429.486 -62.8561 427.83 -65.2411C426.237 -67.6711 423.33 -68.9671 419.082 -69.1111C414.843 -69.2911 411.333 -67.4461 408.552 -63.5491C405.96 -60.0481 405.465 -54.1351 407.058 -45.8101C407.121 -45.3421 407.193 -44.7211 407.256 -43.9201C407.391 -41.3461 407.859 -39.8971 408.651 -39.5641C409.371 -39.2311 410.271 -41.4541 411.333 -46.2061C412.323 -51.0931 414.087 -54.8011 416.598 -57.3031C419.118 -59.8231 422.034 -61.1731 425.346 -61.3711ZM409.047 -7.25407C408.721 -9.45714 408.49 -11.6732 408.354 -13.8961C407.22 -10.9891 405.771 -8.67609 403.98 -6.95708C403.026 -6.01208 401.172 -4.71608 398.409 -3.08708C397.509 -2.56508 396.519 -2.00708 395.43 -1.40408C394.836 -1.07108 392.082 0.305923 387.177 2.76291C384.978 3.81752 382.884 5.0771 380.922 6.52493C379.14 7.87492 377.781 9.52193 376.845 11.4749C375.948 13.7144 375.508 16.1101 375.549 18.5219V18.6119C375.567 22.9679 376.989 26.4419 379.824 29.0249C380.247 29.4569 380.715 29.8529 381.219 30.2129C384.333 32.5889 388.239 33.7859 392.946 33.7859C398.841 33.7859 403.251 30.8159 406.167 24.8579C406.809 23.518 407.338 22.1273 407.751 20.6999L409.839 4.64394V2.85292C409.751 -0.527573 409.487 -3.90117 409.047 -7.25407ZM433.995 -49.6711C429.081 -47.7541 425.94 -42.6061 424.545 -34.2091C423.096 -25.8211 423.555 -20.4031 425.94 -17.9551C445.884 -16.7671 464.172 -10.0261 480.804 2.26793C483.981 -18.3511 480.966 -32.4631 471.759 -40.0591C462.48 -47.7271 455.091 -51.6871 449.592 -51.9571C444.289 -52.3238 438.969 -51.5441 433.995 -49.6711ZM452.175 13.5629C457.152 14.0219 463.047 16.8029 469.869 21.8879C487.293 36.7559 497.796 55.1249 501.369 76.9949C504.159 103.491 505.617 131.211 505.752 160.155C507.534 192.996 517.11 219.591 534.471 239.94C540.834 248.472 546.36 255.078 551.067 259.767C555.774 264.447 559.518 266.247 562.299 265.113C565.017 263.925 566.376 262.674 566.376 261.351C566.304 260.028 565.548 258.543 564.081 256.896C563.22 255.969 562.294 255.106 561.309 254.313C540.969 236.403 528.045 219.123 522.546 202.473C515.319 180.405 512.241 149.949 513.303 111.087C513.303 96.2189 512.043 83.1689 509.523 71.9369C505.473 52.8479 495.447 35.4689 479.409 19.8089C463.641 4.40993 445.659 -3.68108 425.445 -4.48207C425.445 -3.08707 425.409 -1.70108 425.346 -0.315079C425.283 2.39392 425.076 5.06693 424.743 7.71292C450.663 26.6129 468.249 51.1289 477.519 81.2609C481.101 96.0569 483.054 109.341 483.387 121.104C484.512 149.247 487.527 170.955 492.432 186.219L520.962 272.259C524.598 283.293 526.515 291.42 526.722 296.64C526.92 301.86 527.946 304.533 529.8 304.668C531.654 304.794 533.346 304.038 534.867 302.382C536.377 300.698 537.194 298.505 537.153 296.244C537.423 291.42 535.596 282.888 531.69 270.666C527.712 258.381 522.186 244.17 515.094 228.051C502.242 198.981 495.447 170.523 494.718 142.713C493.989 114.894 490.641 92.1329 484.674 74.4209C478.842 57.1049 469.437 41.6789 456.45 28.1339C451.086 22.7789 448.233 19.4399 447.909 18.1169C446.577 14.6249 447.999 13.0949 452.175 13.5629ZM411.036 82.4489C408.912 84.6989 408.579 85.5539 410.046 85.0229C410.478 84.8609 411.036 84.6989 411.729 84.5279C413.322 84.1859 415.572 83.8619 418.479 83.5379C422.727 83.0789 428.091 83.9339 434.589 86.1119C441.15 88.2899 445.56 89.4149 447.801 89.4869C449.574 89.5859 450.627 88.7669 450.987 87.0029C451.129 86.4872 451.195 85.9537 451.185 85.4189C451.185 82.5749 449.097 80.0369 444.921 77.7869C441.025 75.5526 436.594 74.423 432.105 74.5199C427.888 74.5945 423.717 75.3984 419.775 76.8959C417.354 77.7599 415.275 78.8489 413.52 80.1719C412.617 80.8448 411.784 81.6077 411.036 82.4489ZM522.744 38.7359C515.121 30.9419 508.263 20.8979 502.17 8.60391L501.972 9.39594C501.702 10.7819 501.072 13.7969 500.082 18.4229C512.2 32.5273 521.722 48.6679 528.207 66.0959C541.131 68.7329 551.4 74.9519 559.023 84.726C560.544 86.6429 562.173 89.1899 563.883 92.3579C565.611 95.5259 566.763 99.3239 567.366 103.761C567.96 108.117 565.71 118.458 560.616 134.784C555.504 151.038 559.284 165.384 571.938 177.804C577.968 183.744 583.269 187.416 587.841 188.802C590.757 189.189 592.575 188.928 593.313 188.001C594.082 186.89 594.528 185.588 594.6 184.239C594.726 182.655 593.97 181.071 592.314 179.478L590.829 178.488C590.424 178.375 590.024 178.243 589.632 178.092C583.737 176.049 579.327 174.069 576.411 172.152C569.058 167.256 565.377 158.562 565.377 146.079C565.377 142.182 566.637 136.071 569.157 127.746C571.605 119.349 572.901 110.997 573.027 102.663C573.162 94.2749 571.875 86.8139 569.157 80.2709C566.367 73.6649 560.805 67.5089 552.462 61.8299C538.017 51.9209 528.108 44.2259 522.744 38.7359ZM544.11 143.109C548.421 127.845 546.297 116.442 537.747 108.909C532.32 104.553 529.143 105.408 528.207 111.492C523.374 143.469 525.129 171.819 533.481 196.524C541.167 215.091 553.353 231.948 570.048 247.077C575.088 246.483 575.583 243.315 571.542 237.564C567.643 231.934 563.499 226.477 559.122 221.211C549.384 209.646 543.12 198.414 540.339 187.515C537.684 176.211 538.935 161.415 544.11 143.109ZM451.383 105.543C451.914 104.616 451.113 103.428 448.998 101.97C446.776 100.628 444.45 99.4696 442.041 98.5049C439.054 97.3588 435.957 96.5263 432.798 96.0209C421.935 94.0409 412.224 96.4889 403.683 103.356C403.119 103.85 402.587 104.379 402.09 104.94C400.632 106.533 399.768 107.892 399.507 109.008C399.174 110.331 399.93 110.565 401.793 109.701V109.611C402.288 109.386 402.846 109.053 403.485 108.621C415.995 102.735 428.127 101.538 439.854 105.048C445.614 106.965 449.466 107.127 451.383 105.543ZM429.423 117.639C429.486 118.089 429.648 118.422 429.918 118.629C430.324 118.92 430.805 119.089 431.304 119.115C431.58 119.047 431.848 118.95 432.105 118.827C432.528 118.62 433.068 118.359 433.689 118.026C434.751 117.495 435.219 116.946 435.084 116.343C434.886 115.749 434.22 115.353 433.095 115.155C432.571 115.061 432.042 114.995 431.511 114.957C431.142 114.953 430.775 114.986 430.413 115.056C430.278 115.182 430.053 115.389 429.72 115.65C429.387 116.046 429.288 116.721 429.423 117.639ZM473.055 210.699C472.982 208.103 472.681 205.52 472.155 202.977C470.958 206.802 468.15 213.057 463.713 221.697C459.05 230.837 454.836 240.199 451.086 249.75C447.108 259.801 444.663 270.392 443.832 281.169C443.229 288.702 443.13 293.634 443.526 295.947C443.643 296.415 443.742 296.775 443.832 297.027C444.012 297.351 444.21 297.522 444.426 297.531C446.541 286.362 448.701 278.073 450.888 272.646C453.138 267.102 455.991 260.919 459.438 254.115C462.813 247.311 465.864 239.778 468.582 231.516C471.561 222.336 473.055 215.388 473.055 210.699ZM463.11 273.339C462.974 270.593 462.776 267.85 462.516 265.113C462.246 264.987 460.959 268.686 458.646 276.219C456.274 283.65 455.065 291.404 455.064 299.205C455.064 306.153 456.522 313.425 459.429 321.021C462.282 328.554 467.115 334.233 473.946 338.067C480.696 341.829 484.512 342.495 485.376 340.047C486.231 337.608 485.907 335.817 484.386 334.692C482.793 333.504 478.95 324.585 472.848 307.935C466.755 291.285 463.506 279.747 463.11 273.348V273.339ZM554.757 181.863C552.363 185.31 552.138 189.693 554.064 195.048C556.638 201.924 561.714 207.774 569.265 212.598C576.825 217.413 581.757 217.152 584.07 211.806C584.871 206.253 583.143 202.482 578.904 200.502C574.665 198.522 570.525 194.526 566.484 188.505C562.434 182.43 558.537 180.225 554.757 181.863ZM592.719 117.045C591.562 111.622 589.371 106.473 586.266 101.88C590.109 116.019 589.812 125.838 585.366 131.319C580.929 136.809 578.472 142.623 578.004 148.761C577.554 154.908 580.263 158.607 586.158 159.867C592.062 161.127 594.24 159.237 592.728 154.215C591.198 149.193 590.667 145.332 591.126 142.623C591.594 139.833 592.251 136.215 593.115 131.715C593.979 127.215 593.844 122.337 592.719 117.045ZM420.477 319.824C420.007 319.207 419.509 318.612 418.983 318.042C415.563 313.803 412.251 310.887 409.047 309.321C405.165 307.378 401.147 305.724 397.023 304.371C392.649 302.976 386.853 304.695 379.626 309.519C372.471 314.28 366.972 316.197 363.129 315.27C359.305 314.35 355.524 313.26 351.798 312.003C348.09 310.815 343.68 310.743 338.586 311.796C333.474 312.921 327.417 316.827 320.397 323.496C313.368 330.102 308.832 335.484 306.78 339.651C304.728 343.746 304.818 347.391 307.077 350.55C310.785 352.269 314.493 352.107 318.201 350.055C336.165 340.083 347.955 334.431 353.589 333.108C372.732 328.482 395.43 329.841 421.665 337.176C422.849 336.076 423.769 334.722 424.356 333.216C424.836 331.907 425.133 330.538 425.238 329.148C425.238 327.888 424.32 325.773 422.466 322.803C424.518 325.251 423.852 324.252 420.477 319.824ZM444.327 319.338C442.869 318.546 441.78 318.906 441.051 320.418C440.385 322.011 439.989 325.053 439.854 329.544C439.728 333.972 440.52 339.849 442.248 347.184C443.895 354.456 446.541 359.082 450.195 361.062C453.111 361.719 456.684 360.9 460.923 358.587C465.369 356.004 467.583 354.06 467.583 352.737C467.59 352.566 467.556 352.397 467.484 352.242C466.332 351.241 465.171 350.251 464.001 349.272C457.647 343.98 452.778 339.057 449.394 334.494C446.103 330.127 444.324 324.806 444.327 319.338ZM420.972 359.082C419.103 357.655 417.181 356.298 415.212 355.014C411.772 352.837 408.105 351.041 404.277 349.659C396.956 346.81 389.173 345.333 381.318 345.303C363.687 345.303 347.991 350.919 334.203 362.151C332.612 363.43 331.086 364.788 329.631 366.219C326.589 370.899 328.011 372.951 333.915 372.357C334.833 372.231 335.895 372.033 337.092 371.763C339.207 370.836 341.232 369.693 343.149 368.298C354.678 358.65 370.455 354.258 390.462 355.113C397.752 356.103 404.142 358.119 409.641 361.161C415.131 364.131 418.686 365.229 420.279 364.428C420.844 364.13 421.334 363.708 421.713 363.194C422.092 362.68 422.349 362.086 422.466 361.458V360.369C421.97 359.937 421.472 359.508 420.972 359.082ZM410.442 372.654C411.031 372.498 411.597 372.265 412.125 371.961C412.445 371.836 412.748 371.67 413.025 371.466C409.941 369.551 406.634 368.022 403.179 366.912C396.954 364.87 390.452 363.798 383.901 363.735C379.194 363.735 374.496 364.302 369.789 365.418C365.314 366.408 360.998 368.013 356.964 370.188C353.446 372.074 350.118 374.295 347.028 376.821C347.441 377.162 347.91 377.43 348.414 377.613C349.152 377.811 350.376 377.91 352.104 377.91C353.949 377.91 355.614 377.451 357.063 376.524C357.844 375.821 358.759 375.282 359.754 374.94C361.806 373.878 364.29 373.158 367.206 372.753C367.863 372.618 368.556 372.528 369.294 372.456C369.753 372.392 370.22 372.392 370.68 372.456C371.481 372.456 372.867 372.618 374.856 372.951C376.845 373.284 378.303 373.446 379.23 373.446C381.282 373.446 384.135 372.888 387.78 371.763C390.967 370.633 394.335 370.097 397.716 370.179C400.695 370.242 402.585 370.413 403.386 370.674C404.106 370.872 405.096 371.304 406.356 371.961C406.569 372.033 406.772 372.133 406.959 372.258C407.229 372.393 407.454 372.528 407.652 372.654C407.985 372.726 408.381 372.789 408.849 372.861C409.308 372.861 409.839 372.789 410.442 372.654ZM377.934 -67.0231C376.674 -70.6501 373.893 -73.2601 369.591 -74.8531C363.628 -77.0009 357.47 -78.5593 351.204 -79.5061C348.335 -79.9296 345.483 -80.458 342.654 -81.0901C339.257 -81.4809 335.84 -81.6821 332.421 -81.6931C327.522 -81.7177 322.632 -81.2838 317.814 -80.3971C312.441 -79.5421 308.238 -77.7871 305.187 -75.1501C302.136 -72.5041 300.615 -68.7061 300.615 -63.7471C300.615 -60.1201 301.641 -57.4021 303.693 -55.6201C305.349 -54.2341 307.536 -53.5411 310.263 -53.5411C312.837 -53.5411 315.42 -54.3961 318.003 -56.1151C319.065 -56.7721 321.324 -58.5991 324.762 -61.5691C331.062 -66.9241 337.02 -69.5971 342.654 -69.5971C348.288 -69.5341 352.761 -68.0761 356.064 -65.2321C359.457 -62.3971 359.619 -52.1191 356.568 -34.4071C355.398 -27.5311 355.353 -21.6451 356.469 -16.7671C356.95 -14.8877 357.616 -13.0607 358.458 -11.3131L366.603 -2.79007C367.845 -2.08807 369.177 -1.49406 370.581 -1.00807L370.68 -0.909073C370.364 -1.38103 370.034 -1.84323 369.69 -2.29507C368.944 -3.36548 368.182 -4.42461 367.404 -5.47208C365.613 -8.04608 364.425 -12.1141 363.822 -17.6581C363.228 -23.2741 363.795 -27.7021 365.514 -30.9421C366.441 -32.7871 368.304 -35.5051 371.076 -39.0691C373.659 -42.5071 375.981 -46.8271 378.033 -52.0561C380.094 -57.2761 380.049 -62.2621 377.934 -67.0231ZM395.628 -75.9331C396.69 -79.3081 396.492 -81.8551 395.034 -83.5741C393.504 -85.2841 391.326 -85.5901 388.464 -84.4651C385.557 -83.4121 384.162 -81.4951 384.297 -78.7141C384.432 -75.1501 386.187 -68.9041 389.571 -59.9851C393.342 -49.9411 393.405 -43.3351 389.76 -40.1581C386.443 -37.2298 383.196 -34.2229 380.022 -31.1401C377.052 -28.2331 375.549 -24.5701 375.549 -20.1421C375.549 -17.6221 376.575 -15.4081 378.636 -13.5001C380.418 -11.7811 382.272 -10.9261 384.198 -10.9261C389.76 -10.9261 393.81 -13.7971 396.321 -19.5481C398.382 -24.1651 399.408 -30.5101 399.408 -38.5741C399.408 -40.8241 398.976 -44.1271 398.112 -48.4831C397.166 -53.2974 396.272 -58.1217 395.43 -62.9551C394.503 -68.3101 394.566 -72.6211 395.628 -75.9331ZM341.268 -57.9961C337.623 -57.9961 334.14 -57.2041 330.828 -55.6201C327.453 -54.0361 324.033 -50.6701 320.586 -45.5131C317.148 -40.3561 313.368 -36.7201 309.264 -34.6141C305.181 -32.4865 300.637 -31.3955 296.034 -31.4371C291.273 -31.4371 287.133 -33.2191 283.614 -36.7921C279.708 -40.7521 277.755 -45.8821 277.755 -52.1551C277.755 -54.9901 277.989 -57.5731 278.448 -59.8861C279.051 -62.5231 280.068 -65.6371 281.535 -69.2011C283.254 -73.4941 284.379 -76.1671 284.91 -77.2291L285.81 -78.8131C280.968 -77.8861 276.531 -75.2761 272.49 -70.9831C268.44 -66.7531 266.127 -59.7871 265.533 -50.0671C264.867 -40.4281 268.476 -32.1931 276.369 -25.3891C284.181 -18.5851 300.516 -17.9821 325.365 -23.6071C328.344 -24.2641 330.792 -25.0651 332.718 -25.9831C344.112 -31.0771 350.007 -36.9541 350.403 -43.6231C350.745 -50.3011 350.007 -54.3691 348.225 -55.8181C346.425 -57.2671 344.112 -57.9961 341.268 -57.9961ZM351.798 -3.78908C351.097 -4.10806 350.4 -4.43811 349.71 -4.77908C342.897 -8.20975 335.378 -10.0062 327.75 -10.0261C317.076 -9.49509 307.572 -6.72307 299.22 -1.70107C292.47 2.39394 285.972 9.96292 279.744 20.9969C275.59 30.7731 272.169 40.8449 269.511 51.1289C268.647 54.2339 267.855 57.4019 267.117 60.6419C266.856 61.4249 266.625 62.2175 266.424 63.0179C261.654 79.0109 254.796 92.2949 245.85 102.861C244.725 104.184 243.573 105.471 242.376 106.731L240.486 108.621C235.05 113.904 227.499 120.24 217.824 127.647C208.086 135.045 200.094 145.017 193.875 157.572C187.512 170.064 186.684 187.371 191.391 209.511C194.244 182.088 198.645 164.088 204.612 155.493C210.57 146.844 216.798 139.635 223.296 133.893C227.841 129.897 232.179 126.135 236.31 122.589L241.674 118.125C246.576 114.005 251.383 109.774 256.092 105.435L256.389 105.147C256.758 104.796 257.127 104.427 257.478 104.058L258.576 102.969C259.069 102.604 259.535 102.204 259.971 101.772L260.259 101.475L263.049 98.5049C263.45 98.1458 263.815 97.7479 264.138 97.3169C273.3 87.8669 278.664 75.6269 280.248 60.6419C280.5 59.1209 280.806 57.5999 281.139 56.0789C281.198 55.4463 281.297 54.818 281.436 54.1979C284.019 40.9859 286.971 30.8699 290.283 23.8679C293.637 16.7423 298.444 10.3965 304.395 5.23793C308.832 1.46693 314.43 -1.07108 321.189 -2.39409C321.936 -2.57408 322.665 -2.74507 323.376 -2.88907L329.829 -3.48306C335.859 -3.5547 341.751 -1.67995 346.632 1.86293C348.333 3.10493 349.962 4.52692 351.501 6.12892C353.355 8.04593 354.885 10.3229 356.073 12.9689C357.333 15.5429 358.854 20.3669 360.645 27.4319C362.499 34.5059 364.758 39.3659 367.395 42.0119C369.927 44.5709 373.345 46.0594 376.944 46.1699C379.131 46.2329 382.614 45.2429 387.384 43.1999C387.308 43.1833 387.237 43.1494 387.177 43.1009C382.812 42.3809 378.375 40.0409 373.857 36.0629C371.571 34.068 369.799 31.5521 368.691 28.7279C367.513 25.7666 366.941 22.5992 367.008 19.4129V19.3139C367.071 12.3569 367.404 7.76692 367.998 5.53493C362.72 2.22195 357.316 -0.894363 351.798 -3.78908ZM246.354 -4.67107C252.177 -9.10806 255.03 -13.4641 254.904 -17.7571C254.769 -22.1851 253.014 -28.5571 249.63 -36.8911C247.439 -42.2637 246.952 -48.1796 248.235 -53.8381C242.673 -49.6081 239.757 -44.5861 239.496 -38.7721C239.226 -33.0211 238.83 -28.8271 238.299 -26.1811C237.768 -23.6071 235.986 -20.8981 232.935 -18.0541C229.821 -15.2821 220.281 -11.6191 204.315 -7.05608C188.277 -2.55608 181.752 6.02992 184.731 18.7199C171.609 25.0559 163.329 30.5099 159.891 35.0729C156.768 39.0329 154.086 45.0089 151.836 53.0099C150.304 58.8677 149.013 64.7856 147.966 70.7489C146.634 77.4269 145.338 82.2419 144.087 85.2209C142.417 89.2732 140.625 93.274 138.714 97.2179C137.303 99.9695 135.378 102.426 133.044 104.454C130.524 106.632 128.607 109.539 127.284 113.175C125.889 116.739 126.06 119.187 127.779 120.51C129.435 121.77 131.064 120.87 132.648 117.837C134.178 114.795 137.058 110.664 141.297 105.444C145.473 100.152 153.159 93.42 164.355 85.2209C167.865 82.6469 171.582 80.0009 175.488 77.3009C175.016 74.4514 174.784 71.5673 174.795 68.6789C174.795 60.8759 176.514 54.1349 179.961 48.4469C182.076 44.9459 185.559 41.6069 190.401 38.4389C190.27 35.2801 190.536 32.1174 191.193 29.0249C192.516 22.7429 196.395 17.7569 202.821 14.0579C209.184 10.3589 216.564 7.38892 224.979 5.13892C233.394 2.88892 240.522 -0.378067 246.354 -4.67107ZM259.764 -0.414078C257.784 1.50293 253.905 3.97794 248.136 7.01993C237.273 12.8339 228.966 17.5949 223.188 21.2939C217.293 24.9929 213.117 28.9889 210.678 33.2819C208.239 37.5394 206.397 42.1123 205.206 46.8719C204.009 51.6869 203.82 55.5119 204.612 58.3649C219.453 48.4469 230.253 40.2569 237.012 33.7859C244.824 26.1179 252.411 14.7239 259.764 -0.414078ZM250.62 39.6359C257.31 32.0325 262.201 23.0193 264.93 13.2659C251.817 32.1659 229.02 52.5509 196.557 74.4209C164.031 96.2189 144.582 116.64 138.219 135.675C131.595 150.606 130.101 172.044 133.746 199.998C135.726 211.959 139.641 224.307 145.473 237.069C151.233 249.759 155.346 256.527 157.803 257.391C160.179 258.183 162.006 257.589 163.266 255.6C164.526 253.62 164.229 249.192 162.366 242.316C160.313 234.822 158.556 227.25 157.101 219.618C155.39 211.378 153.964 203.081 152.826 194.742C151.701 186.417 151.008 181.296 150.738 179.379C150.508 177.763 150.31 176.143 150.144 174.519C149.901 171.022 149.736 167.52 149.649 164.016C149.379 158.346 150.18 151.434 152.034 143.307C153.816 135.171 157.794 126.846 163.959 118.323C170.052 109.863 177.774 102.213 187.116 95.3279C196.323 88.4609 207.555 79.4069 220.812 68.1749C233.925 56.8799 243.87 47.3669 250.62 39.6359ZM249.036 70.8479C251.754 63.1169 253.473 58.4639 254.202 56.8799C243.339 68.6339 226.968 82.7099 205.107 99.0989C204.639 99.4319 204.207 99.7559 203.82 100.089L202.821 100.782C187.638 112.608 177.144 127.782 171.321 146.277C166.083 166.365 165.12 191.538 168.441 221.805C170.952 241.299 170.691 257.283 167.631 269.775L167.046 272.151V272.943C167.046 276.39 168 278.1 169.926 278.1C171.906 278.1 173.499 274.833 174.696 268.29C175.092 266.508 175.452 264.123 175.785 261.153C175.716 259.768 175.716 258.38 175.785 256.995C175.713 208.755 177.504 177.561 181.149 163.422C182.877 157.347 186.486 150.543 191.985 143.001C198.741 133.88 206.697 125.713 215.637 118.719C219.813 115.416 223.89 111.555 227.859 107.127C231.909 102.627 235.779 97.4069 239.496 91.4669C243.377 84.9436 246.574 78.028 249.036 70.8479ZM290.877 85.9139C291.543 86.6429 292.731 87.0389 294.45 87.1019C295.44 87.1019 296.574 86.9759 297.834 86.7059C302.991 86.7599 307.329 87.39 310.848 88.5959C313.332 89.2799 315.654 90.2069 317.805 91.3679C318.723 91.7279 319.245 91.8539 319.398 91.7639V91.6649C319.74 91.5119 319.938 91.278 319.992 90.9719C319.992 90.7019 319.632 89.8469 318.903 88.3979C316.943 84.8083 313.969 81.8754 310.353 79.9649C307.947 78.7462 305.366 77.9111 302.703 77.4899C299.391 76.9589 296.772 77.1929 294.855 78.1919C292.794 79.1819 291.471 80.3969 290.877 81.8549C290.618 82.3498 290.448 82.8857 290.373 83.4389C290.318 83.4906 290.286 83.5617 290.283 83.6369C290.217 84.1732 290.285 84.7173 290.481 85.2209C290.597 85.4608 290.729 85.6924 290.877 85.9139ZM238.695 145.386V143.208C233.727 147.969 230.613 155.79 229.353 166.698C228.03 177.534 228.858 186.651 231.837 194.058C232.035 194.508 232.233 194.949 232.44 195.345C235.617 202.077 241.71 208.224 250.719 213.777C250.829 213.83 250.931 213.897 251.025 213.975C260.835 219.915 267.747 224.838 271.797 228.735C275.703 232.578 278.781 237.429 281.04 243.315V237.861C280.707 229.734 278.88 223.254 275.568 218.43C273.183 215.001 269.736 211.068 265.236 206.64C261.667 203.185 257.987 199.847 254.202 196.632C253.474 195.971 252.777 195.278 252.114 194.553C243.564 185.562 239.091 169.173 238.704 145.386H238.695ZM221.208 196.722C222.531 205.848 224.25 213.282 226.374 219.024C227.634 222.462 230.685 228.078 235.518 235.881C238.623 240.966 242.538 246.951 247.245 253.818L247.641 254.412C252.411 261.486 256.326 267.165 259.368 271.458C261.348 272.853 263.112 271.818 264.642 268.389C264.966 267.723 265.299 266.904 265.632 265.905C266.289 263.79 266.721 260.892 266.919 257.184C266.991 256.828 267.027 256.467 267.027 256.104C267.145 251.813 266.222 247.558 264.336 243.702C264.024 243.003 263.694 242.313 263.346 241.632C261.227 238.099 258.689 234.835 255.786 231.912C252.937 229.094 249.955 226.415 246.849 223.884C243.817 221.493 240.802 219.081 237.804 216.648C234.087 213.48 231.54 211.095 230.154 209.511C227.697 206.937 224.718 202.662 221.208 196.722ZM192.588 246.285C191.391 245.295 190.392 250.38 189.6 261.549C188.943 271.854 187.548 280.539 185.424 287.613L185.028 288.999L184.632 293.265C184.632 296.109 185.46 298.548 187.116 300.6C188.646 302.454 190.266 303.372 191.976 303.372C194.244 303.372 196.458 301.887 198.645 298.917C200.282 296.636 201.585 294.132 202.515 291.483C203.123 289.48 203.524 287.42 203.712 285.336C203.712 283.221 203.622 281.043 203.415 278.793C202.155 265.05 198.546 254.214 192.588 246.285ZM239.883 274.536C233.734 258.894 225.44 244.182 215.241 230.823C225.177 256.995 230.811 286.857 232.134 320.427C232.206 321.606 232.242 322.569 232.242 323.298C232.242 323.955 232.368 325.314 232.638 327.366C232.908 329.409 233.169 331.686 233.43 334.197C233.7 336.717 234.492 338.787 235.815 340.443C237.075 342.027 240.423 343.287 245.85 344.214C251.286 345.069 253.671 340.254 253.014 329.742C252.285 319.167 251.448 311.238 250.521 305.955C249.531 300.6 245.985 290.124 239.892 274.536H239.883ZM310.65 98.7029C310.587 98.7029 310.524 98.6669 310.452 98.6039C310.178 98.5327 309.913 98.4332 309.66 98.3069C302.1 95.4629 293.73 94.5359 284.514 95.5259C284.36 95.8971 284.195 96.2632 284.019 96.6239C282.503 99.9519 280.261 102.898 277.458 105.246C285.072 102.798 292.308 101.943 299.121 102.663C304.869 103.184 310.483 104.694 315.717 107.127C318.273 108.306 320.82 109.692 323.367 111.285C325.167 110.628 324.933 109.08 322.683 106.632C320.055 103.96 316.997 101.749 313.638 100.089C313.134 99.7738 312.6 99.5085 312.045 99.2969L310.659 98.7029H310.65ZM307.869 117.243C309.066 116.973 309.66 116.577 309.66 116.046C309.66 115.524 309.165 115.02 308.166 114.561C307.536 114.274 306.87 114.074 306.186 113.967H305.88C305.682 113.967 305.421 114.102 305.088 114.363C304.755 114.489 304.557 114.993 304.494 115.848C304.359 116.244 304.422 116.577 304.692 116.838C304.874 117.064 305.113 117.238 305.385 117.342C305.529 117.432 305.655 117.486 305.781 117.531C306.488 117.545 307.193 117.454 307.869 117.243ZM279.339 286.92C276.63 287.19 274.272 288.477 272.292 290.79C270.353 292.784 269.129 295.363 268.809 298.125C268.611 300.762 268.98 305.361 269.907 311.895C270.834 318.375 271.428 325.017 271.698 331.821C271.876 337.728 270.683 343.596 268.215 348.966C267.671 350.566 267.338 352.23 267.225 353.916C267.225 356.238 268.215 358.146 270.204 359.676C271.923 360.999 273.813 361.656 275.874 361.656C278.394 361.656 281.724 359.316 285.9 354.618C287.7 352.638 289.086 350.487 290.076 348.174C293.262 340.515 294.846 333.477 294.846 327.06C294.846 320.526 294.648 315.54 294.252 312.093C293.757 308.477 293.16 304.875 292.461 301.293C291.732 297.464 289.982 293.903 287.394 290.988C284.748 287.946 282.048 286.596 279.339 286.92ZM219.417 309.42C217.761 305.982 215.142 304.398 211.569 304.668C208.653 304.866 206.601 306.081 205.404 308.331C204.207 310.509 203.685 312.201 203.811 313.389C203.946 314.514 204.639 315.963 205.899 317.745C207.096 319.536 208.482 321.084 210.075 322.407C213.981 325.647 217.032 327.267 219.219 327.267C219.219 327.537 219.579 327.465 220.317 327.06C220.943 326.683 221.51 326.216 222 325.674C222.366 325.187 222.573 324.6 222.594 323.991V323.199C222.546 322.57 222.516 321.94 222.504 321.309C222.363 320.091 222.261 318.87 222.198 317.646C222 315.603 221.073 312.858 219.417 309.42ZM482.298 220.32C480.228 223.227 478.383 228.78 476.727 236.97C475.071 244.962 474.243 252.63 474.243 259.956C474.243 267.363 475.863 275.067 479.112 283.059L488.454 306.648C491.505 314.307 494.421 320.031 497.202 323.793C499.92 327.555 501.873 329.481 503.07 329.544C504.258 329.607 504.852 329.049 504.852 327.852C504.789 326.601 505.086 324.486 505.752 321.516C506.409 318.474 508.236 316.26 511.215 314.874C514.131 313.416 515.922 312.228 516.579 311.31C517.122 310.554 517.434 309.657 517.479 308.727C517.407 307.872 517.344 306.837 517.272 305.658C517.209 304.398 517.11 303.048 516.975 301.59L516.777 300.204C516 295.607 514.906 291.069 513.501 286.623C510.711 277.776 507.111 269.478 502.665 261.747C495.249 248.859 490.578 240.471 488.652 236.574C485.475 230.364 483.351 224.955 482.298 220.32ZM376.35 229.23H376.251L375.261 229.734C376.971 229.995 378.267 230.067 379.131 229.932C376.381 231.439 373.486 232.667 370.491 233.595C371.409 233.532 372.345 233.505 373.263 233.505C373.731 233.568 374.163 233.532 374.559 233.406C372.709 234.754 370.615 235.729 368.394 236.277C368.664 236.34 368.862 236.412 368.988 236.475H369.096C364.92 238.59 360.546 239.049 355.974 237.861C356.304 237.459 356.707 237.123 357.162 236.871C356.172 236.871 355.182 236.907 354.192 236.97C352.319 237.205 350.418 236.892 348.72 236.07C350.7 235.548 352.761 235.116 354.885 234.783C354.01 234.737 353.142 234.604 352.293 234.387C352.383 234.414 352.491 234.414 352.59 234.387C352.259 234.372 351.928 234.342 351.6 234.297C349.31 233.889 347.052 233.324 344.841 232.605C344.567 232.534 344.301 232.435 344.049 232.308C343.779 232.245 343.653 232.11 343.653 231.912C346.713 231.732 349.8 231.624 352.896 231.615H353.292C352.751 231.482 352.219 231.316 351.699 231.12C352.002 231.126 352.304 231.093 352.599 231.021C349.717 230.834 346.857 230.404 344.049 229.734C340.458 228.924 337.029 227.516 333.906 225.567C333.249 225.117 333.186 224.712 333.708 224.379C347.694 228.942 361.068 229.635 373.866 226.458C386.646 223.353 390.066 223.218 384.099 226.071L381.111 227.556C380.107 228.029 379.083 228.458 378.042 228.843L376.35 229.23ZM322.773 207.036C323.313 207.036 323.97 207.135 324.762 207.333C325.428 207.531 326.562 207.63 328.146 207.63C329.739 207.558 331.494 206.766 333.42 205.254C334.534 204.323 335.623 203.362 336.687 202.374C336.759 202.311 336.795 202.239 336.795 202.176C339.237 199.42 342.166 197.138 345.435 195.444C349.548 193.914 353.445 193.752 357.162 194.949C357.432 195.003 357.765 195.111 358.152 195.237C358.422 195.372 358.692 195.471 358.962 195.534C359.307 195.658 359.679 195.692 360.042 195.633C360.409 195.704 360.789 195.673 361.14 195.543C361.417 195.475 361.686 195.375 361.941 195.246C362.23 195.125 362.528 195.026 362.832 194.949C366.612 193.752 370.554 193.923 374.658 195.444C375.054 195.633 375.486 195.867 375.945 196.128C378.537 197.658 380.985 199.665 383.307 202.176L383.496 202.374C383.829 202.707 384.891 203.67 386.682 205.254C388.599 206.766 390.363 207.558 391.947 207.63C393.54 207.63 394.701 207.54 395.43 207.333C396.044 207.154 396.68 207.054 397.32 207.036C399.039 207.495 399.606 208.422 399.003 209.808C398.103 211.338 396.15 212.301 393.153 212.688C390.644 213.002 388.108 213.032 385.593 212.778C377.122 211.595 368.597 210.836 360.051 210.501C353.094 210.708 344.544 211.464 334.401 212.787C331.044 213.057 328.299 212.994 326.157 212.589C323.601 212.139 321.918 211.212 321.09 209.808C320.496 208.422 321.054 207.495 322.773 207.036ZM340.467 165.114C340.8 168.219 342.195 168.939 344.643 167.292C347.091 165.636 350.313 166.167 354.282 168.876C358.26 171.648 362.958 171.387 368.394 168.084C373.704 164.709 377.664 164.052 380.319 166.104C382.308 167.724 383.235 169.164 383.109 170.46C383.093 170.845 382.988 171.22 382.803 171.558C382.011 173.205 380.319 173.826 377.736 173.439C376.549 173.22 375.328 173.267 374.161 173.575C372.994 173.883 371.91 174.445 370.986 175.221C368.925 176.733 367.035 178.227 365.316 179.676C363.525 181.134 361.203 181.467 358.359 180.666C355.515 179.883 351.303 177.399 345.741 173.241C344.457 173.104 343.191 172.838 341.961 172.449C339.972 171.855 338.541 170.856 337.686 169.47C336.768 167.922 336.543 166.068 336.993 163.917C337.217 162.895 337.549 161.899 337.983 160.947C339.441 157.707 341.763 155.43 344.94 154.107C346.092 154.215 346.56 154.548 346.335 155.097C346.407 155.682 345.642 156.573 344.049 157.77C342.177 159.228 341.016 160.92 340.566 162.828C340.433 163.582 340.394 164.351 340.467 165.114ZM416.895 29.8169L415.707 31.9949C411.135 39.3299 403.152 45.0809 391.758 49.2479C387.563 51.0677 383.149 52.3324 378.627 53.0099C378.201 53.0793 377.771 53.1125 377.34 53.1089C365.748 54.0989 357.495 47.6909 352.59 33.8849C347.1 18.5489 339.774 10.5209 330.63 9.80093C330.362 9.77248 330.095 9.73645 329.829 9.69292H329.541C329.175 9.72835 328.809 9.76436 328.443 9.80093L322.773 10.4939C321.496 10.7199 320.234 11.0204 318.993 11.3939C317.333 11.8295 315.709 12.389 314.133 13.0679L312.837 13.6619C312.403 13.9182 311.974 14.1822 311.55 14.4539L310.848 14.9489C310.524 15.1568 310.194 15.3549 309.858 15.5429C308.997 16.1969 308.199 16.929 307.473 17.7299C302.045 23.9843 297.923 31.261 295.35 39.1319C293.694 44.2259 291.975 51.7859 290.184 61.8299C289.779 64.0079 289.347 66.1589 288.888 68.2739C289.617 68.2896 290.346 68.2896 291.075 68.2739C294.081 68.3369 297.024 68.5349 299.922 68.8679C302.865 69.2639 305.709 69.7589 308.472 70.3529C311.98 71.1892 315.431 72.2504 318.804 73.5299C327.075 76.8329 333.771 81.6839 338.874 88.0919C346.632 99.7289 349.404 109.476 347.226 117.342C347.025 118.012 346.794 118.673 346.533 119.322C345.489 121.446 344.103 122.895 342.357 123.678C341.636 124.029 340.865 124.263 340.071 124.371C339.113 124.504 338.139 124.474 337.191 124.281C335.482 124.123 333.825 123.614 332.322 122.787C330.908 122.041 329.603 121.106 328.443 120.006C324.798 116.712 320.658 115.524 316.023 116.442C316.005 116.496 315.978 116.532 315.915 116.541C314.142 122.643 308.049 125.883 297.636 126.261C289.455 126.819 283.686 125.397 280.338 121.995C279.916 121.553 279.517 121.09 279.141 120.609C278.219 119.397 277.546 118.014 277.161 116.541C276.963 116.555 276.764 116.555 276.567 116.541C274.263 116.631 271.842 115.974 269.304 114.561C268.446 114.086 267.619 113.557 266.829 112.977C264.661 115.728 262.441 118.438 260.169 121.104C259.932 121.399 259.698 121.696 259.467 121.995C258.117 123.795 257.163 125.379 256.587 126.747C254.796 130.779 253.869 136.107 253.797 142.713C253.737 145.428 253.873 148.144 254.202 150.84C254.724 155.07 255.687 159.39 257.082 163.818C258.207 167.526 259.368 170.793 260.565 173.628C261.753 176.472 263.013 178.947 264.345 181.071C266.865 185.031 269.007 188.073 270.798 190.188C272.589 192.303 275.802 195.246 280.437 199.008C285.009 202.707 288.123 207.297 289.779 212.778C291.435 218.196 292.632 222.858 293.361 226.764C293.955 230.589 294.711 234.261 295.647 237.762C296.439 241.2 298.626 246.051 302.208 252.333C303.261 254.25 304.89 256.203 307.077 258.183C311.649 262.413 319.335 266.868 330.126 271.557C332.781 273.015 335.463 274.302 338.181 275.427C340.107 276.084 342.024 276.714 343.95 277.308C344.742 277.578 345.534 277.776 346.335 277.902C349.71 278.829 353.085 279.351 356.469 279.486C358.197 279.621 359.889 279.657 361.536 279.585L364.416 279.396C375.549 278.406 386.682 273.807 397.815 265.617C431.205 249.417 449.7 228.177 453.273 201.879C453.273 201.753 453.309 201.609 453.363 201.483C453.633 199.233 453.84 196.956 453.966 194.643C455.163 182.493 457.611 171.585 461.328 161.937C466.242 145.701 466.773 128.52 462.912 110.394C462.884 110.228 462.851 110.063 462.813 109.899L462.021 107.127C462.156 107.784 461.823 108.72 461.031 109.899C457.881 113.418 453.804 115.479 448.8 116.046C447.36 116.244 445.848 116.316 444.228 116.244C443.663 116.23 443.098 116.197 442.536 116.145C439.296 124.011 432.834 127.809 423.159 127.548H421.863C421.433 127.487 421.004 127.421 420.576 127.35C420.176 127.317 419.777 127.281 419.379 127.242C412.935 126.495 408.489 123.822 406.059 119.223C405.836 118.837 405.637 118.437 405.465 118.026C401.54 117.303 397.487 118.005 394.035 120.006L392.343 120.906C389.589 122.31 387.771 123.237 386.88 123.678C385.89 124.146 384.36 124.146 382.308 123.678C382.072 123.629 381.841 123.563 381.615 123.48C380.388 123.156 379.215 122.656 378.132 121.995C376.215 120.285 375.252 117.432 375.252 113.472C375.299 110.544 375.6 107.626 376.152 104.751C378.006 95.4269 382.272 87.8309 388.968 81.9539C389.697 81.2879 390.462 80.6939 391.254 80.1719C403.116 71.1809 419.784 66.6539 441.249 66.5819C442.374 66.8519 443.436 67.2119 444.426 67.6799L442.833 64.9079H443.04C441.103 61.7776 439.08 58.7014 436.974 55.6829L416.904 29.8169H416.895Z" fill="#171717"/>
</g>
<defs>
<clipPath id="clip0_46_2432">
<rect width="720" height="720" fill="white" transform="translate(0 -216)"/>
</clipPath>
</defs>
</svg>
