<svg width="45" height="24" viewBox="0 0 45 24" fill="none" xmlns="http://www.w3.org/2000/svg">
<g clip-path="url(#clip0_29_8446)">
<path d="M40.3988 0.345713C41.0411 0.266286 41.7105 0.37529 42.2749 0.694237C43.0584 1.12178 43.6266 1.91107 43.7682 2.7827C43.8419 3.27394 43.8115 3.78608 43.6396 4.25499C43.3992 4.93156 42.8983 5.51299 42.2606 5.85841C41.6784 6.17902 40.9854 6.29526 40.3273 6.18998C39.6468 6.08449 39.0095 5.737 38.5552 5.22714C38.0911 4.71335 37.8198 4.0347 37.806 3.34737C37.7864 2.69831 37.9942 2.04594 38.3865 1.52408C38.8595 0.885977 39.6014 0.44603 40.3988 0.345713ZM40.6602 0.721955C40.3895 0.780904 40.1969 1.00925 40.0889 1.24836C40.0086 1.43058 39.856 1.58158 39.6676 1.65314C39.3921 1.76339 39.0887 1.6519 38.8074 1.72533C38.5605 1.79566 38.3815 2.05297 38.4212 2.30552C38.4783 2.64577 38.7563 2.91342 38.7668 3.26629C38.788 3.46424 38.6578 3.62702 38.5752 3.79497C38.4745 3.99147 38.3957 4.22024 38.4605 4.44031C38.5575 4.68728 38.8372 4.83641 39.1011 4.81097C39.3774 4.79753 39.6867 4.79236 39.9096 4.98182C40.1115 5.18246 40.2015 5.46748 40.4118 5.66191C40.6141 5.846 40.9512 5.86379 41.1703 5.69791C41.4432 5.49231 41.5082 5.10944 41.8032 4.92597C42.0837 4.77146 42.4165 4.8631 42.7189 4.81304C42.9681 4.78098 43.178 4.55449 43.1704 4.30422C43.1691 4.01878 42.9653 3.79559 42.8701 3.5387C42.7769 3.34592 42.7989 3.11426 42.9019 2.92997C43.0143 2.70637 43.1721 2.47906 43.1473 2.21824C43.1196 1.94355 42.8594 1.72575 42.5831 1.72058C42.298 1.6941 41.9723 1.77353 41.729 1.58468C41.4662 1.41238 41.3998 1.08123 41.1682 0.881427C41.0352 0.755875 40.8436 0.685137 40.6602 0.721955Z" fill="#CCCCCC"/>
<path d="M15.5375 4.12119C16.4404 4.00887 17.3765 4.20103 18.1604 4.65566C19.1522 5.22323 19.8918 6.18007 20.2317 7.2544C20.6082 8.43111 20.5196 9.74868 19.9735 10.8604C19.5062 11.8229 18.6931 12.6271 17.6935 13.0478C16.8111 13.4244 15.7945 13.4848 14.8734 13.2141C13.927 12.9417 13.0964 12.3284 12.531 11.5374C11.8658 10.6166 11.5611 9.45931 11.6555 8.33555C11.7435 7.19855 12.2505 6.09217 13.0845 5.29666C13.7457 4.6598 14.6168 4.2306 15.5375 4.12119ZM15.5821 6.46013C15.1064 6.56686 14.675 6.83865 14.3651 7.20786C13.9676 7.67552 13.7713 8.29791 13.8119 8.9054C13.8503 9.58404 14.1932 10.2449 14.7473 10.6551C15.2112 11.0073 15.8241 11.1633 16.4039 11.0694C17.009 10.9781 17.5582 10.6168 17.8994 10.1189C18.2587 9.60472 18.3957 8.9509 18.2888 8.33721C18.1776 7.66974 17.766 7.05149 17.1718 6.70689C16.7001 6.42766 16.1183 6.33831 15.5821 6.46013Z" fill="#CCCCCC"/>
<path d="M0.772461 4.36537C1.09289 4.36413 1.41352 4.36351 1.73395 4.36579C3.05368 5.93922 4.37362 7.51265 5.69419 9.08567C7.01666 7.55298 8.33513 6.01741 9.65843 4.48555C9.96793 4.48638 10.2772 4.48555 10.5867 4.48638C10.5871 7.38089 10.5871 10.2754 10.5867 13.1697C9.75088 13.1705 8.91526 13.1705 8.08005 13.1697C8.07963 12.1742 8.08005 11.1785 8.07963 10.1832C7.2835 11.025 6.49053 11.8693 5.69482 12.7118C4.92034 11.8499 4.14817 10.9855 3.37368 10.1238C3.37326 11.1286 3.3741 12.1332 3.37326 13.1385C2.50654 13.1387 1.6396 13.1397 0.772881 13.1379C0.772461 10.2136 0.772461 7.28967 0.772461 4.36537Z" fill="#CCCCCC"/>
<path d="M21.5754 4.48618C21.8746 4.48494 22.1736 4.48618 22.4728 4.48535C23.919 5.75328 25.3619 7.02514 26.8077 8.29348C26.8085 7.03382 26.8073 5.77458 26.8081 4.51513C27.5923 4.51637 28.377 4.50955 29.1606 4.51865C29.1585 7.41172 29.1601 10.3052 29.1597 13.1981C28.9017 13.1999 28.6441 13.1985 28.3859 13.1989C26.8789 11.8807 25.3749 10.559 23.8673 9.2406C23.8673 10.5702 23.8667 11.9002 23.8678 13.2297C23.1034 13.2314 22.3396 13.2305 21.5752 13.2301C21.5754 10.3158 21.5754 7.40097 21.5754 4.48618Z" fill="#CCCCCC"/>
<path d="M30.1196 4.57579C32.4002 4.57579 34.681 4.57537 36.962 4.5762C36.9618 5.26746 36.9628 5.9583 36.9612 6.64956C36.2285 6.65039 35.4958 6.64915 34.7634 6.64998C34.7627 8.84352 34.7634 11.0371 34.7627 13.2306C33.9584 13.2314 33.1541 13.2314 32.3496 13.231C32.3483 11.047 32.35 8.86317 32.3487 6.67914C31.6055 6.67832 30.8628 6.67914 30.1196 6.67873C30.119 5.97775 30.119 5.27656 30.1196 4.57579Z" fill="#CCCCCC"/>
<path d="M33.8513 14.7881C34.8137 14.6716 35.7896 14.7374 36.7459 14.8754C36.674 15.5259 36.6026 16.1762 36.5286 16.8263C36.0693 16.7299 35.5999 16.6776 35.1301 16.6771C34.5346 16.673 33.953 16.8788 33.4515 17.1856C32.9357 17.5064 32.5152 18.004 32.3789 18.5981C32.2137 19.3191 32.3602 20.1237 32.8346 20.7064C33.2834 21.2533 33.9455 21.6103 34.6378 21.7565C35.3665 21.8688 36.1097 21.8099 36.8392 21.7321C36.8478 22.365 36.8904 22.9994 36.8463 23.6313C35.9439 23.767 35.024 23.8212 34.1142 23.7314C33.5557 23.6642 32.9867 23.5463 32.5005 23.2563C31.8128 22.9152 31.2003 22.4221 30.7372 21.8161C30.2456 21.173 29.9569 20.3823 29.9281 19.5773C29.8991 18.7333 30.0144 17.863 30.4071 17.1026C30.6633 16.6004 31.0507 16.171 31.502 15.8303C31.8304 15.5801 32.1929 15.3782 32.5503 15.172C32.9468 14.9455 33.4017 14.847 33.8513 14.7881Z" fill="#CCCCCC"/>
<path d="M8.12667 14.8141C8.92615 14.8123 9.72543 14.8131 10.5247 14.8137C10.5251 17.0563 10.5243 19.2988 10.5251 21.5418C11.1656 21.5464 11.8066 21.5344 12.4466 21.5478C12.4395 22.2488 12.4462 22.9491 12.4435 23.6505C10.9994 23.6516 9.55524 23.6505 8.11133 23.651C8.11301 20.7051 8.12414 17.7597 8.12667 14.8141Z" fill="#CCCCCC"/>
<path d="M16.4123 14.7912C16.7918 14.79 17.1712 14.7908 17.5509 14.7908C18.7515 17.7418 19.9494 20.694 21.1487 23.6452C20.274 23.6429 19.3995 23.6404 18.5246 23.64C18.0148 22.3748 17.5093 21.1077 17.0002 19.8425C16.4358 21.1106 15.8692 22.3771 15.3044 23.6446C14.4704 23.6477 13.6365 23.6493 12.8027 23.6514C14.0054 20.6973 15.2094 17.7445 16.4123 14.7912Z" fill="#CCCCCC"/>
<path d="M0.715159 14.8461C2.21076 14.8457 3.70698 14.8439 5.20258 14.847C5.86507 14.8939 6.54311 15.2058 6.89926 15.7759C7.23733 16.3176 7.26297 16.9915 7.15287 17.6023C7.04739 18.2034 6.67591 18.8001 6.07414 19.0198C6.69082 19.203 7.17955 19.7212 7.34134 20.332C7.48338 20.8679 7.46027 21.446 7.28923 21.9728C7.10496 22.5402 6.66897 23.0116 6.13003 23.2753C5.73186 23.4726 5.29251 23.5957 4.84644 23.6193C3.46934 23.6201 2.09246 23.6201 0.715159 23.6193C0.714739 20.695 0.714739 17.7704 0.715159 14.8461ZM3.15585 16.4057C3.15711 16.9967 3.16068 17.5878 3.1611 18.1788C3.57629 18.1848 3.99148 18.1924 4.40688 18.1974C4.692 18.2009 4.9891 18.0507 5.1011 17.7829C5.21645 17.5051 5.21351 17.1797 5.10278 16.9011C4.98637 16.6128 4.67687 16.4405 4.37052 16.4316C3.96605 16.4206 3.56095 16.4138 3.15585 16.4057ZM3.09324 19.8742C3.09282 20.4726 3.09282 21.071 3.09324 21.6694C3.50317 21.6686 3.91311 21.6694 4.32262 21.6617C4.66847 21.6117 5.0139 21.3912 5.12126 21.0505C5.21519 20.7465 5.16791 20.3785 4.92943 20.1495C4.71007 19.9416 4.39553 19.8608 4.09801 19.8556C3.76329 19.8608 3.42837 19.8664 3.09324 19.8742Z" fill="#CCCCCC"/>
<path d="M21.5264 14.9441C21.8258 14.943 22.1252 14.9434 22.4244 14.9434C23.8696 16.212 25.3133 17.4822 26.7584 18.7512C26.7599 17.4919 26.758 16.2323 26.7595 14.9724C27.5428 14.972 28.3265 14.972 29.1103 14.9728C29.1111 17.8673 29.1107 20.7619 29.1107 23.6562C28.8533 23.6572 28.5959 23.6562 28.3385 23.6566C26.8309 22.338 25.3265 21.0161 23.8187 19.6975C23.8185 21.0264 23.8185 22.3558 23.8185 23.6847C23.0545 23.6866 22.2906 23.6851 21.5268 23.6851C21.5264 20.7716 21.5264 17.8578 21.5264 14.9441Z" fill="#CCCCCC"/>
</g>
<defs>
<clipPath id="clip0_29_8446">
<rect width="43.6364" height="24" fill="white" transform="translate(0.419922)"/>
</clipPath>
</defs>
</svg>
