<svg width="104" height="24" viewBox="0 0 104 24" fill="none" xmlns="http://www.w3.org/2000/svg">
<g clip-path="url(#clip0_4454_115)">
<path d="M45.7297 7.00544H44.0762V5.10107H45.7297V7.00544ZM45.7297 19.7238H44.0762V8.89705H45.7297V19.7238Z" fill="#FF008A"/>
<path d="M49.3133 19.7236H47.6895V8.89678H49.309V10.7246C49.594 10.0722 50.0738 9.52392 50.6826 9.15484C51.2914 8.78576 51.9994 8.61396 52.7096 8.66298C55.7362 8.66298 57.156 10.8691 57.156 13.6279V19.7406H55.5024V13.6577C55.5024 11.6215 54.3972 10.1975 52.4376 10.1975C50.478 10.1975 49.3048 11.6598 49.3048 13.7384L49.3133 19.7236Z" fill="#FF008A"/>
<path d="M66.605 12.6504L64.6454 14.8566V19.7322H62.8516V4.28906H64.6454V12.5229L71.893 4.28906H74.0184L67.825 11.2731L74.0184 19.728H71.961L66.605 12.6504Z" fill="#FF008A"/>
<path d="M76.5901 19.7236H74.9365V3.99561H76.5901V19.7236Z" fill="#FF008A"/>
<path d="M83.6503 19.9955C82.9326 20.0039 82.2203 19.8708 81.5541 19.6038C80.8879 19.3368 80.2808 18.9411 79.7676 18.4393C79.2544 17.9376 78.8451 17.3396 78.5631 16.6796C78.2812 16.0196 78.132 15.3104 78.1243 14.5927C78.1243 14.5077 78.1243 14.4213 78.1243 14.3334C78.0749 12.8814 78.6043 11.4693 79.5959 10.4075C80.5876 9.34576 81.9603 8.72127 83.4122 8.67139H83.6078C86.7746 8.67139 89.1338 11.2219 89.0615 14.7373H79.7821C79.8386 15.6082 80.1806 16.4362 80.7551 17.0933C81.3297 17.7503 82.1046 18.1997 82.9603 18.372C83.8159 18.5443 84.7044 18.4298 85.4884 18.0463C86.2724 17.6629 86.9082 17.0317 87.2975 16.2506H88.9255C88.583 17.3695 87.8797 18.3437 86.9255 19.0211C85.9712 19.6985 84.8196 20.0411 83.6503 19.9955ZM79.8841 13.3048H87.3145C87.1825 12.4226 86.734 11.6186 86.0527 11.0429C85.3714 10.4672 84.5038 10.1591 83.612 10.1762C82.7247 10.174 81.8649 10.4842 81.1833 11.0523C80.5017 11.6204 80.0418 12.4103 79.8841 13.2835V13.3048Z" fill="#FF008A"/>
<path d="M92.301 7.00544H90.6475V5.10107H92.301V7.00544ZM92.301 19.7238H90.6475V8.89705H92.301V19.7238Z" fill="#FF008A"/>
<path d="M95.8804 19.7237H94.2354V8.89689H95.8889V10.7247C96.093 10.1254 97.0409 8.66309 99.2896 8.66309C102.316 8.66309 103.736 10.8692 103.736 13.628V19.7407H102.082V13.6578C102.082 11.6216 100.977 10.1976 99.009 10.1976C97.0409 10.1976 95.8804 11.6599 95.8804 13.7385V19.7237Z" fill="#FF008A"/>
<path d="M2.41751 12.0298C2.41751 15.6302 5.0105 18.3379 8.40689 18.3379C9.4637 18.3823 10.5121 18.1323 11.4352 17.616C12.3583 17.0996 13.12 16.3371 13.6354 15.4134H15.4547C14.9744 16.8799 12.8277 19.9915 8.40689 19.9915C3.98606 19.9915 0.564172 16.6164 0.564172 12.0043C0.532998 10.9841 0.703115 9.9677 1.06482 9.01326C1.42652 8.05883 1.97271 7.18501 2.6722 6.4417C3.37169 5.6984 4.21076 5.10019 5.14148 4.68123C6.07221 4.26228 7.07636 4.03079 8.09657 4H8.41114C12.8235 4 14.9786 7.04358 15.4717 8.62912H13.6184C13.1067 7.70339 12.3503 6.93618 11.4319 6.41139C10.5135 5.8866 9.46849 5.62444 8.41114 5.65357C5.02751 5.68757 2.41751 8.41233 2.41751 12.0298Z" fill="#FF008A"/>
<path d="M21.8911 19.9958C20.4255 19.9958 19.0199 19.4136 17.9836 18.3772C16.9472 17.3409 16.365 15.9353 16.365 14.4697C16.365 14.4216 16.365 14.3734 16.365 14.3252C16.3284 12.8638 16.8724 11.4474 17.8778 10.3862C18.8833 9.325 20.2683 8.70543 21.7295 8.66315H21.8826C22.6885 8.62596 23.488 8.82191 24.1854 9.22752C24.8827 9.63313 25.4484 10.2312 25.8145 10.9501V8.89696H27.4979V19.7237H25.8443V17.6876C25.4797 18.4139 24.912 19.0186 24.2102 19.4284C23.5084 19.8381 22.7027 20.0352 21.8911 19.9958ZM25.8443 14.3125C25.8443 11.983 24.1907 10.1934 21.9506 10.1934C19.7104 10.1934 18.0398 11.966 18.0398 14.3125C18.0398 16.6589 19.6934 18.4272 21.9506 18.4272C24.2077 18.4272 25.8485 16.6419 25.8485 14.3167L25.8443 14.3125Z" fill="#FF008A"/>
<path d="M31.0559 19.7236H29.4023V3.99561H31.0559V19.7236Z" fill="#FF008A"/>
<path d="M37.5166 18.0617L40.9555 8.89697H42.7493L38.5495 19.7323H36.4879L32.2881 8.89697H34.0819L37.5166 18.0617Z" fill="#FF008A"/>
</g>
<defs>
<clipPath id="clip0_4454_115">
<rect width="103.141" height="16" fill="white" transform="translate(0.582031 4)"/>
</clipPath>
</defs>
</svg>
