<svg width="82" height="24" viewBox="0 0 82 24" fill="none" xmlns="http://www.w3.org/2000/svg">
<path d="M29.3111 5.24859L29.5547 5.27269C30.2903 5.345 30.8063 5.51818 31.0473 5.77437C31.1839 5.91898 31.4115 6.38495 31.4115 7.88104V13.7119C31.4115 15.0919 31.2446 16.1176 30.9161 16.7612C30.3331 17.8993 29.2066 18.4519 27.4695 18.4519C25.8957 18.4519 24.8612 17.9145 24.3095 16.8094C24.0078 16.1935 23.8551 15.3106 23.8551 14.1832V7.01784C23.8551 6.04663 24.039 5.73688 24.1488 5.63779C24.2658 5.53246 24.6175 5.345 25.6601 5.27448L25.9118 5.25663V4.31934H19.0151V5.25573L19.2642 5.27448C20.2872 5.35393 20.6344 5.54228 20.7496 5.64761C20.8576 5.7458 21.0388 6.05556 21.0388 7.01784V14.019C21.0388 15.4454 21.2896 16.6166 21.7833 17.4976C22.7054 19.1571 24.4487 19.9989 26.9643 19.9989C29.4798 19.9989 31.2669 19.1455 32.189 17.4628C32.6826 16.5586 32.9326 15.2972 32.9326 13.7128V7.88193C32.9326 6.43404 33.1441 5.95915 33.2709 5.80561C33.4209 5.62262 33.8074 5.3816 34.7929 5.27359L35.0339 5.2477V4.31934H29.3084V5.24949L29.3111 5.24859Z" fill="#FF008A"/>
<path d="M9.69078 12.1489L9.94429 12.165C10.9396 12.2275 11.2752 12.398 11.3859 12.4953C11.4681 12.5667 11.66 12.8479 11.66 13.9083V17.4772C11.66 17.6486 11.6216 17.7718 11.5457 17.8458C11.5002 17.8905 11.3217 18.0172 10.6531 18.2368C10.3406 18.3404 10.0077 18.418 9.66132 18.4654C9.3114 18.5144 9.00432 18.5394 8.74634 18.5394C7.23418 18.5394 5.94607 17.9824 4.91773 16.8853C3.88403 15.7829 3.36004 14.2181 3.36004 12.2337C3.36004 9.81907 3.88403 8.07035 4.91684 7.03665C5.94965 6.00385 7.16009 5.48075 8.51604 5.48075C9.87198 5.48075 10.9289 5.91101 11.7635 6.79385C12.2295 7.30177 12.691 8.09267 13.1355 9.14511L13.2061 9.31025H14.1791L13.9836 4.05518H13.0498L12.982 4.22389C12.9026 4.41938 12.8088 4.56667 12.7044 4.66308C12.658 4.70592 12.5303 4.77734 12.2045 4.77734C12.1652 4.77644 11.9474 4.74609 10.8343 4.42741C9.97464 4.18015 9.08912 4.05607 8.19914 4.05607C5.73005 4.05607 3.71889 4.91481 2.22101 6.60818C0.862388 8.13909 0.172363 10.0038 0.172363 12.148C0.172363 14.5903 1.04003 16.5667 2.75036 18.0208C4.29555 19.333 6.21744 19.9998 8.46069 19.9998C9.67292 19.9998 10.9521 19.7749 12.2607 19.3294C14.0157 18.7323 14.3746 18.3752 14.3746 18.0235V13.6146C14.3746 12.9871 14.4968 12.5622 14.7325 12.3819C14.8093 12.3203 15.036 12.2105 15.6868 12.1668L15.9394 12.1507V11.2125H9.68899V12.1516L9.69078 12.1489Z" fill="#FF008A"/>
<path d="M50.7909 15.5152C50.2446 16.7239 49.634 17.4907 48.9761 17.7924C48.2924 18.1066 47.1989 18.2646 45.726 18.2646C44.0174 18.2646 43.4497 18.2048 43.2738 18.1548C43.2185 18.1387 43.048 18.0896 43.048 17.6263V12.3498H46.2348C47.3702 12.3498 47.7362 12.5605 47.8541 12.6855C48.0103 12.8515 48.2361 13.2621 48.4316 14.2753L48.4736 14.494H49.4912V8.7801H48.4718L48.4316 9.00059C48.2451 10.0075 48.0201 10.4181 47.8648 10.5859C47.7478 10.7127 47.3801 10.9234 46.2357 10.9234H43.0489V6.19496C43.0489 5.85575 43.1051 5.76649 43.1042 5.76649C43.1042 5.76649 43.181 5.70936 43.5024 5.70936H46.5526C48.104 5.70936 48.7003 5.91645 48.9262 6.08874C49.1493 6.25923 49.46 6.70199 49.6796 7.84192L49.7215 8.06062H50.79L50.7008 4.31592H38.2651V5.25321L38.516 5.27106C39.5131 5.34158 39.8434 5.53529 39.9505 5.64508C40.0558 5.7522 40.2343 6.07356 40.2343 7.01442V16.9801C40.2343 18.0057 40.0442 18.2771 39.963 18.3467C39.8496 18.4422 39.5095 18.619 38.5062 18.7252L38.2651 18.7502V19.6786H50.8525L52.0147 15.3536H50.865L50.7927 15.5125L50.7909 15.5152Z" fill="#FF008A"/>
<path d="M80.7878 13.1381C80.2656 12.482 79.3658 11.759 78.1125 10.9877L76.1451 9.77193C75.4372 9.33809 74.9114 8.91855 74.5811 8.52488C74.2714 8.16336 74.1214 7.73845 74.1214 7.22339C74.1214 6.6628 74.3115 6.24057 74.7034 5.93082C75.1132 5.60589 75.5827 5.44789 76.1388 5.44789C76.8663 5.44789 77.6179 5.71837 78.3731 6.25128C79.1212 6.77974 79.6764 7.74024 80.0237 9.106L80.0754 9.30953H81.1207L80.5726 4H79.6577L79.6077 4.2062C79.5586 4.40616 79.4925 4.5588 79.414 4.65878C79.364 4.72037 79.2319 4.75519 79.0578 4.75519C79.0212 4.75162 78.8302 4.71591 77.9081 4.39277C77.1636 4.13211 76.5137 4 75.9755 4C74.6668 4 73.5983 4.40527 72.7976 5.20598C71.9978 6.0067 71.5916 7.01986 71.5916 8.2187C71.5916 9.13635 71.9353 9.98438 72.6146 10.7431C72.9717 11.1306 73.4537 11.5171 74.0473 11.8947L75.9576 13.0864C77.035 13.7576 77.7465 14.2647 78.0687 14.5878C78.5463 15.0806 78.7793 15.6412 78.7793 16.3035C78.7793 17.0382 78.5543 17.5898 78.0911 17.9915C77.6171 18.4048 77.069 18.6057 76.4164 18.6057C75.1703 18.6057 74.1544 18.1245 73.3127 17.1355C72.8253 16.5642 72.3923 15.7813 72.0272 14.8092L71.9621 14.6342H70.9507L71.6934 19.9438H72.6512L72.6878 19.7161C72.7119 19.5644 72.7601 19.426 72.8351 19.293C72.8753 19.2234 72.9743 19.1886 73.1261 19.1886C73.1636 19.1921 73.3644 19.2287 74.3392 19.568C75.1194 19.8402 75.8799 19.9768 76.6003 19.9768C78.0402 19.9768 79.2444 19.5564 80.1763 18.7271C81.1181 17.8898 81.5965 16.8311 81.5965 15.5822C81.5965 14.6503 81.3261 13.8299 80.7905 13.139L80.7878 13.1381Z" fill="#FF008A"/>
<path d="M62.9404 10.9877L60.972 9.77282C60.2651 9.33809 59.7393 8.91944 59.4081 8.52578C59.0992 8.16425 58.9493 7.73934 58.9493 7.22428C58.9493 6.66458 59.1394 6.24146 59.5304 5.93171C59.9401 5.60678 60.4097 5.44878 60.9649 5.44878C61.6924 5.44878 62.444 5.71926 63.1992 6.25218C63.9464 6.78063 64.5025 7.74113 64.8489 9.1069L64.8997 9.31042H65.945L65.3978 4H64.482L64.432 4.2062C64.3829 4.40616 64.3177 4.5597 64.2374 4.65878C64.1883 4.71948 64.0553 4.7543 63.8821 4.7543C63.8455 4.75073 63.6536 4.71502 62.7333 4.39277C61.9888 4.13211 61.338 4 60.7989 4C59.4911 4 58.4226 4.40527 57.6228 5.20598C56.8221 6.0058 56.4168 7.01986 56.4168 8.2187C56.4168 9.13635 56.7605 9.98438 57.4407 10.7431C57.7978 11.1314 58.2789 11.518 58.8743 11.8938L60.7837 13.0855C61.8611 13.7576 62.5726 14.2638 62.8948 14.5869C63.3733 15.0797 63.6054 15.6403 63.6054 16.3026C63.6054 17.0373 63.3804 17.5889 62.9171 17.9906C62.4431 18.403 61.895 18.603 61.2416 18.603C59.9955 18.603 58.9805 18.1218 58.1379 17.1337C57.6514 16.5615 57.2175 15.7786 56.8524 14.8074L56.7864 14.6324H55.7759L56.5186 19.9429H57.4764L57.5121 19.7152C57.5362 19.5635 57.5844 19.4251 57.6612 19.2921C57.7004 19.2225 57.7995 19.1877 57.9504 19.1877C57.9888 19.1913 58.1887 19.2279 59.1644 19.5671C59.9446 19.8393 60.7042 19.9768 61.4255 19.9768C62.8654 19.9768 64.0687 19.5555 65.0006 18.7262C65.9433 17.8889 66.4208 16.8311 66.4208 15.5813C66.4208 14.6503 66.1503 13.8282 65.6156 13.1381C65.0934 12.482 64.1928 11.759 62.9395 10.9877H62.9404Z" fill="#FF008A"/>
</svg>
