<svg width="24" height="24" viewBox="0 0 24 24" fill="none" xmlns="http://www.w3.org/2000/svg">
<path d="M20.1241 0.0829304C20.1155 0.100124 20.1384 0.145975 20.1814 0.183229C20.2444 0.243408 20.2559 0.277796 20.2559 0.406751C20.2559 0.512781 20.2673 0.567229 20.296 0.575826C20.3648 0.601617 20.3992 0.532841 20.3992 0.360901C20.3992 0.269199 20.4106 0.194692 20.425 0.194692C20.4679 0.194692 20.5453 0.105856 20.5281 0.0771991C20.5023 0.0399453 20.1498 0.0456767 20.1241 0.0829304ZM20.6485 0.0714677C20.6198 0.100124 20.6255 0.561497 20.6542 0.578692C20.6972 0.604483 20.7688 0.567229 20.786 0.50705C20.8118 0.429677 20.8548 0.438274 20.8863 0.527109C20.915 0.598751 20.9207 0.598751 20.9809 0.558632C21.0153 0.535706 21.0497 0.492721 21.0525 0.464065C21.0726 0.366632 21.1127 0.355169 21.1299 0.441139C21.1614 0.584423 21.17 0.595886 21.2159 0.578692C21.2503 0.564363 21.2589 0.509915 21.2589 0.320781C21.2589 0.0857961 21.2589 0.0800647 21.1815 0.0628707C21.1012 0.042811 21.0869 0.0542737 20.9952 0.223348C20.9408 0.320781 20.8863 0.31505 20.8863 0.211886C20.8863 0.100124 20.7172 -0.000174066 20.6485 0.0714677ZM2.76095 0.343707C2.75235 0.363766 2.74949 1.55302 2.75235 2.98872L2.76095 5.59648L11.358 5.61081C16.0863 5.61941 19.9722 5.61941 19.9922 5.61368C20.0209 5.60794 20.0266 5.06347 20.0209 2.96293L20.0123 0.323647L11.3924 0.31505C4.51187 0.309318 2.76955 0.31505 2.76095 0.343707ZM14.0804 6.53929C14.0746 6.57368 14.0632 6.97487 14.0546 7.43624C14.0431 8.13833 14.0488 8.27302 14.0832 8.28735C14.1061 8.29594 14.6879 8.30454 15.3785 8.30454C16.0691 8.30741 16.6509 8.31887 16.6709 8.3332C16.7196 8.36185 16.6938 8.40484 16.5162 8.59684C16.4359 8.67994 16.2382 8.89774 16.072 9.07827C15.9087 9.25881 15.7596 9.42215 15.7424 9.43935C15.2066 10.0153 14.7767 10.4538 13.255 11.9783C12.2521 12.9842 11.4153 13.8066 11.3895 13.8066C11.3666 13.8066 11.3436 13.7952 11.3379 13.7808C11.335 13.7665 10.3349 12.7492 9.12274 11.5227C7.9077 10.2962 6.76143 9.13272 6.57229 8.93499C6.38316 8.73726 6.19976 8.55099 6.16823 8.5166C6.13384 8.48508 6.09659 8.42777 6.08513 8.39051L6.06507 8.3246L6.33158 8.34179C6.48059 8.35326 7.06519 8.36185 7.62973 8.36185C8.44358 8.36472 8.66423 8.35612 8.68429 8.32747C8.69576 8.30741 8.70435 7.89762 8.69862 7.41618L8.69289 6.54215L8.06244 6.52496C7.7157 6.5135 6.39749 6.5049 5.13373 6.50203L2.83259 6.49917L2.82973 7.03505C2.82973 7.33308 2.82399 7.62538 2.82113 7.68842C2.8154 7.75147 2.80967 8.86048 2.8068 10.15C2.80107 12.0442 2.80967 12.5028 2.83832 12.5199C2.90137 12.5601 4.56346 12.5515 4.60358 12.5113C4.62937 12.4856 4.63796 12.1245 4.63796 11.0699C4.63796 10.2933 4.64656 9.65427 4.65516 9.64281C4.66662 9.63421 4.77265 9.73165 4.89587 9.8606C5.0191 9.98956 5.5951 10.5742 6.17683 11.1616C6.7557 11.7462 7.87331 12.8724 8.6585 13.6633C9.44083 14.4543 10.0827 15.1191 10.0827 15.142C10.0827 15.1908 10.2862 14.9816 7.76441 17.532C6.62101 18.6897 5.46041 19.8675 5.18531 20.1484C4.9102 20.4263 4.67235 20.6556 4.66089 20.6556C4.64943 20.6556 4.6351 20.0452 4.63223 19.3001L4.62364 17.9475L3.73241 17.9389L2.84119 17.9332L2.82399 18.2398C2.81253 18.4118 2.78961 19.7328 2.76955 21.18C2.74089 23.4611 2.74089 23.8164 2.77814 23.8393C2.80107 23.8537 4.02471 23.8623 5.75558 23.8565L8.69289 23.8508L8.70149 22.9653C8.70722 22.2747 8.69862 22.0741 8.67283 22.054C8.65277 22.0426 8.04525 22.0311 7.32596 22.0311C6.29432 22.0311 6.01349 22.0225 6.01349 21.9939C6.01349 21.9537 6.37743 21.5841 9.2517 18.6754C10.3636 17.5521 11.3007 16.6035 11.335 16.5663C11.3694 16.529 11.4153 16.5004 11.4382 16.5004C11.4611 16.5004 11.6187 16.6465 11.7907 16.827C12.146 17.1996 16.6967 21.7961 16.84 21.9251C17.032 22.1027 17.0778 22.097 15.5218 22.0856L14.109 22.0741L14.0918 22.9481C14.0746 23.6416 14.0804 23.8308 14.109 23.8623C14.1377 23.8938 14.4815 23.9053 15.8886 23.9253C16.8486 23.9396 18.1553 23.9626 18.7915 23.9798C19.4306 23.9941 19.9607 23.9998 19.9722 23.9884C20.0008 23.954 20.0037 22.2948 19.9722 21.1857C19.9578 20.6499 19.9464 19.7013 19.9435 19.0795C19.9407 18.4576 19.9292 17.9303 19.9177 17.9131C19.9005 17.8845 19.6999 17.8816 19.0064 17.8988L18.1209 17.9189V19.2285C18.1209 19.9478 18.1124 20.5467 18.098 20.5582C18.0866 20.5696 17.7914 20.2916 17.4418 19.9363C17.0922 19.5838 15.9029 18.3802 14.7996 17.2655C13.6935 16.1479 12.7793 15.2137 12.7679 15.1908C12.7364 15.1392 12.7593 15.1162 14.2294 13.6347C15.8771 11.9726 16.37 11.4711 17.2612 10.5656C17.7026 10.1185 18.0751 9.75171 18.0923 9.75171C18.1124 9.75171 18.1267 10.2303 18.1353 11.1845L18.1496 12.6174H19.9263L19.9492 9.63708C19.9636 7.70848 19.9636 6.63672 19.9435 6.5966C19.9177 6.53642 19.9005 6.53356 19.0179 6.51636C18.525 6.50777 17.2154 6.4963 16.1064 6.49057L14.0947 6.47911L14.0804 6.53929Z" fill="#FF008A"/>
</svg>
