<svg width="82" height="24" viewBox="0 0 82 24" fill="none" xmlns="http://www.w3.org/2000/svg">
<path d="M29.3115 5.24859L29.5552 5.27269C30.2908 5.345 30.8067 5.51818 31.0478 5.77437C31.1843 5.91898 31.412 6.38495 31.412 7.88104V13.7119C31.412 15.0919 31.245 16.1176 30.9165 16.7612C30.3336 17.8993 29.2071 18.4519 27.47 18.4519C25.8962 18.4519 24.8616 17.9145 24.31 16.8094C24.0083 16.1935 23.8556 15.3106 23.8556 14.1832V7.01784C23.8556 6.04663 24.0395 5.73688 24.1493 5.63779C24.2662 5.53246 24.6179 5.345 25.6606 5.27448L25.9123 5.25663V4.31934H19.0156V5.25573L19.2647 5.27448C20.2877 5.35393 20.6349 5.54228 20.7501 5.64761C20.8581 5.7458 21.0393 6.05556 21.0393 7.01784V14.019C21.0393 15.4454 21.2901 16.6166 21.7838 17.4976C22.7059 19.1571 24.4492 19.9989 26.9647 19.9989C29.4803 19.9989 31.2674 19.1455 32.1895 17.4628C32.6831 16.5586 32.9331 15.2972 32.9331 13.7128V7.88193C32.9331 6.43404 33.1446 5.95915 33.2714 5.80561C33.4213 5.62262 33.8079 5.3816 34.7934 5.27359L35.0344 5.2477V4.31934H29.3089V5.24949L29.3115 5.24859Z" fill="#CCCCCC"/>
<path d="M9.69126 12.1489L9.94478 12.165C10.9401 12.2275 11.2757 12.398 11.3864 12.4953C11.4685 12.5667 11.6605 12.8479 11.6605 13.9083V17.4772C11.6605 17.6486 11.6221 17.7718 11.5462 17.8458C11.5007 17.8905 11.3221 18.0172 10.6535 18.2368C10.3411 18.3404 10.0082 18.418 9.66181 18.4654C9.31188 18.5144 9.00481 18.5394 8.74683 18.5394C7.23467 18.5394 5.94656 17.9824 4.91822 16.8853C3.88452 15.7829 3.36053 14.2181 3.36053 12.2337C3.36053 9.81907 3.88452 8.07035 4.91733 7.03665C5.95013 6.00385 7.16058 5.48075 8.51653 5.48075C9.87247 5.48075 10.9294 5.91101 11.764 6.79385C12.23 7.30177 12.6915 8.09267 13.136 9.14511L13.2065 9.31025H14.1795L13.9841 4.05518H13.0503L12.9825 4.22389C12.903 4.41938 12.8093 4.56667 12.7049 4.66308C12.6585 4.70592 12.5308 4.77734 12.205 4.77734C12.1657 4.77644 11.9479 4.74609 10.8348 4.42741C9.97513 4.18015 9.08961 4.05607 8.19963 4.05607C5.73054 4.05607 3.71938 4.91481 2.2215 6.60818C0.862876 8.13909 0.172852 10.0038 0.172852 12.148C0.172852 14.5903 1.04052 16.5667 2.75085 18.0208C4.29604 19.333 6.21793 19.9998 8.46118 19.9998C9.67341 19.9998 10.9526 19.7749 12.2612 19.3294C14.0162 18.7323 14.375 18.3752 14.375 18.0235V13.6146C14.375 12.9871 14.4973 12.5622 14.733 12.3819C14.8098 12.3203 15.0365 12.2105 15.6872 12.1668L15.9399 12.1507V11.2125H9.68948V12.1516L9.69126 12.1489Z" fill="#CCCCCC"/>
<path d="M50.7914 15.5152C50.2451 16.7239 49.6345 17.4907 48.9766 17.7924C48.2929 18.1066 47.1993 18.2646 45.7265 18.2646C44.0179 18.2646 43.4502 18.2048 43.2743 18.1548C43.219 18.1387 43.0485 18.0896 43.0485 17.6263V12.3498H46.2353C47.3707 12.3498 47.7367 12.5605 47.8546 12.6855C48.0108 12.8515 48.2366 13.2621 48.4321 14.2753L48.4741 14.494H49.4917V8.7801H48.4723L48.4321 9.00059C48.2455 10.0075 48.0206 10.4181 47.8653 10.5859C47.7483 10.7127 47.3806 10.9234 46.2362 10.9234H43.0494V6.19496C43.0494 5.85575 43.1056 5.76649 43.1047 5.76649C43.1047 5.76649 43.1815 5.70936 43.5029 5.70936H46.5531C48.1045 5.70936 48.7008 5.91645 48.9266 6.08874C49.1498 6.25923 49.4605 6.70199 49.68 7.84192L49.722 8.06062H50.7905L50.7012 4.31592H38.2656V5.25321L38.5165 5.27106C39.5136 5.34158 39.8438 5.53529 39.951 5.64508C40.0563 5.7522 40.2348 6.07356 40.2348 7.01442V16.9801C40.2348 18.0057 40.0447 18.2771 39.9635 18.3467C39.8501 18.4422 39.51 18.619 38.5066 18.7252L38.2656 18.7502V19.6786H50.853L52.0152 15.3536H50.8655L50.7932 15.5125L50.7914 15.5152Z" fill="#CCCCCC"/>
<path d="M80.7883 13.1381C80.2661 12.482 79.3663 11.759 78.113 10.9877L76.1455 9.77193C75.4377 9.33809 74.9119 8.91855 74.5816 8.52488C74.2719 8.16336 74.1219 7.73845 74.1219 7.22339C74.1219 6.6628 74.312 6.24057 74.7039 5.93082C75.1136 5.60589 75.5832 5.44789 76.1393 5.44789C76.8668 5.44789 77.6184 5.71837 78.3736 6.25128C79.1217 6.77974 79.6769 7.74024 80.0241 9.106L80.0759 9.30953H81.1212L80.5731 4H79.6582L79.6082 4.2062C79.5591 4.40616 79.493 4.5588 79.4145 4.65878C79.3645 4.72037 79.2324 4.75519 79.0583 4.75519C79.0217 4.75162 78.8307 4.71591 77.9085 4.39277C77.1641 4.13211 76.5142 4 75.9759 4C74.6673 4 73.5988 4.40527 72.7981 5.20598C71.9983 6.0067 71.5921 7.01986 71.5921 8.2187C71.5921 9.13635 71.9358 9.98438 72.6151 10.7431C72.9722 11.1306 73.4542 11.5171 74.0478 11.8947L75.9581 13.0864C77.0355 13.7576 77.747 14.2647 78.0692 14.5878C78.5468 15.0806 78.7798 15.6412 78.7798 16.3035C78.7798 17.0382 78.5548 17.5898 78.0915 17.9915C77.6175 18.4048 77.0695 18.6057 76.4169 18.6057C75.1708 18.6057 74.1549 18.1245 73.3131 17.1355C72.8258 16.5642 72.3928 15.7813 72.0277 14.8092L71.9626 14.6342H70.9512L71.6939 19.9438H72.6517L72.6883 19.7161C72.7124 19.5644 72.7606 19.426 72.8356 19.293C72.8757 19.2234 72.9748 19.1886 73.1266 19.1886C73.1641 19.1921 73.3649 19.2287 74.3397 19.568C75.1199 19.8402 75.8804 19.9768 76.6008 19.9768C78.0407 19.9768 79.2449 19.5564 80.1768 18.7271C81.1185 17.8898 81.597 16.8311 81.597 15.5822C81.597 14.6503 81.3265 13.8299 80.7909 13.139L80.7883 13.1381Z" fill="#CCCCCC"/>
<path d="M62.9408 10.9877L60.9725 9.77282C60.2655 9.33809 59.7398 8.91944 59.4086 8.52578C59.0997 8.16425 58.9498 7.73934 58.9498 7.22428C58.9498 6.66458 59.1399 6.24146 59.5309 5.93171C59.9406 5.60678 60.4102 5.44878 60.9654 5.44878C61.6929 5.44878 62.4445 5.71926 63.1997 6.25218C63.9469 6.78063 64.503 7.74113 64.8493 9.1069L64.9002 9.31042H65.9455L65.3983 4H64.4825L64.4325 4.2062C64.3834 4.40616 64.3182 4.5597 64.2379 4.65878C64.1888 4.71948 64.0558 4.7543 63.8826 4.7543C63.846 4.75073 63.6541 4.71502 62.7337 4.39277C61.9893 4.13211 61.3385 4 60.7994 4C59.4916 4 58.4231 4.40527 57.6233 5.20598C56.8226 6.0058 56.4173 7.01986 56.4173 8.2187C56.4173 9.13635 56.761 9.98438 57.4412 10.7431C57.7982 11.1314 58.2794 11.518 58.8748 11.8938L60.7842 13.0855C61.8616 13.7576 62.5731 14.2638 62.8953 14.5869C63.3738 15.0797 63.6059 15.6403 63.6059 16.3026C63.6059 17.0373 63.3809 17.5889 62.9176 17.9906C62.4436 18.403 61.8955 18.603 61.2421 18.603C59.996 18.603 58.981 18.1218 58.1383 17.1337C57.6518 16.5615 57.218 15.7786 56.8529 14.8074L56.7869 14.6324H55.7764L56.5191 19.9429H57.4769L57.5126 19.7152C57.5367 19.5635 57.5849 19.4251 57.6617 19.2921C57.7009 19.2225 57.8 19.1877 57.9509 19.1877C57.9893 19.1913 58.1892 19.2278 59.1649 19.5671C59.9451 19.8393 60.7047 19.9768 61.426 19.9768C62.8659 19.9768 64.0692 19.5555 65.0011 18.7262C65.9437 17.8889 66.4213 16.8311 66.4213 15.5813C66.4213 14.6503 66.1508 13.8282 65.6161 13.1381C65.0939 12.482 64.1932 11.759 62.9399 10.9877H62.9408Z" fill="#CCCCCC"/>
</svg>
