<svg width="41" height="24" viewBox="0 0 41 24" fill="none" xmlns="http://www.w3.org/2000/svg">
<path fill-rule="evenodd" clip-rule="evenodd" d="M1.70087 4.37973L0.933611 4.34009L0.617351 4.27684L0.554099 4.15813C0.554099 4.04744 0.633164 4 0.791511 4H8.72553C12.4433 4 15.0535 5.13117 16.5725 7.40131C17.4426 8.71444 17.8776 10.2728 17.8776 12.0763C17.8776 13.0177 17.7353 13.9273 17.4424 14.8053C17.1103 15.7309 16.6515 16.5458 16.0582 17.2736C15.4094 18.0407 14.6186 18.6342 13.7088 19.0691C12.7357 19.5121 11.6442 19.7415 10.4182 19.7415H0.300874C0.134729 19.7415 0.0556641 19.6861 0.0556641 19.5914C0.0556641 19.4885 0.17437 19.4333 0.395752 19.4333L2.33382 19.3148C2.63448 19.2749 2.84807 19.1879 2.95096 19.0694L3.14873 18.7923C3.22 18.6028 3.25964 18.3181 3.26744 17.9304V5.3844C3.26744 4.89398 2.9906 4.59331 2.45274 4.47461L1.70087 4.37973ZM5.97255 4.59331L5.91709 4.90979V18.8398C5.91709 18.9979 5.94872 19.1084 6.01197 19.1482L6.32845 19.1957H7.37254L9.79301 19.1086C10.4416 19.0375 10.9952 18.9346 11.4304 18.7921C11.8631 18.6343 12.2687 18.4102 12.6326 18.128C12.9491 17.8669 13.2734 17.495 13.6295 17.0204C14.2226 16.2453 14.6498 15.2565 14.9108 14.0462C15.0689 13.2556 15.1482 12.4881 15.1482 11.7525C15.1482 11.1039 15.0533 10.4077 14.8556 9.65629C14.5787 8.57256 14.1594 7.62335 13.566 6.81645C12.4191 5.25031 10.5364 4.47504 7.93401 4.47504H6.32823C6.14649 4.45879 6.02778 4.49844 5.97255 4.59331ZM19.4357 19.6228C19.4199 19.5277 19.499 19.4883 19.6731 19.4883L20.2268 19.4723C20.5274 19.4328 20.7094 19.3302 20.7805 19.1718L20.8833 18.6023V14.0064C20.8833 13.8324 20.8199 13.6979 20.7014 13.6189L20.29 13.579L19.7364 13.7296L19.4357 13.7135C19.3961 13.6186 19.5148 13.5316 19.7916 13.4525C20.4482 13.2786 21.0259 13.057 21.5161 12.7801C21.8165 12.6062 22.0301 12.5111 22.125 12.4717L22.3624 12.448C22.4415 12.4636 22.4813 12.622 22.4813 12.9066V18.6968C22.4813 18.9734 22.5444 19.1714 22.6633 19.2899C22.8054 19.4324 23.1379 19.5035 23.6519 19.5035C23.8339 19.5035 23.9285 19.5433 23.9448 19.63C23.9448 19.7015 23.8893 19.7251 23.7942 19.7251H19.578C19.4831 19.7257 19.4357 19.6859 19.4357 19.6228ZM38.1037 13.9273C37.7162 14.3309 37.4552 14.8053 37.3126 15.3748V18.7369C37.3126 19.0373 37.4155 19.2509 37.6291 19.3854L38.1119 19.4721L38.618 19.5275C38.7369 19.5435 38.7843 19.5674 38.7843 19.6304L38.7607 19.6859L38.6262 19.7257H34.3942C34.2677 19.7257 34.1966 19.6859 34.1966 19.6228L34.3151 19.5277L35.0271 19.4723C35.3037 19.4248 35.4781 19.3302 35.573 19.1876L35.6919 18.8317V14.0857L35.6124 13.7376L35.4783 13.6585C35.4385 13.6191 35.3754 13.5955 35.2803 13.5794C35.1618 13.5719 35.0193 13.5955 34.8692 13.6585L34.4661 13.7694L34.2362 13.714C34.1968 13.6585 34.2126 13.6191 34.2679 13.5955L34.608 13.4529C35.383 13.2235 36.0079 12.9863 36.4434 12.7413L36.981 12.4485L37.2184 12.4641L37.3133 12.6621V14.4021C37.9068 13.4371 38.3812 12.844 38.7057 12.646C38.9032 12.5275 39.0932 12.4325 39.2358 12.393L39.5124 12.3694C39.6863 12.3534 39.8843 12.4088 40.1055 12.5514C40.4064 12.7253 40.5645 12.9863 40.5801 13.3184C40.5961 13.5955 40.5166 13.8093 40.3427 13.975C40.1845 14.1095 40.0262 14.1494 39.8841 14.1095C39.7496 14.0859 39.6467 14.0304 39.5756 13.9514L39.354 13.6747C39.1801 13.4213 39.0139 13.3422 38.8164 13.4137C38.5861 13.4763 38.3491 13.6507 38.1037 13.9273ZM21.5715 7.42514C21.2787 7.42514 21.0415 7.52804 20.8439 7.72581C20.6303 7.92358 20.5274 8.17659 20.543 8.46945C20.5274 8.74629 20.6301 8.9837 20.8439 9.18147C21.0415 9.37924 21.2789 9.48192 21.5715 9.48192C21.8482 9.48192 22.0936 9.37902 22.2911 9.18147C22.4887 8.9837 22.5996 8.7465 22.5996 8.46945C22.5996 8.17659 22.4887 7.92358 22.2911 7.72581C22.0936 7.52804 21.8482 7.42514 21.5715 7.42514ZM25.7639 13.7374C26.0486 13.3578 26.4049 13.0414 26.8319 12.7884C27.2118 12.5668 27.5913 12.4244 27.9869 12.353L29.4503 12.2663C29.9799 12.2899 30.4708 12.3928 30.9138 12.5904C31.9817 13.065 32.6539 13.9353 32.9069 15.2008C33.1679 16.4823 32.9467 17.5663 32.2503 18.4442C31.6572 19.1876 30.8739 19.6622 29.8853 19.8678C28.8492 20.0972 27.8842 20.0259 27.0138 19.6703C25.8824 19.2113 25.1947 18.3017 24.9729 16.9727C24.7751 15.7153 25.0361 14.6471 25.7639 13.7374ZM30.3991 13.3817C29.9167 12.844 29.3076 12.6066 28.5717 12.6696C27.8601 12.7411 27.3143 13.1362 26.9581 13.8877C26.6341 14.5681 26.5152 15.399 26.6341 16.3796C26.7207 17.3527 27.0296 18.1277 27.5276 18.721C28.0577 19.346 28.659 19.607 29.3312 19.4885C30.0352 19.354 30.5496 18.9741 30.8897 18.3415C31.2218 17.693 31.3403 16.8545 31.2612 15.7865C31.1666 14.7186 30.89 13.9273 30.3991 13.3817ZM19.3802 13.7298V13.8088L19.2061 13.6979V13.7374L19.2219 13.8088H19.1981V13.6583H19.2061L19.3642 13.7772V13.6583H19.3958L19.3802 13.7298Z" fill="#CCCCCC"/>
<path fill-rule="evenodd" clip-rule="evenodd" d="M19.6732 13.6742H19.5783V13.7297H19.6574V13.7373H19.5783V13.7927H19.6732V13.809H19.5547V13.6582H19.6732V13.6742ZM20.1084 13.6582H20.1164L20.0373 13.8088H20.0135L19.9502 13.6898L19.879 13.8088H19.8709C19.8313 13.7373 19.7999 13.6898 19.7919 13.6582H19.8315L19.879 13.7771L19.9502 13.6582H19.9738L20.0293 13.7771L20.0925 13.6582H20.1084ZM20.3297 13.7373L20.3456 13.809H20.3061V13.7535L20.2271 13.6582H20.2665L20.3297 13.7373L20.393 13.6582H20.4248L20.3297 13.7373ZM20.5513 13.69C20.5669 13.6745 20.6068 13.6584 20.6462 13.6584C20.6861 13.6584 20.7097 13.6745 20.7413 13.69C20.7489 13.6981 20.7649 13.7137 20.7649 13.7375L20.7413 13.7929C20.7097 13.809 20.6859 13.809 20.6462 13.809C20.6068 13.809 20.5672 13.809 20.5513 13.7929L20.5115 13.7375C20.5117 13.7137 20.5277 13.6981 20.5513 13.69ZM20.7097 13.69L20.6462 13.6745L20.5832 13.69C20.5672 13.6981 20.5516 13.7137 20.5516 13.7375C20.5516 13.7535 20.5672 13.7691 20.5832 13.7773L20.6462 13.809C20.6698 13.809 20.7017 13.7929 20.7097 13.7773C20.7253 13.7693 20.7413 13.7537 20.7413 13.7375C20.7413 13.7137 20.7253 13.6981 20.7097 13.69ZM20.9469 13.6742L20.9389 13.7297H20.9625C21.0019 13.7297 21.0259 13.7137 21.0259 13.6981C21.0259 13.69 21.0179 13.6745 20.9781 13.6745L20.9469 13.6742ZM20.9863 13.6582C21.0262 13.6582 21.0574 13.6742 21.0574 13.6981L21.0259 13.7297L20.9861 13.7373L21.0812 13.8088H21.0413L20.9464 13.7373H20.9389L20.9469 13.8088H20.907V13.6582H20.9863ZM21.3818 13.6582L21.2792 13.7297L21.3818 13.809H21.3426L21.2553 13.7373V13.7297L21.2393 13.7373L21.2553 13.809H21.2157V13.6582H21.2553L21.2393 13.7297H21.2553L21.3582 13.6582H21.3818Z" fill="#CCCCCC"/>
</svg>
