<svg width="45" height="24" viewBox="0 0 45 24" fill="none" xmlns="http://www.w3.org/2000/svg">
<g clip-path="url(#clip0_109_16424)">
<path d="M40.3983 0.345713C41.0406 0.266286 41.71 0.37529 42.2744 0.694237C43.0579 1.12178 43.6261 1.91107 43.7677 2.7827C43.8414 3.27394 43.811 3.78608 43.6391 4.25499C43.3987 4.93156 42.8978 5.51299 42.2601 5.85841C41.6779 6.17902 40.9849 6.29526 40.3268 6.18998C39.6463 6.08449 39.009 5.737 38.5547 5.22714C38.0906 4.71335 37.8193 4.0347 37.8055 3.34737C37.7859 2.69831 37.9937 2.04594 38.386 1.52408C38.859 0.885977 39.6009 0.44603 40.3983 0.345713ZM40.6597 0.721955C40.389 0.780904 40.1964 1.00925 40.0884 1.24836C40.0081 1.43058 39.8556 1.58158 39.6671 1.65314C39.3916 1.76339 39.0882 1.6519 38.8069 1.72533C38.56 1.79566 38.381 2.05297 38.4207 2.30552C38.4778 2.64577 38.7558 2.91342 38.7663 3.26629C38.7875 3.46424 38.6573 3.62702 38.5747 3.79497C38.4741 3.99147 38.3953 4.22024 38.46 4.44031C38.557 4.68728 38.8367 4.83641 39.1006 4.81097C39.3769 4.79753 39.6862 4.79236 39.9091 4.98182C40.1111 5.18246 40.201 5.46748 40.4113 5.66191C40.6136 5.846 40.9507 5.86379 41.1698 5.69791C41.4428 5.49231 41.5077 5.10944 41.8027 4.92597C42.0832 4.77146 42.416 4.8631 42.7184 4.81304C42.9676 4.78098 43.1775 4.55449 43.1699 4.30422C43.1686 4.01878 42.9648 3.79559 42.8697 3.5387C42.7764 3.34592 42.7984 3.11426 42.9014 2.92997C43.0138 2.70637 43.1716 2.47906 43.1468 2.21824C43.1191 1.94355 42.8589 1.72575 42.5826 1.72058C42.2975 1.6941 41.9718 1.77353 41.7285 1.58468C41.4657 1.41238 41.3993 1.08123 41.1677 0.881427C41.0347 0.755876 40.8431 0.685137 40.6597 0.721955Z" fill="#FF008A"/>
<path d="M15.5371 4.12119C16.4399 4.00887 17.376 4.20103 18.1599 4.65566C19.1517 5.22323 19.8913 6.18007 20.2312 7.2544C20.6078 8.43111 20.5191 9.74868 19.973 10.8604C19.5057 11.8229 18.6926 12.6271 17.6931 13.0478C16.8106 13.4244 15.794 13.4848 14.8729 13.2141C13.9265 12.9417 13.0959 12.3284 12.5305 11.5374C11.8653 10.6166 11.5606 9.45931 11.655 8.33555C11.743 7.19855 12.25 6.09217 13.084 5.29666C13.7452 4.6598 14.6163 4.2306 15.5371 4.12119ZM15.5816 6.46014C15.1059 6.56686 14.6745 6.83865 14.3646 7.20786C13.9671 7.67552 13.7708 8.29791 13.8114 8.9054C13.8498 9.58404 14.1927 10.2449 14.7468 10.6551C15.2108 11.0073 15.8237 11.1633 16.4034 11.0694C17.0085 10.9781 17.5577 10.6168 17.899 10.1189C18.2583 9.60472 18.3953 8.9509 18.2883 8.33721C18.1772 7.66974 17.7655 7.05149 17.1713 6.70689C16.6996 6.42766 16.1178 6.33831 15.5816 6.46014Z" fill="#FF008A"/>
<path d="M0.771973 4.36537C1.0924 4.36413 1.41303 4.36351 1.73346 4.36579C3.05319 5.93922 4.37313 7.51265 5.69371 9.08567C7.01617 7.55298 8.33464 6.01741 9.65794 4.48555C9.96744 4.48638 10.2767 4.48555 10.5862 4.48638C10.5866 7.38089 10.5866 10.2754 10.5862 13.1697C9.75039 13.1705 8.91477 13.1705 8.07956 13.1697C8.07914 12.1742 8.07956 11.1785 8.07914 10.1832C7.28301 11.025 6.49004 11.8693 5.69433 12.7118C4.91985 11.8499 4.14768 10.9855 3.3732 10.1238C3.37278 11.1286 3.37362 12.1332 3.37278 13.1385C2.50605 13.1387 1.63912 13.1397 0.772393 13.1379C0.771972 10.2136 0.771973 7.28967 0.771973 4.36537Z" fill="#FF008A"/>
<path d="M21.5749 4.48618C21.8741 4.48494 22.1731 4.48618 22.4723 4.48535C23.9185 5.75328 25.3614 7.02514 26.8072 8.29348C26.808 7.03382 26.8068 5.77458 26.8076 4.51513C27.5918 4.51637 28.3765 4.50955 29.1601 4.51865C29.158 7.41172 29.1596 10.3052 29.1592 13.1981C28.9012 13.1999 28.6436 13.1985 28.3854 13.1989C26.8784 11.8807 25.3744 10.559 23.8668 9.2406C23.8668 10.5702 23.8662 11.9002 23.8673 13.2297C23.1029 13.2314 22.3391 13.2305 21.5747 13.2301C21.5749 10.3158 21.5749 7.40097 21.5749 4.48618Z" fill="#FF008A"/>
<path d="M30.1191 4.57579C32.3997 4.57579 34.6805 4.57537 36.9615 4.5762C36.9613 5.26746 36.9624 5.9583 36.9607 6.64956C36.228 6.65039 35.4953 6.64915 34.7629 6.64998C34.7622 8.84352 34.7629 11.0371 34.7622 13.2306C33.9579 13.2314 33.1536 13.2314 32.3491 13.231C32.3478 11.047 32.3495 8.86317 32.3482 6.67914C31.6051 6.67832 30.8623 6.67914 30.1191 6.67873C30.1185 5.97775 30.1185 5.27656 30.1191 4.57579Z" fill="#FF008A"/>
<path d="M33.8508 14.7881C34.8132 14.6716 35.7892 14.7374 36.7454 14.8754C36.6735 15.5259 36.6021 16.1762 36.5281 16.8263C36.0688 16.7299 35.5994 16.6776 35.1296 16.6771C34.5341 16.673 33.9525 16.8788 33.451 17.1856C32.9352 17.5064 32.5147 18.004 32.3784 18.5981C32.2132 19.3191 32.3597 20.1237 32.8341 20.7064C33.2829 21.2533 33.945 21.6103 34.6373 21.7565C35.366 21.8688 36.1092 21.8099 36.8387 21.7321C36.8473 22.365 36.8899 22.9994 36.8458 23.6313C35.9434 23.767 35.0235 23.8212 34.1137 23.7314C33.5552 23.6642 32.9862 23.5463 32.5 23.2563C31.8123 22.9152 31.1998 22.4221 30.7367 21.8161C30.2451 21.173 29.9564 20.3823 29.9276 19.5773C29.8986 18.7333 30.0139 17.863 30.4066 17.1026C30.6628 16.6004 31.0502 16.171 31.5016 15.8303C31.83 15.5801 32.1924 15.3782 32.5498 15.172C32.9463 14.9455 33.4012 14.847 33.8508 14.7881Z" fill="#FF008A"/>
<path d="M8.12618 14.8141C8.92566 14.8123 9.72494 14.8131 10.5242 14.8137C10.5246 17.0563 10.5238 19.2988 10.5246 21.5418C11.1651 21.5464 11.8061 21.5344 12.4461 21.5478C12.439 22.2488 12.4457 22.9491 12.443 23.6505C10.9989 23.6516 9.55475 23.6505 8.11084 23.651C8.11252 20.7051 8.12366 17.7597 8.12618 14.8141Z" fill="#FF008A"/>
<path d="M16.4118 14.7912C16.7913 14.79 17.1707 14.7908 17.5504 14.7908C18.751 17.7418 19.9489 20.694 21.1482 23.6452C20.2735 23.6429 19.399 23.6404 18.5241 23.64C18.0144 22.3748 17.5088 21.1077 16.9997 19.8425C16.4353 21.1106 15.8687 22.3771 15.3039 23.6446C14.4699 23.6477 13.636 23.6493 12.8022 23.6514C14.0049 20.6973 15.2089 17.7445 16.4118 14.7912Z" fill="#FF008A"/>
<path d="M0.714671 14.8461C2.21027 14.8457 3.7065 14.8439 5.20209 14.847C5.86459 14.8939 6.54263 15.2058 6.89877 15.7759C7.23684 16.3176 7.26248 16.9915 7.15238 17.6023C7.0469 18.2034 6.67542 18.8001 6.07365 19.0198C6.69034 19.203 7.17906 19.7212 7.34085 20.332C7.48289 20.8679 7.45978 21.446 7.28874 21.9728C7.10447 22.5402 6.66848 23.0116 6.12954 23.2753C5.73137 23.4726 5.29202 23.5957 4.84595 23.6193C3.46885 23.6201 2.09197 23.6201 0.714671 23.6193C0.71425 20.695 0.71425 17.7704 0.714671 14.8461ZM3.15536 16.4057C3.15663 16.9967 3.1602 17.5878 3.16062 18.1788C3.5758 18.1848 3.99099 18.1924 4.40639 18.1974C4.69151 18.2009 4.98862 18.0507 5.10061 17.7829C5.21596 17.5051 5.21302 17.1797 5.10229 16.9011C4.98588 16.6128 4.67638 16.4405 4.37004 16.4316C3.96557 16.4206 3.56047 16.4138 3.15536 16.4057ZM3.09275 19.8742C3.09233 20.4726 3.09233 21.071 3.09275 21.6694C3.50268 21.6686 3.91262 21.6694 4.32213 21.6617C4.66798 21.6117 5.01341 21.3912 5.12078 21.0505C5.2147 20.7465 5.16742 20.3785 4.92894 20.1495C4.70958 19.9416 4.39504 19.8608 4.09752 19.8556C3.76281 19.8608 3.42788 19.8664 3.09275 19.8742Z" fill="#FF008A"/>
<path d="M21.5259 14.9441C21.8253 14.943 22.1247 14.9434 22.4239 14.9434C23.8691 16.212 25.3128 17.4822 26.758 18.7512C26.7594 17.4919 26.7575 16.2323 26.759 14.9724C27.5423 14.972 28.326 14.972 29.1098 14.9728C29.1106 17.8673 29.1102 20.7619 29.1102 23.6562C28.8528 23.6572 28.5954 23.6562 28.338 23.6566C26.8304 22.338 25.326 21.0161 23.8182 19.6975C23.818 21.0264 23.818 22.3558 23.818 23.6847C23.054 23.6866 22.2901 23.6851 21.5263 23.6851C21.5259 20.7716 21.5259 17.8578 21.5259 14.9441Z" fill="#FF008A"/>
</g>
<defs>
<clipPath id="clip0_109_16424">
<rect width="43.6364" height="24" fill="white" transform="translate(0.419434)"/>
</clipPath>
</defs>
</svg>
