<svg width="104" height="24" viewBox="0 0 104 24" fill="none" xmlns="http://www.w3.org/2000/svg">
<path fill-rule="evenodd" clip-rule="evenodd" d="M99.5635 4.54983H103.171C102.772 4.85991 102.532 5.23967 102.532 5.75945V18.1824C102.532 18.7015 102.782 19.0717 103.171 19.3811H99.5635C99.9529 19.0717 100.193 18.6919 100.193 18.1824V5.75881C100.193 5.23903 99.9631 4.85927 99.5635 4.54983ZM15.9449 9.88636C15.3555 8.61728 14.7059 7.36802 13.6165 6.45888C12.4573 5.47942 10.9875 4.88996 9.46846 4.88996C5.43106 4.88996 3.62174 8.53736 3.62174 12.1253C3.62174 15.5937 5.35114 19.1011 9.24853 19.1011C10.8373 19.1011 12.387 18.4119 13.3658 17.162V14.3636C13.3658 13.6041 13.1159 13.115 12.5264 12.6655H16.6539C16.2141 13.1649 15.9449 13.6744 15.9449 14.3636V17.162C14.0557 18.9214 11.7074 20 9.09892 20C4.49187 20 0.723633 16.6122 0.723633 11.8951C0.723633 7.20818 4.44137 4 8.98896 4C11.8174 4 14.1056 5.03956 15.9449 7.12827V9.88636ZM26.0586 4.54983H29.9464C29.4164 4.93918 29.2367 5.37905 29.2367 6.02861V15.0937C29.2367 17.5814 32.1546 18.8012 34.2938 18.8012C36.3928 18.8012 39.131 17.5724 39.131 15.1436V6.02861C39.131 5.41869 38.9808 4.99928 38.5716 4.54983H40.6904C40.2607 4.98969 40.1009 5.42892 40.1009 6.02861V15.1436C40.1009 18.4215 36.2336 19.6803 33.5548 19.6803C30.7967 19.6803 26.7689 18.4618 26.7689 15.0937V6.02861C26.7682 5.4091 26.5182 4.94941 26.0586 4.54983ZM64.9947 9.93623C64.4756 8.62687 63.8656 7.47798 62.796 6.52857C61.6471 5.50883 60.2476 4.8695 58.6992 4.8695C54.7021 4.8695 52.653 8.3673 52.653 11.9955C52.653 15.6429 54.782 19.0909 58.7292 19.0909C61.6676 19.0909 63.7665 17.022 64.9953 14.533V17.2317C63.1675 19.041 60.8083 19.9604 58.2299 19.9604C53.4522 19.9604 49.8744 16.8724 49.8744 11.9457C49.8744 7.15896 53.3121 4.01087 57.9997 4.01087C60.598 4.01087 63.1157 4.91041 64.9947 6.69927V9.93623ZM90.0598 9.93623C89.5407 8.62687 88.9295 7.47798 87.8612 6.52857C86.7123 5.50883 85.3128 4.8695 83.7643 4.8695C79.7659 4.8695 77.7271 8.3673 77.7271 11.9955C77.7271 15.6429 79.8458 19.0909 83.7944 19.0909C86.7327 19.0909 88.8406 17.022 90.0605 14.533V17.2317C88.2313 19.041 85.8824 19.9604 83.295 19.9604C78.5173 19.9604 74.9402 16.8724 74.9402 11.9457C74.9402 7.15896 78.3779 4.01087 83.0642 4.01087C85.6625 4.01087 88.1815 4.91041 90.0605 6.69927L90.0598 9.93623Z" fill="#FF008A"/>
</svg>
