<svg width="42" height="24" viewBox="0 0 42 24" fill="none" xmlns="http://www.w3.org/2000/svg">
<path fill-rule="evenodd" clip-rule="evenodd" d="M0 11.9363H2.48999V12.8418H1.72021V14.3581H4.52679V12.8418H3.73465V11.9363H6.26959V12.8418H5.45487V17.3006H6.26959V18.1833H3.73465V17.3006H4.52679V15.2408H1.72021V17.3006H2.48999V18.1833H0V17.3006H0.79236V12.8418H0V11.9363ZM29.7858 11.9363H34.9013V13.6793H34.0412V12.8418H31.5514V14.3357H33.6787V15.2182H31.5514V17.3006H34.0186V16.1011H34.9236V18.1833H29.7858V17.3006H30.6233V12.8418H29.7858V11.9363ZM7.42392 11.9363H12.5618V13.6793H11.6791V12.8418H9.1893V14.3357H11.3169V15.2182H9.1893V17.3006H11.6565V16.1011H12.5618V18.1833H7.42392V17.3006H8.26145V12.8418H7.42392V11.9363ZM31.2797 11.099H33.1131L33.5658 11.642H31.7779L31.2797 11.099ZM39.9257 14.6071C39.2919 14.4484 38.862 14.4714 38.2055 14.2677C37.6394 14.0641 37.5267 13.7242 37.5267 13.498C37.5267 13.2489 37.7754 12.6379 38.6809 12.6379C39.5864 12.6379 40.1974 13.2489 40.2202 13.7694H41.1027V11.9363H40.2426V12.3441L40.2879 12.457C40.2649 12.457 40.2426 12.389 40.1518 12.3213V12.2987C39.9032 12.0722 39.3825 11.8006 38.6129 11.8006C37.685 11.8006 36.5987 12.389 36.5987 13.498C36.5987 14.5845 37.368 14.9465 38.0472 15.1276C38.7037 15.3087 39.0431 15.3087 39.6087 15.467C40.1518 15.6027 40.5142 15.9421 40.5142 16.4403C40.5142 16.893 40.2202 17.504 39.0431 17.504C37.8885 17.504 37.4134 16.8702 37.2775 15.9875H36.4399V18.1828H37.3V17.7755L37.2775 17.6621C37.2775 17.6621 37.3 17.7301 37.4132 17.7978V17.8209C37.8429 18.1602 38.4316 18.3865 39.1557 18.3865C39.9933 18.3865 41.4195 17.9568 41.4195 16.4628C41.4197 15.3769 40.8536 14.8788 39.9257 14.6071ZM27.7716 17.3006V12.8418H28.6089V11.9363H26.3456L24.8291 15.603L24.8067 15.7843L24.7613 15.603L23.2674 11.9363H20.9815V12.8418H21.8188V17.3006H20.9815V18.1833H23.5388V17.3006H22.7467V12.9321L22.8151 13.1362L24.5576 17.3006H25.0558L26.7983 13.1362L26.8437 12.9095L26.8663 13.1586V17.3006H26.0739V18.1833H28.6089V17.3006H27.7716ZM9.52891 9.53727H8.66881V9.311H9.30265C9.32523 9.35617 9.46095 9.4693 9.52891 9.53727ZM31.144 9.53727C31.144 9.44672 31.2344 9.35617 31.3477 9.311H31.8005V9.53727H31.144ZM16.93 9.69556C16.5453 9.87666 16.0699 9.85408 15.6851 9.69556H11.1812C10.966 9.78522 10.7352 9.83138 10.5022 9.83138C10.2691 9.83138 10.0383 9.78522 9.82314 9.69556H8.66881V10.1255H31.8005V9.69556H16.93ZM11.4528 9.53727C11.5208 9.49188 11.6791 9.33359 11.7016 9.311H15.1872C15.2324 9.37897 15.3458 9.4921 15.4135 9.53727H11.4528ZM16.319 9.40133C16.9074 9.40133 17.4054 8.90342 17.4054 8.31496C17.4054 7.70392 16.9074 7.20579 16.319 7.20579C16.025 7.20632 15.7432 7.32335 15.5353 7.53126C15.3275 7.73916 15.2105 8.02098 15.21 8.31496C15.21 8.90342 15.708 9.40133 16.319 9.40133V9.62759C15.572 9.62759 14.9836 9.03914 14.9836 8.31496C14.9836 7.56799 15.572 6.97953 16.319 6.97953C17.0432 6.97953 17.6316 7.56799 17.6316 8.31496C17.6314 8.66302 17.493 8.99676 17.2469 9.24287C17.0008 9.48899 16.667 9.62736 16.319 9.62759V9.40133ZM11.9959 8.13409C11.9959 7.31914 11.3169 6.64014 10.5022 6.64014C9.66463 6.64014 9.0082 7.31914 9.0082 8.13409C9.0082 8.97161 9.66463 9.62782 10.5022 9.62782C11.3169 9.62782 11.9959 8.97139 11.9959 8.13409H11.7468C11.7468 8.83568 11.1809 9.40155 10.5019 9.40155C10.3354 9.40182 10.1705 9.36921 10.0166 9.30561C9.86269 9.242 9.72286 9.14865 9.60511 9.03091C9.48736 8.91316 9.39401 8.77333 9.33041 8.61943C9.2668 8.46554 9.2342 8.30061 9.23446 8.13409C9.23446 7.4325 9.80034 6.8892 10.5019 6.8892C10.6655 6.88873 10.8276 6.92061 10.9789 6.98301C11.1301 7.04541 11.2675 7.13709 11.3832 7.25278C11.4989 7.36847 11.5906 7.50589 11.653 7.65714C11.7154 7.80838 11.7473 7.97048 11.7468 8.13409H11.9959Z" fill="#FF008A"/>
<path fill-rule="evenodd" clip-rule="evenodd" d="M17.0211 9.06218L16.5686 8.54146V8.51888C16.5914 8.4963 16.5914 8.4735 16.6137 8.45091L17.2928 8.63201C17.3153 8.63201 17.3607 8.65459 17.3607 8.67718C17.3607 8.65459 17.3835 8.56405 17.4059 8.51888C17.3833 8.54146 17.3379 8.54146 17.2928 8.54146L16.6591 8.36059C16.6363 8.36059 16.6363 8.33778 16.6363 8.33778V8.22443L17.2928 7.97537C17.2928 7.97537 17.3607 7.97537 17.3607 7.99795C17.3607 7.97537 17.3153 7.86223 17.3153 7.83965C17.3153 7.86223 17.27 7.90762 17.2474 7.90762L17.2928 7.88482L16.6137 8.13388C16.6137 8.15646 16.6137 8.13388 16.5912 8.13388C16.5904 8.1221 16.5854 8.111 16.577 8.10266C16.5687 8.09431 16.5576 8.08928 16.5458 8.0885C16.5458 8.06569 16.5232 8.04311 16.5458 8.04311L16.908 7.47723C16.9308 7.45465 16.9759 7.43185 16.9985 7.43185C16.9757 7.43185 16.8854 7.36388 16.84 7.3413C16.8628 7.3413 16.8628 7.40927 16.84 7.43185L16.4778 7.99773H16.4326C16.4326 7.99773 16.3873 7.97514 16.3647 7.97514C16.3647 7.97514 16.3419 7.97514 16.3419 7.95234L16.3193 7.29614C16.3193 7.25075 16.3193 7.20559 16.3647 7.20559H16.1836C16.2064 7.20559 16.229 7.27355 16.229 7.29614L16.2518 7.95234C16.2518 7.97514 16.229 7.97514 16.229 7.97514C16.229 7.97514 16.1836 7.99773 16.161 8.02053C16.161 8.02053 16.1384 8.02053 16.1384 7.99773L15.7085 7.47723C15.6857 7.45465 15.6857 7.40927 15.6857 7.38669C15.6631 7.40949 15.5725 7.47724 15.55 7.49982C15.5725 7.49982 15.6179 7.52262 15.6405 7.5452L16.0705 8.06569V8.0885C16.0476 8.0885 16.0251 8.13388 16.0251 8.15646C16.0251 8.15646 16.0025 8.17905 15.9797 8.17905L15.3461 7.99795C15.3007 7.97537 15.2781 7.95256 15.2781 7.92998C15.2781 7.95256 15.2327 8.06569 15.2327 8.0885C15.2327 8.0885 15.3007 8.06569 15.3233 8.0885L15.9569 8.24701C15.9797 8.24701 15.9797 8.2696 15.9797 8.2696V8.38273L15.3461 8.65437C15.3233 8.65437 15.2781 8.67696 15.2781 8.65437C15.2781 8.67696 15.3007 8.76751 15.3233 8.81289C15.3233 8.79009 15.3686 8.74492 15.3912 8.74492L16.0025 8.47328C16.0251 8.47328 16.0251 8.49608 16.0251 8.49608C16.0476 8.49608 16.0705 8.51866 16.0705 8.54124C16.093 8.54124 16.093 8.56405 16.093 8.56405L15.7083 9.12992C15.6855 9.15273 15.6629 9.17509 15.6403 9.17509C15.6629 9.19789 15.7534 9.26564 15.776 9.26564C15.7532 9.26564 15.776 9.19767 15.776 9.17509L16.1608 8.63201C16.1608 8.60921 16.1834 8.60921 16.1834 8.60921C16.2062 8.63201 16.2287 8.63201 16.2513 8.63201C16.2739 8.63201 16.2739 8.63201 16.2739 8.65459L16.3193 9.3336C16.3193 9.35641 16.2965 9.40157 16.2739 9.40157H16.455C16.4096 9.40157 16.4096 9.35641 16.4096 9.31102L16.3645 8.65459C16.3645 8.63201 16.387 8.63201 16.387 8.63201C16.4096 8.63201 16.455 8.60921 16.4776 8.58663C16.4776 8.58663 16.5004 8.58663 16.5004 8.60921L16.9529 9.10734C16.9529 9.12992 16.9755 9.17509 16.9755 9.19789L17.0886 9.08476C17.0663 9.10756 17.0211 9.06218 17.0211 9.06218ZM10.4573 7.274C11.0909 7.274 11.7248 7.34196 12.087 7.4551C12.1321 7.4551 12.1321 7.50026 12.087 7.52306C11.7022 7.61361 11.0683 7.68136 10.4799 7.68136C9.89141 7.70416 9.25757 7.68136 8.85021 7.59081C8.80504 7.59081 8.80504 7.54542 8.85021 7.54542C9.21263 7.40993 9.82367 7.2968 10.4573 7.274V7.16087C9.77828 7.18367 9.09927 7.34197 8.5334 7.54565C8.46543 7.56823 8.46543 7.61361 8.5334 7.61361C9.16724 7.77213 9.82367 7.79471 10.4799 7.77213C11.1137 7.74932 11.7927 7.70416 12.4038 7.52306C12.4943 7.50026 12.4717 7.4551 12.4263 7.4551C11.7881 7.26054 11.1246 7.16154 10.4573 7.16087V7.274Z" fill="#FF008A"/>
<path fill-rule="evenodd" clip-rule="evenodd" d="M17.1792 6.86663C17.0206 6.91201 16.749 7.00234 16.6133 7.00234C16.5002 7.00234 15.9345 6.97976 15.5495 7.00234C15.0288 7.02492 14.9836 7.09289 14.961 7.04772C14.8479 6.86663 14.7574 6.59498 14.5763 6.43646C13.5125 6.61756 12.4713 6.45926 11.5208 6.11965V5.98372C11.5888 6.00652 11.634 6.00652 11.6791 6.00652C11.5208 5.78026 11.2492 5.71207 11.0907 5.46322C11.0001 5.39526 10.9775 5.25954 10.887 5.19158C10.9096 5.44064 10.7059 5.62174 10.6833 5.8252C10.819 5.87058 11.0001 5.87058 11.0681 5.848C11.1586 5.8252 11.2718 5.848 11.3172 5.91597C11.3851 5.93855 11.4303 5.98372 11.5208 5.98372V6.11965C11.4075 6.09685 11.3851 6.07449 11.2946 6.02932C11.1814 6.07471 11.0909 6.0519 11.0455 6.00674C11.0227 5.98394 10.7964 5.98394 10.7059 5.98394C10.4117 5.98394 10.0949 6.09707 9.93633 6.34613C9.86837 6.48185 9.89095 6.64036 9.95892 6.75349C10.0043 6.82146 10.208 7.11569 10.3437 7.20602L10.1626 7.2514C9.89095 7.00234 9.68727 6.77608 9.73265 6.48185C9.86859 5.84822 10.4568 5.93855 10.6153 5.66713C10.7285 5.41806 10.7736 4.69389 10.6379 4.49021C10.2531 4.33169 9.77804 4.12801 9.68727 3.67527C9.66469 3.56214 9.71007 3.4262 9.8232 3.40362C10.0267 3.35845 10.1626 3.47159 10.3211 3.53955C10.3891 3.49417 10.2531 3.33587 10.4117 3.33587C10.6153 3.33587 10.7511 3.74323 10.819 3.76604L10.7964 3.92433C10.6607 3.87917 10.1626 3.60752 10.1174 3.58494C10.0269 3.53955 9.91375 3.47159 9.84579 3.56213C9.75524 3.67527 9.86859 3.8112 9.93633 3.92433C11.0001 5.03328 12.7655 3.85636 13.9198 4.6485C13.9424 4.58054 13.9198 4.55795 13.8744 4.53537C13.0823 3.78862 11.8148 4.1734 10.7964 3.92433L10.819 3.76604C12.0865 4.08285 13.7615 3.56236 14.4177 5.01092C14.8477 5.62218 15.3004 6.5952 16.2283 6.618C16.9753 6.64058 17.4732 6.34635 17.8354 5.80306C18.3333 4.89779 18.6275 3.85659 19.5102 3.24554C19.6007 3.20016 19.6459 3.24555 19.6007 3.26813C19.1708 3.69807 18.7858 4.26417 18.5821 4.7395C18.9215 6.02954 19.6685 5.7579 19.8496 5.73531C19.8042 5.25999 19.8496 3.85681 20.8682 3.51719C21.1639 3.28946 21.5157 3.14606 21.8863 3.10221C22.257 3.05835 22.6325 3.11569 22.9732 3.26813C22.1811 4.0151 21.7057 5.07889 21.5472 5.82564L20.6645 6.07471C20.7325 5.93877 20.7325 5.71251 20.7099 5.46367C20.6194 5.50883 20.5288 5.5768 20.3251 5.68993C20.2346 5.71251 20.3023 5.5768 20.3023 5.5768C20.3023 5.53163 20.5286 5.44108 20.7097 5.32795C20.6417 4.80724 20.5966 4.12823 21.0265 3.69829C20.144 3.99252 20.3929 5.84844 20.4834 6.07493C20.2344 6.18806 19.895 6.18806 19.895 6.18806L19.8496 5.87103C19.4648 6.00696 18.8084 5.91641 18.5141 4.89779C18.1976 5.55399 17.9259 6.59498 17.1792 6.86663ZM30.9858 4.10543C30.9404 4.06004 30.9174 4.03746 30.8724 4.03746C30.8494 4.01488 30.8724 3.99208 30.895 3.99208C30.9176 3.9695 30.963 3.99208 30.9858 4.03746C31.0084 4.06004 31.0084 4.10543 30.9858 4.10543Z" fill="#FF008A"/>
<path fill-rule="evenodd" clip-rule="evenodd" d="M10.7278 8.47362L11.2029 9.01692C11.2483 9.0623 11.2483 9.13005 11.2257 9.15285C11.2936 9.13005 11.3842 9.01692 11.4294 8.97176C11.4065 8.99434 11.3162 8.99434 11.2936 8.94895L10.7957 8.40566V8.36049L10.8183 8.33769C10.8183 8.31511 10.8409 8.31511 10.8409 8.31511L11.5425 8.56417C11.6104 8.60934 11.633 8.65472 11.633 8.67731C11.6558 8.63214 11.701 8.49643 11.7236 8.45104C11.7008 8.47385 11.633 8.49643 11.5879 8.47385L10.8863 8.22478C10.8637 8.22478 10.8637 8.22478 10.8637 8.2022V8.15681C10.8637 8.13423 10.8863 8.13423 10.8863 8.13423L11.6104 8.0211C11.701 7.9983 11.7462 8.04368 11.7462 8.06626C11.7462 8.0211 11.7236 7.86258 11.7236 7.8172C11.7236 7.84 11.6782 7.90775 11.5879 7.93033L10.8863 8.04346C10.8637 8.04346 10.8637 8.02088 10.8637 8.02088C10.8409 7.99808 10.8409 7.97549 10.8183 7.95291V7.93033L11.3842 7.45522C11.4522 7.40984 11.5199 7.40984 11.5425 7.43242C11.4973 7.38704 11.4068 7.2739 11.3616 7.22874C11.3844 7.25132 11.3616 7.31929 11.3162 7.38704L10.7729 7.83978C10.7501 7.86236 10.7501 7.86236 10.7501 7.83978C10.7275 7.83978 10.705 7.83978 10.6824 7.81698C10.6824 7.81698 10.6598 7.79439 10.6824 7.79439L10.9314 7.09281C10.9399 7.06861 10.955 7.04728 10.975 7.03126C10.995 7.01525 11.0191 7.00519 11.0446 7.00226C10.9992 6.97968 10.8409 6.91171 10.7955 6.91171C10.8181 6.91171 10.8635 7.00226 10.8407 7.07L10.5916 7.74901C10.5916 7.77181 10.569 7.77181 10.569 7.77181H10.5011L10.4783 7.74901L10.3425 7.02484C10.3425 6.93429 10.3879 6.88913 10.3879 6.88913C10.3425 6.88913 10.2068 6.91193 10.1389 6.93451C10.1614 6.93451 10.2294 6.9799 10.252 7.04764L10.3879 7.74923C10.3879 7.77204 10.3879 7.77204 10.3651 7.79462C10.3425 7.79462 10.32 7.8172 10.2972 7.8172H10.2746L9.77733 7.2739C9.73194 7.20594 9.73194 7.13819 9.75475 7.13819C9.70936 7.16077 9.59623 7.25132 9.57365 7.29671C9.59645 7.29671 9.6642 7.29671 9.70958 7.34187L10.2075 7.88517V7.90797L10.1621 7.95313H10.1395L9.46052 7.70429C9.39255 7.68149 9.34739 7.61374 9.36997 7.59116C9.32458 7.65912 9.302 7.79484 9.27942 7.84022C9.302 7.81742 9.36997 7.79484 9.43771 7.81742L10.1167 8.04368V8.15681L9.39255 8.29253C9.32458 8.29253 9.25684 8.24736 9.25684 8.22456C9.25684 8.29253 9.27964 8.45082 9.30222 8.49621C9.30222 8.4734 9.3248 8.40566 9.41535 8.38308L10.1169 8.24736C10.1169 8.24736 10.1397 8.24736 10.1397 8.26994C10.1397 8.29253 10.1397 8.29253 10.1623 8.31533V8.33791L9.59645 8.79044C9.52848 8.8584 9.46052 8.83582 9.46052 8.81324C9.46052 8.88121 9.57365 8.99434 9.59645 9.01692C9.59645 8.99434 9.59645 8.92637 9.64184 8.88121L10.2303 8.42868C10.2303 8.40588 10.2303 8.40588 10.2529 8.42868L10.2983 8.47385C10.3211 8.47385 10.3211 8.47385 10.3211 8.49665L10.072 9.17544C10.0492 9.2434 9.98145 9.28879 9.95887 9.26599C10.0043 9.28879 10.14 9.35653 10.2079 9.35653C10.1625 9.35653 10.14 9.28857 10.1625 9.22082L10.4116 8.51923C10.4116 8.51923 10.4116 8.49665 10.4344 8.49665C10.457 8.51923 10.4796 8.51923 10.5024 8.51923C10.5024 8.51923 10.525 8.51923 10.525 8.54181L10.6609 9.2434C10.6609 9.33395 10.6155 9.37912 10.5929 9.4017C10.6609 9.4017 10.7966 9.35653 10.842 9.33373C10.8194 9.35653 10.7515 9.28857 10.7515 9.24318L10.6157 8.51901V8.49643C10.6383 8.49643 10.6611 8.47362 10.6837 8.47362C10.7052 8.45082 10.7052 8.45082 10.7278 8.47362ZM30.668 4.19568C30.645 4.17309 30.668 4.15051 30.668 4.12771C30.6906 4.05974 30.713 4.05974 30.713 3.992C30.6001 3.90145 30.5773 3.72035 30.645 3.67519C30.713 3.60722 30.9395 3.69777 30.9395 3.69777C31.1432 3.53947 31.2111 3.42612 31.3243 3.35837C31.4825 3.35837 31.7994 3.6526 31.7994 3.8337C31.754 3.90167 31.6406 4.0148 31.46 4.24106C31.5279 4.39936 31.5279 4.51271 31.4146 4.60326C31.392 4.60326 31.3466 4.60326 31.3012 4.55787C31.3243 4.78414 31.5729 4.91985 31.6636 5.10117C31.6636 5.46336 32.0484 5.91589 31.6183 6.21012C31.5279 6.2555 31.4372 6.32325 31.3922 6.4138C31.4602 6.77599 31.5959 7.16077 31.6639 7.54555L31.2337 7.56813C31.1888 7.70407 31.053 7.95291 31.098 8.08885C31.098 8.08885 31.0754 8.06604 31.121 8.08885C31.189 8.1794 31.2113 8.92637 31.189 8.99412C31.189 9.08467 31.257 9.08467 31.2116 9.24318C31.1662 9.26576 30.9855 9.3789 30.9625 9.44686C30.8491 9.55999 30.5328 9.5828 30.5328 9.53741C30.5328 9.42428 30.7588 9.28835 30.8044 9.15263C30.8494 8.60934 30.8044 8.06604 30.51 7.6361C30.3971 7.56813 30.3063 7.74923 30.2383 7.83978C30.3517 8.17917 30.5554 8.54137 30.5328 8.92615C30.5328 9.03928 30.6685 9.1978 30.6007 9.35609L30.2383 9.53719H28.9255C28.8805 9.46922 28.7898 9.40126 28.8126 9.31093H29.989C29.989 9.26554 30.1024 9.28835 30.2155 9.10725C30.2155 8.56395 29.6494 7.77181 29.7404 7.50017C29.8533 7.16055 30.0121 6.88913 30.1927 6.43638L30.2835 6.4138C30.0798 7.09281 29.7854 7.43242 29.8307 7.6361C29.8533 7.74923 29.8987 7.83978 29.9665 7.97549L30.0118 8.11121C30.0344 8.17917 30.1022 8.33747 30.1476 8.38285C30.2155 8.38285 30.2609 8.33747 30.3059 8.31489C30.3059 8.22434 30.2379 8.11121 30.1925 8.04324L30.0118 8.11121L29.9665 7.97549C30.1022 7.97549 30.1925 7.88495 30.0798 7.81698C30.3968 7.65868 30.0118 7.70385 30.1248 7.6361C30.3059 7.54555 30.3968 7.20594 30.4192 7.00226C30.4192 6.95687 30.4418 6.93429 30.4872 6.93429C30.6229 7.29649 30.6229 7.77181 30.8491 8.11121V8.22434C30.8266 8.31489 30.8491 8.42802 30.8945 8.49599C31.0982 8.51857 31.0756 8.47318 31.0302 8.22434C30.9853 8.22434 30.8945 8.20176 30.8491 8.22434V8.11121C30.8722 8.08862 30.9625 8.11121 30.9853 8.08862C30.9169 7.97549 30.9169 7.88494 30.9169 7.77181C30.9169 7.70385 30.9623 7.56813 31.0077 7.86236C31.0756 7.88495 31.1888 7.34165 31.2113 7.16077C30.7812 7.25132 31.2113 6.75341 30.8943 6.73083L31.0531 6.45918C31.0531 6.36863 30.9851 6.30067 30.872 6.34605L30.7812 6.2327C30.7132 6.21012 30.6455 6.09699 30.5551 6.02902C30.4872 6.09699 30.374 6.2327 30.3515 6.32325C30.3289 6.34605 30.3968 6.36841 30.4194 6.34605C30.4874 6.27808 30.5328 6.4138 30.6455 6.39122C30.6909 6.34605 30.8266 6.32325 30.7812 6.2327L30.872 6.34605C30.7812 6.39122 30.7812 6.54951 30.7812 6.66286C30.6229 6.95709 30.6909 6.50457 30.5095 6.50457C30.3966 6.57254 30.3512 6.39144 30.2835 6.41402L30.1927 6.43638C30.1927 6.27809 30.2157 6.09721 30.1927 5.91611C30.3289 5.14655 30.4872 5.16913 30.5098 4.94287C30.5098 4.85232 30.8491 4.67123 30.8268 4.58068C30.8494 4.58068 30.8948 4.64864 30.8948 4.67122C30.8722 4.78436 30.6457 4.78436 30.6687 5.0332C30.8044 4.78413 31.1894 4.80694 31.2118 4.51271C31.1438 4.33161 31.3021 4.44474 31.3021 4.26364C31.2572 4.21826 31.1215 4.08254 31.0984 4.01458C31.0759 3.99177 31.1664 3.85606 30.8494 3.85606C30.8268 3.87886 30.8044 4.01458 30.759 4.08232C30.7365 4.10513 30.6911 4.15029 30.7137 4.17287C30.7137 4.19545 30.759 4.21804 30.759 4.30859C30.7365 4.39914 30.759 4.44452 30.8044 4.48968C30.9855 4.58023 31.1215 4.48968 30.9173 4.60304C30.9173 4.62562 30.9173 4.64842 30.8948 4.67122C30.8948 4.64842 30.8268 4.55787 30.8044 4.53507C30.7814 4.53507 30.6687 4.4671 30.6911 4.37677C30.713 4.28645 30.713 4.24128 30.668 4.19568ZM24.5793 3.33579C24.6024 3.49431 24.5114 3.60744 24.5114 3.76596C24.6701 4.15073 24.5114 4.44496 24.5568 4.80716C24.3757 4.69403 24.3307 4.3998 24.2628 4.08299C24.2174 3.81134 24.2853 3.72079 24.3077 3.42656L24.5793 3.33579ZM24.1042 3.44892C24.0817 3.92403 24.0139 4.15051 24.3533 4.89749C23.4932 5.25946 22.7914 5.50853 21.7732 5.80276C21.8861 5.07859 22.5879 3.69777 23.1764 3.31299C23.6743 3.44892 24.1042 3.44892 24.1042 3.44892Z" fill="#FF008A"/>
<path fill-rule="evenodd" clip-rule="evenodd" d="M21.886 8.76759C21.6599 8.83556 21.6599 8.97127 21.7956 9.10721C21.886 9.17495 21.9767 9.28831 21.9767 9.31089H20.5282C20.5282 9.37886 20.5961 9.42402 20.6413 9.53715H28.6535C28.6989 9.42402 28.5631 9.28809 28.5178 9.15237C27.9517 8.94869 27.9517 8.4282 27.9293 7.83952C27.9293 7.81672 27.8839 7.74897 27.8839 7.63584C27.8159 7.54529 27.4316 6.61722 27.6123 5.87024L27.748 5.6214C27.8613 5.46288 27.7254 5.37233 27.8159 5.19124L29.491 4.87443C29.5136 4.85162 29.5136 4.78388 29.4684 4.76129C29.491 4.76129 29.4684 4.73871 29.4684 4.76129L27.8387 5.05552C27.9291 4.64816 27.5671 4.51223 27.7254 4.17283C27.9514 4.42168 28.5629 4.85162 28.88 4.91959L29.0385 4.89723C28.6311 4.71613 27.9069 4.28597 27.4996 3.72031C27.4542 3.72031 27.4088 3.67493 27.3639 3.65234C27.3639 3.69751 27.4768 3.83344 27.4542 3.85602C27.4542 3.85602 27.1825 4.03712 26.6844 3.81064C26.5261 4.12745 24.7607 4.91959 24.7607 4.91959C24.8287 5.41772 25.0552 5.73453 25.3038 6.00618C25.3268 6.05134 25.2358 5.96079 25.3038 6.00618C25.6662 6.30041 26.096 6.43612 26.5717 6.52667C26.6621 6.79832 27.0014 7.68101 27.024 7.81672C27.0694 7.95243 27.1374 7.95243 27.1374 7.95243C27.1828 7.99782 27.3411 8.29205 27.3411 8.40518L27.3864 8.8805C27.409 8.99364 27.5447 8.90309 27.5675 9.01622L27.4996 9.31045H27.839C27.6579 9.15215 27.771 8.8805 27.5445 8.76715C27.5219 8.4955 27.4996 8.29182 27.3862 8.17869C27.2959 7.90704 27.0014 7.18287 26.8201 6.52645L26.9335 6.36793C26.4353 6.50387 26.051 6.32277 25.5983 6.0737C25.2589 5.91519 25.4626 6.0509 25.5752 5.98315C26.1188 6.23222 26.3904 6.16425 26.7975 6.11909C26.8429 6.18706 26.9335 6.2548 26.9335 6.36793L26.8199 6.52645C26.9333 6.41332 27.0236 6.48106 27.0916 6.7981C27.1823 7.06974 27.2727 7.2732 27.3406 7.49969C27.4314 7.72595 27.4994 8.0204 27.5671 8.17869C27.5671 8.17869 27.6351 8.17869 27.68 8.26924C27.8387 8.76715 27.8837 8.83512 27.8611 9.06138C27.9065 9.24248 28.1556 9.08419 28.1328 9.31045H22.1802C22.2705 8.94825 22.0669 8.63144 22.1802 8.29182C21.9537 7.92963 21.3881 7.6582 21.4784 7.16007C21.75 6.77529 22.6329 6.39051 22.4293 5.93777C23.244 5.53041 23.6513 6.20942 24.3985 6.14145C24.6702 6.14145 24.9642 6.09606 25.2133 6.02832C24.8962 5.77925 24.6248 5.3947 24.4665 5.05508C22.8822 5.71129 21.3429 6.232 19.6453 6.57161L19.5096 6.52623C19.3513 6.54881 16.7709 7.13727 16.8615 7.2504C15.8883 7.31837 14.7565 7.72573 14.5077 7.86144C14.3945 7.92941 14.3717 7.97457 14.5077 8.01996C15.5489 8.2916 16.4087 8.08792 18.0158 7.47666L17.9027 7.38611C17.8121 7.45408 16.4995 7.90682 15.9788 7.97457C15.4355 8.04254 14.9602 8.01996 14.7339 7.95177C14.666 7.92919 14.666 7.92918 14.7111 7.9066C15.7297 7.49924 17.6988 7.13705 17.9704 7.47666C18.1287 7.52205 18.2421 7.61237 18.3326 7.72573C18.4232 7.83908 18.6043 7.79369 18.74 7.77111C18.9209 7.72573 18.9437 7.56743 18.9437 7.40891L18.74 7.38611C18.6495 7.38611 18.2873 7.4315 18.2421 7.47666C18.1064 7.36353 17.9704 7.2504 17.7893 7.20501C18.1515 7.04672 18.74 6.91078 19.0568 6.8882C18.7626 7.09188 18.8985 7.34073 18.74 7.38611L18.9437 7.40891C18.9437 7.31837 18.9437 7.2504 18.9891 7.20523C19.1927 6.70733 20.0529 6.63936 20.4828 6.52623C20.4828 6.52623 20.2565 6.82046 20.098 6.88842C20.0529 7.59001 19.8038 8.20128 19.7584 8.90286C19.9621 8.90286 19.9621 9.12913 20.0075 9.26506C19.9395 9.37819 19.8489 9.26506 19.7584 9.28786C19.4416 9.12935 19.8264 8.85792 19.5773 8.63144C19.7132 8.06556 19.9169 7.49968 19.9169 6.91123C19.8264 6.91123 19.8038 7.00178 19.7584 7.06952C19.6904 7.6354 19.5321 8.15589 19.3964 8.67638C19.4416 8.72177 19.5549 8.76693 19.5549 8.85748C19.3738 8.97061 19.5549 9.17429 19.487 9.31H17.4274L17.2237 9.53627H20.3471L20.3697 9.42313C19.9171 8.92522 20.0754 8.20083 20.3017 7.65776L20.845 6.93359C21.2977 6.75249 21.5694 6.20942 22.0445 6.02832C22.0445 6.27738 21.75 6.36771 21.5917 6.50365C21.4106 6.88842 20.8899 6.93359 20.8222 7.36375C21.0256 7.59001 21.3203 7.74853 21.5694 7.95221C21.818 8.11073 21.75 8.45012 21.9314 8.60863C21.977 8.65446 21.9314 8.74501 21.886 8.76759Z" fill="#FF008A"/>
<path fill-rule="evenodd" clip-rule="evenodd" d="M25.3496 0.59721C25.2593 0.732923 25.078 0.823472 25.1913 1.07254C24.9649 1.20847 25.0326 1.41215 25.1006 1.52528C24.9872 1.63841 24.9195 1.8649 25.078 2.00061C24.8969 2.20429 25.1234 2.38539 25.1913 2.45313C25.1006 2.65682 25.1913 2.81533 25.1913 2.81533C25.1683 2.95104 24.9193 3.17753 24.8289 3.24527C24.6932 3.58489 24.7386 4.28648 24.761 4.76181C25.3948 4.44499 26.0284 4.15076 26.5266 3.7206C26.0964 3.42637 25.7568 2.72478 25.2817 2.76995C25.2363 2.27204 25.0326 1.38935 25.7344 0.484079C25.8247 0.438693 25.9605 0.416111 26.0284 0.370726C25.7344 0.325562 25.3496 0.506439 25.078 0.348145C25.078 0.348366 25.2139 0.574628 25.3496 0.59721Z" fill="#FF008A"/>
<path fill-rule="evenodd" clip-rule="evenodd" d="M26.8658 0.370661C26.8658 0.393464 26.9561 0.438628 26.9561 0.438628C26.9561 0.438628 27.0469 0.416046 27.0469 0.393464C27.0469 0.370882 27.0695 0.302916 27.0469 0.280334C27.0239 0.280334 26.9561 0.257752 26.9112 0.257752C26.9112 0.25753 26.8658 0.3483 26.8658 0.370661L26.8204 0.416047L26.5034 0.189785L26.5488 0.144399C26.5488 0.144399 26.6845 0.0084648 26.7524 0.0084648C26.8204 -0.0141171 27.1826 0.00846462 27.2732 0.0764318C27.3411 0.144399 27.3865 0.189563 27.4768 0.348079C27.7259 0.528956 28.1333 0.528956 28.3823 0.732636C28.3369 0.800604 28.4503 0.913735 28.3598 0.958899C28.2918 0.981702 28.1333 0.936317 28.1107 0.981702L28.0881 1.11741L27.9973 1.09461C27.9973 1.09461 28.0427 0.936316 27.9973 0.936316C27.9519 0.913734 27.8616 0.86835 27.8162 0.890931C27.7937 0.913735 27.8162 0.936317 27.8393 0.981481C27.8393 1.02664 27.9522 1.04945 28.0204 1.02664L28.1107 1.04945L28.224 1.07203C28.1787 1.18516 28.1561 1.23032 27.9976 1.18516C27.9522 1.29829 28.2012 1.38884 28.224 1.43423C28.201 1.47961 28.1561 1.52478 27.9976 1.43423C27.9976 1.43423 27.3411 2.06807 26.9563 2.24917C26.549 2.43027 26.9338 2.15862 26.9338 2.15862C27.1149 2.09065 27.907 1.41164 27.907 1.3439C27.884 1.29851 27.839 1.20819 27.839 1.14022C27.7257 1.09483 27.4996 1.1628 27.4089 1.23055C27.4543 1.43423 27.8162 2.45285 27.5446 3.99196L27.4996 3.9468C27.7483 2.45285 27.3409 1.25335 27.3409 1.25335C27.1149 1.3439 26.9561 1.27615 26.8432 1.29873C26.7978 2.22659 27.5446 2.36252 27.2729 3.58482C26.4808 3.44911 25.9151 2.47565 25.4624 2.5662C25.4394 2.40768 25.2813 2.13626 25.4394 2.04549C25.3944 1.90978 25.349 1.72868 25.5527 1.61555C25.4848 1.43445 25.4624 1.27615 25.6661 1.14044C25.6207 1.02709 25.6431 0.778243 25.8921 0.732858C25.9151 0.529178 26.0055 0.370661 26.1866 0.302915C25.9829 0.212366 25.9375 0.00868607 25.9375 0.00868607C26.1186 0.122039 26.2769 0.189784 26.5485 0.14462L26.8658 0.370661ZM19.1702 17.3007L19.1474 16.0332C19.1474 15.6484 18.8986 15.2406 18.559 15.0144C18.491 14.9918 18.3779 14.9464 18.2873 14.9464C18.3779 14.9464 18.491 14.9464 18.6044 14.901C18.9437 14.7427 19.3513 14.3126 19.3513 13.5658C19.3513 12.9997 19.1251 12.57 18.7175 12.2755C18.3327 12.0039 17.9028 11.9362 17.45 11.9362H13.9647V12.8416H14.7568V17.3007H13.9647V18.1832H16.4544V17.3007H15.6621V15.3314H17.3823C17.9707 15.354 18.197 15.7388 18.197 16.0556L18.265 18.1829H19.9624V17.3005L19.1702 17.3007ZM17.5632 14.4715H15.6621V12.8419H17.4502C17.6539 12.8419 17.8802 12.8419 18.0613 12.9098C18.2875 13.0232 18.4914 13.2723 18.4914 13.6566C18.4912 14.1321 18.0613 14.4715 17.5632 14.4715ZM13.6476 20.4015C14.4626 20.4015 14.8245 20.8542 14.8245 21.4199C14.8245 21.986 14.4398 22.4157 13.5797 22.4157H12.9912V23.9776H12.4707V20.4017L13.6476 20.4015ZM12.9912 21.9634H13.625C14.0098 21.9634 14.2812 21.7593 14.2812 21.3973C14.2812 21.1257 14.1229 20.8542 13.6474 20.8542H12.991L12.9912 21.9634ZM18.876 23.9776H18.3101L17.8576 22.9139H16.2959L15.866 23.9776H15.3001L16.8844 20.3787H17.2466L18.876 23.9776ZM16.4996 22.4385H17.6539L17.0429 21.0349L16.4996 22.4385ZM24.8286 23.9776H24.3081V20.4015H24.8286V23.9776ZM28.5634 21.1708C28.224 20.8992 27.907 20.8089 27.6356 20.8089C27.2962 20.8089 27.0241 20.9672 27.0241 21.2162C27.0241 21.918 28.6991 21.895 28.6991 23.0496C28.6991 23.5926 28.2464 24 27.6126 24C27.2052 24 26.8432 23.9097 26.5264 23.6834V23.027C26.8204 23.3664 27.1828 23.5477 27.5676 23.5477C27.9973 23.5477 28.201 23.2986 28.201 23.095C28.201 22.3708 26.5034 22.2798 26.5034 21.307C26.5034 20.7185 26.9789 20.3561 27.6803 20.3561C27.9973 20.3561 28.2688 20.4241 28.5632 20.6052V21.1708H28.5634ZM22.6332 23.5477C22.5653 23.4569 22.4975 23.3666 22.4296 23.2532C22.1579 22.8005 21.9314 22.4835 21.592 22.28C21.9994 22.1217 22.2259 21.8049 22.2259 21.3975C22.2259 20.7865 21.7503 20.4017 20.981 20.4017H20.0529V23.9776H20.596V22.4157H20.8223C21.0937 22.4157 21.3204 22.5065 21.7955 23.2309L22.2936 23.9776H22.9047L22.6332 23.5477ZM20.9356 21.9634H20.596V20.8314H20.9356C21.4563 20.8314 21.6598 21.0351 21.6598 21.375C21.6824 21.669 21.5243 21.9634 20.9356 21.9634Z" fill="#FF008A"/>
</svg>
