<svg width="100" height="100" viewBox="0 0 100 100" fill="none" xmlns="http://www.w3.org/2000/svg">
<g clip-path="url(#clip0_46_2428)">
<path fill-rule="evenodd" clip-rule="evenodd" d="M67.6219 3.00253L61.6031 1.28253L57.8906 13.8638L59.3656 14.305L61.0931 8.45503L65.6344 9.77503L65.8131 9.22503L61.2306 7.90378L62.9144 2.27378L67.4694 3.55378L67.6219 3.00378V3.00253ZM76.2069 10.285L75.3656 17.085L74.9231 17.3063L75.6819 10.9038L76.2069 10.285ZM74.0681 18.5175L82.5156 13.8363L75.3244 22.7988L75.8344 23.1988L84.0894 12.9138L83.6194 12.5563L77.0494 16.205L77.9606 8.12378L77.4494 7.72378L69.1944 18.0075L69.7056 18.4075L74.9231 11.895L74.0681 18.5175ZM78.8856 26.5975L79.8656 27.7675L90.1069 19.4263L89.1556 18.2263L78.8856 26.5975ZM89.5981 24.8775L90.3694 24.4363L86.1869 31.7188L85.4831 32.1313L89.5981 24.8775ZM80.9694 28.9388L81.2594 29.53L88.6031 25.4275L83.7994 33.88L95.3531 27.4375L95.0219 26.8588L88.7131 30.37L92.8544 23.045L92.5369 22.51L80.9694 28.9388ZM76.2069 23.4588L77.4081 24.4088L85.6631 14.1263L84.4619 13.1763L76.2069 23.4588ZM78.1806 25.7588L78.6231 26.24L88.8656 17.8975L88.4231 17.375L78.1806 25.7588ZM98.3206 34.0725L98.1406 33.44L85.3031 36.8525L85.4831 37.4738L98.3206 34.0738V34.0725ZM96.3456 29.1313L95.5731 27.8088L83.9781 34.2513L84.7506 35.5738L96.3469 29.1313H96.3456ZM53.9719 1.17128C54.1644 1.29128 54.3106 1.41003 54.4119 1.53003L53.9006 11.8125L53.4181 12.1163L53.9694 1.17128H53.9719ZM52.2456 0.621277C52.6331 0.621277 52.9856 0.695027 53.3081 0.841277L52.7556 12.405C52.2681 12.505 51.9006 12.5425 51.6519 12.515C50.7956 12.4875 50.0781 12.1938 49.4981 11.6338C48.9094 11.0463 48.6231 10.3763 48.6431 9.62378L48.9744 3.22378C49.0294 2.46128 49.3744 1.82878 50.0094 1.32378C50.6444 0.810027 51.3894 0.575027 52.2456 0.621277ZM49.5256 0.883777C48.7706 1.48878 48.3656 2.25378 48.3119 3.18128L47.9944 9.58253C47.9381 10.51 48.2656 11.3175 48.9744 12.0063C49.6831 12.7125 50.5656 13.075 51.6244 13.0938C52.6744 13.1488 53.5744 12.8688 54.3294 12.2538C55.1119 11.6475 55.5306 10.8813 55.5856 9.95378L55.8756 3.55378C55.9219 2.62628 55.6044 1.81878 54.9231 1.13128C54.2144 0.423777 53.3356 0.0475273 52.2856 0.00127728C51.2106 -0.0262227 50.2894 0.267527 49.5256 0.882527V0.883777ZM27.0381 5.56253L26.7069 5.05253L19.5844 9.29253L19.8744 9.80253L22.2619 8.41128L28.8331 19.1363L29.3856 18.7638L22.8556 8.05378L23.2156 7.83378L29.7856 18.5438L31.1519 17.7438L24.5819 7.02128L27.0381 5.56253ZM38.0806 1.10378L32.0631 2.92003L35.9556 15.4475L41.9744 13.6163L41.8219 13.0663L37.2669 14.4563L35.6244 9.18378L40.1656 7.83378L39.9856 7.28378L35.4731 8.63378L33.7194 3.03128L38.2331 1.64003L38.0806 1.10378ZM31.6219 3.07128L30.9994 3.25128L34.9206 15.7638L35.5406 15.585L31.6219 3.07128ZM20.9794 21.9588L18.2731 24.6988L15.1806 19.095L20.9794 21.9588ZM23.5181 23.2388L23.9881 22.73L14.6006 18.0763L14.2281 17.4163L24.2781 22.4275L25.3544 21.34L12.9444 15.1175L12.4756 15.585L19.2256 27.63L19.6681 27.1488L18.8944 25.7575L22.0831 22.5088L23.5181 23.2388ZM56.8269 13.575L57.4481 13.7263L61.1606 1.13128L60.5406 0.950027L56.8269 13.575ZM18.8119 72.3838L19.3644 72.0813L15.3331 64.9088L14.8231 65.17L16.1331 67.5788L5.02188 73.6225L5.35313 74.1725L16.4656 68.1713L16.6856 68.5288L5.57313 74.5725L6.34813 75.9213L17.4594 69.92L18.8119 72.3825V72.3838ZM15.6644 83.685L13.0144 80.8638L18.8944 78.1238L15.6644 83.685ZM19.9144 77.6138L20.6194 77.2838L15.0019 86.9338L16.0231 88.0088L23.0356 76.1425L22.5656 75.6725L10.0469 81.635L10.4881 82.075L11.9231 81.4138L15.0431 84.745L14.2281 86.095L14.7119 86.6175L19.9156 77.6138H19.9144ZM26.3769 79.5563L26.0456 80.0238L28.3906 81.5238L21.4619 92.0275L22.0419 92.4L28.9431 81.855L29.3169 82.1175L22.4144 92.605L23.7394 93.4588L30.6681 82.9563L33.0569 84.4838L33.3881 84.0163L26.3769 79.5563ZM38.5519 86.025L37.9294 85.875L35.0031 98.65L35.6244 98.8L38.5519 86.025ZM44.2106 94.0375C43.8144 95.6988 43.1156 96.9425 42.1131 97.7688C40.9431 98.7688 39.4669 99.0613 37.6806 98.6488L40.3594 86.9763C42.1631 87.3888 43.3731 88.3013 43.9894 89.7138C44.5044 90.9175 44.5781 92.3575 44.2106 94.0375ZM40.4981 86.4663L38.9931 86.095L36.0656 98.91L37.5706 99.2413C39.5206 99.6725 41.1606 99.3513 42.4856 98.2788C43.6531 97.35 44.4494 95.9875 44.8731 94.1888C45.2869 92.3813 45.1769 90.8063 44.5419 89.4663C43.8044 87.9075 42.4581 86.9063 40.4981 86.4663ZM52.1744 87.6775L50.3669 87.705L50.4781 91.5175L52.3131 92.605L52.1756 87.6775H52.1744ZM57.0481 87.2375L56.4269 87.4163L59.8356 100.08L60.4569 99.93L57.0481 87.2375ZM98.2931 36.0825C98.7531 37.835 98.4956 39.3075 97.5206 40.5013C96.6919 41.5288 95.4456 42.2638 93.7794 42.7038C92.1144 43.145 90.6694 43.1213 89.4444 42.635C88.0281 42.0663 87.0744 40.9063 86.5869 39.1525L98.2931 36.0825ZM98.0306 40.8738C99.1069 39.5338 99.3794 37.8863 98.8456 35.9313L98.4319 34.4725L85.5944 37.8725L85.9944 39.3313C86.5369 41.2588 87.5906 42.5525 89.1556 43.2138C90.5256 43.8013 92.1181 43.8513 93.9306 43.365C95.7619 42.8775 97.1294 42.0475 98.0306 40.8738ZM88.4506 55.9475L87.8706 55.7963L85.7731 63.78L86.3669 63.9313L87.0569 61.2888L99.3569 64.4413L99.5069 63.78L87.2506 60.6275L87.3606 60.1875L99.6181 63.34L100.018 61.84L87.7194 58.6863L88.4506 55.9475ZM80.8319 73.4025L82.0319 71.7225C82.5194 70.9888 83.1919 70.5263 84.0481 70.3325C84.8856 70.1313 85.6219 70.2638 86.2556 70.7325C86.9181 71.19 87.3094 71.8375 87.4294 72.6725C87.5306 73.4988 87.3244 74.2788 86.8081 75.0125L85.5931 76.6925L80.8319 73.4025ZM81.5631 71.3925L79.4644 74.3525L90.3694 81.855L91.2394 80.5738L86.0769 77.0238L87.0569 75.6325L94.2906 76.2938L94.6906 75.7425L87.4294 75.1225C87.9719 74.2425 88.1706 73.3288 88.0231 72.3838C87.8756 71.4288 87.4206 70.6963 86.6556 70.1813C85.8744 69.6488 84.9806 69.5025 83.9781 69.74C82.9965 69.9734 82.1362 70.5621 81.5631 71.3925ZM79.2169 74.7238L78.8431 75.2325L89.7344 82.735L90.1069 82.185L79.2169 74.7238ZM63.7294 86.095L63.5769 85.5438L57.4894 87.1275L60.8981 99.7775L66.9581 98.2088L66.8081 97.6588L62.2244 98.8688L60.8294 93.5275L65.3844 92.3163L65.2344 91.7663L60.6506 92.9775L59.1456 87.265L63.7281 86.095H63.7294ZM74.7294 90.8575C74.2706 90.1513 73.1706 89.71 71.4306 89.5363C69.4981 89.3438 68.3481 89.0488 67.9806 88.655C68.1281 88.8025 69.1681 88.94 71.0994 89.0675C72.8394 89.16 74.0481 89.7563 74.7294 90.8575ZM66.1856 85.2963C65.6519 86.2688 65.6006 87.1588 66.0344 87.9675C66.6219 89.0675 67.9944 89.775 70.1469 90.0863C72.3006 90.38 73.6081 90.9913 74.0681 91.9175C74.4181 92.55 74.4456 93.1613 74.1506 93.7488C73.9019 94.2625 73.4094 94.7113 72.6731 95.0975C71.6981 95.5838 70.7819 95.7913 69.9269 95.7163L70.2156 96.2675C70.9056 96.3963 71.8356 96.1675 73.0044 95.58C74.2106 94.9925 75.0669 94.2575 75.5719 93.3775C76.1419 92.4038 76.1569 91.4025 75.6131 90.3763C74.9331 89.0825 73.4056 88.3975 71.0306 88.3238C68.6294 88.2325 67.2581 87.8425 66.9181 87.155C66.6044 86.5488 66.6269 85.9063 66.9869 85.2275C67.3369 84.585 67.8644 84.085 68.5744 83.7275C69.5769 83.2125 70.6906 83.1125 71.9144 83.4238L71.5831 82.845C70.5981 82.4788 69.5081 82.5975 68.3119 83.2038C67.3544 83.6988 66.6456 84.3963 66.1856 85.2963ZM78.0706 77.9038C78.9081 77.9313 79.5931 78.2338 80.1269 78.8125C80.6431 79.4275 80.8494 80.1475 80.7494 80.9738C80.6569 81.8088 80.2656 82.5163 79.5744 83.0938L78.0019 84.4563L74.1769 80.0938L75.7656 78.7438C76.4469 78.1563 77.2156 77.8763 78.0706 77.9038ZM80.6381 78.3725C80.0031 77.665 79.1756 77.3025 78.1531 77.2838C77.1219 77.2838 76.2031 77.6238 75.3931 78.3038L72.6456 80.6425L81.3419 90.5963L82.5156 89.5775L78.3606 84.855L79.9481 83.5338C80.7769 82.8275 81.2506 81.9738 81.3694 80.9738C81.5169 79.9738 81.2731 79.1063 80.6381 78.3725ZM72.2731 80.9463L71.8044 81.3725L80.5006 91.2975L80.9694 90.8575L72.2731 80.9463ZM96.1669 72.59L96.4569 72.0125L84.3506 66.5613L84.0881 67.1388L96.1669 72.59ZM96.6369 71.6125L97.2581 70.2225L85.1931 64.7713L84.5306 66.1613L96.6369 71.6125ZM4.91188 26.8188L5.13188 26.4188L16.2169 32.5313L17.0169 31.1813L5.90438 25.0688L7.29938 22.6188L6.78813 22.3163L2.74438 29.4888L3.25438 29.7913L4.57938 27.41L15.6919 33.5225L16.0231 32.93L4.91063 26.8175L4.91188 26.8188ZM6.45813 38.6713C7.72688 37.4588 9.01063 37.0088 10.3081 37.3213C9.42563 37.1288 8.32063 37.615 6.99563 38.7813C5.56063 40.0563 4.57063 40.6938 4.02813 40.6938C4.25813 40.685 5.06813 40.01 6.45813 38.6713ZM2.74438 34.2788L2.12313 34.1413C1.68063 34.3625 1.27563 34.7288 0.908129 35.2425C0.899057 35.2515 0.891932 35.2622 0.887199 35.274C0.882467 35.2859 0.88023 35.2985 0.880629 35.3113C0.559208 35.7511 0.32072 36.2459 0.176879 36.7713C-0.0923148 37.75 -0.05347 38.7879 0.288129 39.7438C0.434379 40.1563 0.631879 40.51 0.880629 40.805L0.949379 40.8738C1.29063 41.2588 1.70438 41.515 2.19188 41.6438C3.14938 41.8825 4.24938 41.6263 5.49188 40.8738C5.84063 40.6525 6.19938 40.3963 6.56688 40.1025C8.22313 38.735 9.56688 38.1838 10.5981 38.45C11.0581 38.5788 11.4269 38.8 11.7031 39.1113C11.8219 39.2575 11.9181 39.4188 11.9931 39.5925C12.0206 39.6675 12.0431 39.74 12.0619 39.8138C12.2369 40.2713 12.2369 40.8175 12.0619 41.4513C12.0627 41.503 12.0533 41.5544 12.0344 41.6025C11.7394 42.6313 11.2744 43.4388 10.6394 44.025L11.2619 44.205C11.6008 43.9235 11.8739 43.5711 12.0619 43.1725C12.2925 42.7077 12.4687 42.2178 12.5869 41.7125C12.9444 40.4188 12.9681 39.3 12.6556 38.3538C12.5214 37.9562 12.3206 37.5842 12.0619 37.2538C11.9516 37.1337 11.8316 37.0229 11.7031 36.9225C11.3524 36.6234 10.9362 36.411 10.4881 36.3025C9.07063 35.9088 7.51563 36.555 5.82188 38.2438C4.13813 39.9225 2.92813 40.6663 2.19188 40.4738C1.58438 40.3275 1.14813 39.9238 0.880629 39.2613C0.847807 39.2047 0.820193 39.1453 0.798129 39.0838C0.55822 38.3867 0.534259 37.6334 0.729379 36.9225C0.770925 36.786 0.821451 36.6524 0.880629 36.5225C1.22063 35.67 1.84438 34.9225 2.74438 34.2788ZM0.245629 60.6275L0.439379 61.2475L13.2356 57.71L13.0556 57.0763L0.245629 60.625V60.6275ZM7.47813 61.3575L13.2069 59.76L14.4919 64.2475L15.0419 64.11L13.3456 58.15L0.548129 61.6875L2.27313 67.6625L2.81063 67.5113L1.52813 63.0088L6.89813 61.5088L8.18188 66.01L8.76188 65.86L7.47813 61.3575ZM79.2019 37.0463C79.2944 36.8713 79.2256 36.5188 78.9956 35.9863C78.7556 35.4538 77.9331 34.9438 76.5244 34.4575C75.1391 33.9853 73.934 33.0958 73.0744 31.9113C72.5944 31.2688 72.3781 30.525 72.4244 29.6813C71.9831 29.5525 71.6569 29.3563 71.4444 29.0888C71.2319 28.8225 71.1044 28.1663 71.0569 27.12C71.0119 26.0738 70.6481 25.235 69.9681 24.6013C69.2781 23.9675 68.8031 23.5738 68.5469 23.4175C68.1533 23.1727 67.7616 22.9247 67.3719 22.6738C66.8481 22.3438 65.9006 21.9575 64.5294 21.5175C63.1494 21.0775 61.8506 21.1138 60.6369 21.6275C61.9706 21.5088 63.1069 21.6275 64.0456 21.9863C64.9516 22.3225 65.814 22.7661 66.6144 23.3075C67.3956 23.83 68.1419 24.5375 68.8506 25.4275C69.5581 26.3275 69.9506 27.4775 70.0231 28.8825C70.0606 29.5438 70.0694 29.9575 70.0506 30.1213C70.0881 30.2225 70.1331 30.3238 70.1881 30.425C70.6445 31.3736 71.2245 32.2576 71.9131 33.0538C72.6044 33.8525 73.9944 34.6463 76.0831 35.435C77.4994 35.9675 78.5394 36.5038 79.2019 37.0463ZM59.0769 21.4763C59.5369 21.4488 59.6519 21.27 59.4219 20.9388C59.2006 20.6013 58.7969 20.4213 58.2069 20.4013C57.6181 20.3763 57.1306 20.6325 56.7444 21.1738C56.3844 21.66 56.3156 22.4813 56.5369 23.6375C56.5456 23.7025 56.5556 23.7888 56.5644 23.9C56.5831 24.2575 56.6481 24.4588 56.7581 24.505C56.8581 24.5513 56.9831 24.2425 57.1306 23.5825C57.2681 22.9038 57.5131 22.3888 57.8619 22.0413C58.2119 21.6913 58.6169 21.5038 59.0769 21.4763ZM56.8131 28.9925C56.7679 28.6865 56.7358 28.3788 56.7169 28.07C56.5594 28.4738 56.3581 28.795 56.1094 29.0338C55.9769 29.165 55.7194 29.345 55.3356 29.5713C55.2106 29.6438 55.0731 29.7213 54.9219 29.805C54.8394 29.8513 54.4569 30.0425 53.7756 30.3838C53.4703 30.5302 53.1794 30.7052 52.9069 30.9063C52.6594 31.0938 52.4706 31.3225 52.3406 31.5938C52.2161 31.9048 52.1549 32.2375 52.1606 32.5725V32.585C52.1631 33.19 52.3606 33.6725 52.7544 34.0313C52.8131 34.0913 52.8781 34.1463 52.9481 34.1963C53.3806 34.5263 53.9231 34.6925 54.5769 34.6925C55.3956 34.6925 56.0081 34.28 56.4131 33.4525C56.5023 33.2664 56.5759 33.0733 56.6331 32.875L56.9231 30.645V30.3963C56.9109 29.9268 56.8742 29.4582 56.8131 28.9925ZM60.2781 23.1013C59.5956 23.3675 59.1594 24.0825 58.9656 25.2488C58.7644 26.4138 58.8281 27.1663 59.1594 27.5063C61.9294 27.6713 64.4694 28.6075 66.7794 30.315C67.2206 27.4513 66.8019 25.4913 65.5231 24.4363C64.2344 23.3713 63.2081 22.8213 62.4444 22.7838C61.7079 22.7328 60.969 22.8411 60.2781 23.1013ZM62.8031 31.8838C63.4944 31.9475 64.3131 32.3338 65.2606 33.04C67.6806 35.105 69.1394 37.6563 69.6356 40.6938C70.0231 44.3738 70.2256 48.2238 70.2444 52.2438C70.4919 56.805 71.8219 60.4988 74.2331 63.325C75.1169 64.51 75.8844 65.4275 76.5381 66.0788C77.1919 66.7288 77.7119 66.9788 78.0981 66.8213C78.4756 66.6563 78.6644 66.4825 78.6644 66.2988C78.6544 66.115 78.5494 65.9088 78.3456 65.68C78.2261 65.5513 78.0974 65.4314 77.9606 65.3213C75.1356 62.8338 73.3406 60.4338 72.5769 58.1213C71.5731 55.0563 71.1456 50.8263 71.2931 45.4288C71.2931 43.3638 71.1181 41.5513 70.7681 39.9913C70.2056 37.34 68.8131 34.9263 66.5856 32.7513C64.3956 30.6125 61.8981 29.4888 59.0906 29.3775C59.0906 29.5713 59.0856 29.7638 59.0769 29.9563C59.0681 30.3325 59.0394 30.7038 58.9931 31.0713C62.5931 33.6963 65.0356 37.1013 66.3231 41.2863C66.8206 43.3413 67.0919 45.1863 67.1381 46.82C67.2944 50.7288 67.7131 53.7438 68.3944 55.8638L72.3569 67.8138C72.8619 69.3463 73.1281 70.475 73.1569 71.2C73.1844 71.925 73.3269 72.2963 73.5844 72.315C73.8419 72.3325 74.0769 72.2275 74.2881 71.9975C74.4979 71.7637 74.6114 71.4591 74.6056 71.145C74.6431 70.475 74.3894 69.29 73.8469 67.5925C73.2944 65.8863 72.5269 63.9125 71.5419 61.6738C69.7569 57.6363 68.8131 53.6838 68.7119 49.8213C68.6106 45.9575 68.1456 42.7963 67.3169 40.3363C66.5069 37.9313 65.2006 35.7888 63.3969 33.9075C62.6519 33.1638 62.2556 32.7 62.2106 32.5163C62.0256 32.0313 62.2231 31.8188 62.8031 31.8838ZM57.0894 41.4513C56.7944 41.7638 56.7481 41.8825 56.9519 41.8088C57.0119 41.7863 57.0894 41.7638 57.1856 41.74C57.4069 41.6925 57.7194 41.6475 58.1231 41.6025C58.7131 41.5388 59.4581 41.6575 60.3606 41.96C61.2719 42.2625 61.8844 42.4188 62.1956 42.4288C62.4419 42.4425 62.5881 42.3288 62.6381 42.0838C62.6578 42.0121 62.6671 41.938 62.6656 41.8638C62.6656 41.4688 62.3756 41.1163 61.7956 40.8038C61.2546 40.4934 60.6392 40.3366 60.0156 40.35C59.43 40.3604 58.8506 40.472 58.3031 40.68C57.9669 40.8 57.6781 40.9513 57.4344 41.135C57.309 41.2285 57.1934 41.3344 57.0894 41.4513ZM72.6044 35.38C71.5456 34.2975 70.5931 32.9025 69.7469 31.195L69.7194 31.305C69.6819 31.4975 69.5944 31.9163 69.4569 32.5588C71.14 34.5177 72.4625 36.7595 73.3631 39.18C75.1581 39.5463 76.5844 40.41 77.6431 41.7675C77.8544 42.0338 78.0806 42.3875 78.3181 42.8275C78.5581 43.2675 78.7181 43.795 78.8019 44.4113C78.8844 45.0163 78.5719 46.4525 77.8644 48.72C77.1544 50.9775 77.6794 52.97 79.4369 54.695C80.2744 55.52 81.0106 56.03 81.6456 56.2225C82.0506 56.2763 82.3031 56.24 82.4056 56.1113C82.5125 55.957 82.5744 55.7761 82.5844 55.5888C82.6019 55.3688 82.4969 55.1488 82.2669 54.9275L82.0606 54.79C82.0044 54.7744 81.9489 54.7561 81.8944 54.735C81.0756 54.4513 80.4631 54.1763 80.0581 53.91C79.0369 53.23 78.5256 52.0225 78.5256 50.2888C78.5256 49.7475 78.7006 48.8988 79.0506 47.7425C79.3906 46.5763 79.5706 45.4163 79.5881 44.2588C79.6069 43.0938 79.4281 42.0575 79.0506 41.1488C78.6631 40.2313 77.8906 39.3763 76.7319 38.5875C74.7256 37.2113 73.3494 36.1425 72.6044 35.38ZM75.5719 49.8763C76.1706 47.7563 75.8756 46.1725 74.6881 45.1263C73.9344 44.5213 73.4931 44.64 73.3631 45.485C72.6919 49.9263 72.9356 53.8638 74.0956 57.295C75.1631 59.8738 76.8556 62.215 79.1744 64.3163C79.8744 64.2338 79.9431 63.7938 79.3819 62.995C78.8404 62.213 78.2649 61.4552 77.6569 60.7238C76.3044 59.1175 75.4344 57.5575 75.0481 56.0438C74.6794 54.4738 74.8531 52.4188 75.5719 49.8763ZM62.6931 44.6588C62.7669 44.53 62.6556 44.365 62.3619 44.1625C62.0534 43.9762 61.7302 43.8153 61.3956 43.6813C60.9808 43.5221 60.5506 43.4065 60.1119 43.3363C58.6031 43.0613 57.2544 43.4013 56.0681 44.355C55.9899 44.4237 55.916 44.4972 55.8469 44.575C55.6444 44.7963 55.5244 44.985 55.4881 45.14C55.4419 45.3238 55.5469 45.3563 55.8056 45.2363V45.2238C55.8744 45.1925 55.9519 45.1463 56.0406 45.0863C57.7781 44.2688 59.4631 44.1025 61.0919 44.59C61.8919 44.8563 62.4269 44.8788 62.6931 44.6588ZM59.6431 46.3388C59.6519 46.4013 59.6744 46.4475 59.7119 46.4763C59.7683 46.5167 59.8351 46.5402 59.9044 46.5438C59.9427 46.5343 59.98 46.5209 60.0156 46.5038C60.0744 46.475 60.1494 46.4388 60.2356 46.3925C60.3831 46.3188 60.4481 46.2425 60.4294 46.1588C60.4019 46.0763 60.3094 46.0213 60.1531 45.9938C60.0803 45.9807 60.0069 45.9715 59.9331 45.9663C59.882 45.9658 59.8309 45.9704 59.7806 45.98C59.7619 45.9975 59.7306 46.0263 59.6844 46.0625C59.6381 46.1175 59.6244 46.2113 59.6431 46.3388ZM65.7031 59.2638C65.693 58.9033 65.6512 58.5444 65.5781 58.1913C65.4119 58.7225 65.0219 59.5913 64.4056 60.7913C63.758 62.0607 63.1727 63.361 62.6519 64.6875C62.0995 66.0835 61.7599 67.5545 61.6444 69.0513C61.5606 70.0975 61.5469 70.7825 61.6019 71.1038C61.6181 71.1688 61.6319 71.2188 61.6444 71.2538C61.6694 71.2988 61.6969 71.3225 61.7269 71.3238C62.0206 69.7725 62.3206 68.6213 62.6244 67.8675C62.9369 67.0975 63.3331 66.2388 63.8119 65.2938C64.2806 64.3488 64.7044 63.3025 65.0819 62.155C65.4956 60.88 65.7031 59.915 65.7031 59.2638ZM64.3219 67.9638C64.303 67.5824 64.2755 67.2014 64.2394 66.8213C64.2019 66.8038 64.0231 67.3175 63.7019 68.3638C63.3724 69.3959 63.2046 70.4728 63.2044 71.5563C63.2044 72.5213 63.4069 73.5313 63.8106 74.5863C64.2069 75.6325 64.8781 76.4213 65.8269 76.9538C66.7644 77.4763 67.2944 77.5688 67.4144 77.2288C67.5331 76.89 67.4881 76.6413 67.2769 76.485C67.0556 76.32 66.5219 75.0813 65.6744 72.7688C64.8281 70.4563 64.3769 68.8538 64.3219 67.965V67.9638ZM77.0506 55.2588C76.7181 55.7375 76.6869 56.3463 76.9544 57.09C77.3119 58.045 78.0169 58.8575 79.0656 59.5275C80.1156 60.1963 80.8006 60.16 81.1219 59.4175C81.2331 58.6463 80.9931 58.1225 80.4044 57.8475C79.8156 57.5725 79.2406 57.0175 78.6794 56.1813C78.1169 55.3375 77.5756 55.0313 77.0506 55.2588ZM82.3231 46.2563C82.1625 45.5031 81.8582 44.788 81.4269 44.15C81.9606 46.1138 81.9194 47.4775 81.3019 48.2388C80.6856 49.0013 80.3444 49.8088 80.2794 50.6613C80.2169 51.515 80.5931 52.0288 81.4119 52.2038C82.2319 52.3788 82.5344 52.1163 82.3244 51.4188C82.1119 50.7213 82.0381 50.185 82.1019 49.8088C82.1669 49.4213 82.2581 48.9188 82.3781 48.2938C82.4981 47.6688 82.4794 46.9913 82.3231 46.2563ZM58.4006 74.42C58.3354 74.3343 58.2662 74.2517 58.1931 74.1725C57.7181 73.5838 57.2581 73.1788 56.8131 72.9613C56.2741 72.6915 55.7159 72.4617 55.1431 72.2738C54.5356 72.08 53.7306 72.3188 52.7269 72.9888C51.7331 73.65 50.9694 73.9163 50.4356 73.7875C49.9046 73.6598 49.3794 73.5084 48.8619 73.3338C48.3469 73.1688 47.7344 73.1588 47.0269 73.305C46.3169 73.4613 45.4756 74.0038 44.5006 74.93C43.5244 75.8475 42.8944 76.595 42.6094 77.1738C42.3244 77.7425 42.3369 78.2488 42.6506 78.6875C43.1656 78.9263 43.6806 78.9038 44.1956 78.6188C46.6906 77.2338 48.3281 76.4488 49.1106 76.265C51.7694 75.6225 54.9219 75.8113 58.5656 76.83C58.7301 76.6772 58.8579 76.4892 58.9394 76.28C59.0061 76.0982 59.0473 75.9081 59.0619 75.715C59.0619 75.54 58.9344 75.2463 58.6769 74.8338C58.9619 75.1738 58.8694 75.035 58.4006 74.42ZM61.7131 74.3525C61.5106 74.2425 61.3594 74.2925 61.2581 74.5025C61.1656 74.7238 61.1106 75.1463 61.0919 75.77C61.0744 76.385 61.1844 77.2013 61.4244 78.22C61.6531 79.23 62.0206 79.8725 62.5281 80.1475C62.9331 80.2388 63.4294 80.125 64.0181 79.8038C64.6356 79.445 64.9431 79.175 64.9431 78.9913C64.9441 78.9676 64.9394 78.944 64.9294 78.9225C64.7694 78.7836 64.6081 78.646 64.4456 78.51C63.5631 77.775 62.8869 77.0913 62.4169 76.4575C61.9598 75.851 61.7128 75.112 61.7131 74.3525ZM58.4694 79.8725C58.2098 79.6744 57.9429 79.4859 57.6694 79.3075C57.1917 79.0052 56.6824 78.7558 56.1506 78.5638C55.1339 78.1681 54.0529 77.963 52.9619 77.9588C50.5131 77.9588 48.3331 78.7388 46.4181 80.2988C46.1972 80.4764 45.9853 80.665 45.7831 80.8638C45.3606 81.5138 45.5581 81.7988 46.3781 81.7163C46.5056 81.6988 46.6531 81.6713 46.8194 81.6338C47.1131 81.505 47.3944 81.3463 47.6606 81.1525C49.2619 79.8125 51.4531 79.2025 54.2319 79.3213C55.2444 79.4588 56.1319 79.7388 56.8956 80.1613C57.6581 80.5738 58.1519 80.7263 58.3731 80.615C58.4516 80.5737 58.5197 80.5151 58.5723 80.4436C58.6249 80.3722 58.6607 80.2897 58.6769 80.2025V80.0513C58.608 79.9913 58.5388 79.9317 58.4694 79.8725ZM57.0069 81.7575C57.0887 81.7359 57.1673 81.7036 57.2406 81.6613C57.2851 81.6439 57.3272 81.6208 57.3656 81.5925C56.9374 81.3266 56.4781 81.1142 55.9981 80.96C55.1336 80.6764 54.2305 80.5276 53.3206 80.5188C52.6669 80.5188 52.0144 80.5975 51.3606 80.7525C50.7391 80.89 50.1397 81.1129 49.5794 81.415C49.0908 81.677 48.6286 81.9855 48.1994 82.3363C48.2568 82.3837 48.3219 82.4209 48.3919 82.4463C48.4944 82.4738 48.6644 82.4875 48.9044 82.4875C49.1606 82.4875 49.3919 82.4238 49.5931 82.295C49.7017 82.1973 49.8288 82.1225 49.9669 82.075C50.2519 81.9275 50.5969 81.8275 51.0019 81.7713C51.0931 81.7525 51.1894 81.74 51.2919 81.73C51.3557 81.7211 51.4205 81.7211 51.4844 81.73C51.5956 81.73 51.7881 81.7525 52.0644 81.7988C52.3406 81.845 52.5431 81.8675 52.6719 81.8675C52.9569 81.8675 53.3531 81.79 53.8594 81.6338C54.3021 81.4769 54.7698 81.4023 55.2394 81.4138C55.6531 81.4225 55.9156 81.4463 56.0269 81.4825C56.1269 81.51 56.2644 81.57 56.4394 81.6613C56.469 81.6713 56.4971 81.6852 56.5231 81.7025C56.5606 81.7213 56.5919 81.74 56.6194 81.7575C56.6656 81.7675 56.7206 81.7763 56.7856 81.7863C56.8494 81.7863 56.9231 81.7763 57.0069 81.7575ZM52.4919 20.6913C52.3169 20.1875 51.9306 19.825 51.3331 19.6038C50.505 19.3055 49.6497 19.089 48.7794 18.9575C48.381 18.8987 47.9849 18.8253 47.5919 18.7375C47.1201 18.6833 46.6456 18.6553 46.1706 18.6538C45.4902 18.6504 44.811 18.7106 44.1419 18.8338C43.3956 18.9525 42.8119 19.1963 42.3881 19.5625C41.9644 19.93 41.7531 20.4575 41.7531 21.1463C41.7531 21.65 41.8956 22.0275 42.1806 22.275C42.4106 22.4675 42.7144 22.5638 43.0931 22.5638C43.4506 22.5638 43.8094 22.445 44.1681 22.2063C44.3156 22.115 44.6294 21.8613 45.1069 21.4488C45.9819 20.705 46.8094 20.3338 47.5919 20.3338C48.3744 20.3425 48.9956 20.545 49.4544 20.94C49.9256 21.3338 49.9481 22.7613 49.5244 25.2213C49.3619 26.1763 49.3556 26.9938 49.5106 27.6713C49.5774 27.9323 49.6699 28.186 49.7869 28.4288L50.9181 29.6125C51.0906 29.71 51.2756 29.7925 51.4706 29.86L51.4844 29.8738C51.4405 29.8082 51.3947 29.744 51.3469 29.6813C51.2433 29.5326 51.1374 29.3855 51.0294 29.24C50.7806 28.8825 50.6156 28.3175 50.5319 27.5475C50.4494 26.7675 50.5281 26.1525 50.7669 25.7025C50.8956 25.4463 51.1544 25.0688 51.5394 24.5738C51.8981 24.0963 52.2206 23.4963 52.5056 22.77C52.7919 22.045 52.7856 21.3525 52.4919 20.6913ZM54.9494 19.4538C55.0969 18.985 55.0694 18.6313 54.8669 18.3925C54.6544 18.155 54.3519 18.1125 53.9544 18.2688C53.5506 18.415 53.3569 18.6813 53.3756 19.0675C53.3944 19.5625 53.6381 20.43 54.1081 21.6688C54.6319 23.0638 54.6406 23.9813 54.1344 24.4225C53.6737 24.8292 53.2227 25.2469 52.7819 25.675C52.3694 26.0788 52.1606 26.5875 52.1606 27.2025C52.1606 27.5525 52.3031 27.86 52.5894 28.125C52.8369 28.3638 53.0944 28.4825 53.3619 28.4825C54.1344 28.4825 54.6969 28.0838 55.0456 27.285C55.3319 26.6438 55.4744 25.7625 55.4744 24.6425C55.4744 24.33 55.4144 23.8713 55.2944 23.2663C55.163 22.5976 55.0389 21.9276 54.9219 21.2563C54.7931 20.5125 54.8019 19.9138 54.9494 19.4538ZM47.3994 21.945C46.8931 21.945 46.4094 22.055 45.9494 22.275C45.4806 22.495 45.0056 22.9625 44.5269 23.6788C44.0494 24.395 43.5244 24.9 42.9544 25.1925C42.3873 25.488 41.7563 25.6396 41.1169 25.6338C40.4556 25.6338 39.8806 25.3863 39.3919 24.89C38.8494 24.34 38.5781 23.6275 38.5781 22.7563C38.5781 22.3625 38.6106 22.0038 38.6744 21.6825C38.7581 21.3163 38.8994 20.8838 39.1031 20.3888C39.3419 19.7925 39.4981 19.4213 39.5719 19.2738L39.6969 19.0538C39.0244 19.1825 38.4081 19.545 37.8469 20.1413C37.2844 20.7288 36.9631 21.6963 36.8806 23.0463C36.7881 24.385 37.2894 25.5288 38.3856 26.4738C39.4706 27.4188 41.7394 27.5025 45.1906 26.7213C45.6044 26.63 45.9444 26.5188 46.2119 26.3913C47.7944 25.6838 48.6131 24.8675 48.6681 23.9413C48.7156 23.0138 48.6131 22.4488 48.3656 22.2475C48.1156 22.0463 47.7944 21.945 47.3994 21.945ZM48.8619 29.4738C48.7645 29.4295 48.6678 29.3836 48.5719 29.3363C47.6256 28.8598 46.5813 28.6103 45.5219 28.6075C44.0394 28.6813 42.7194 29.0663 41.5594 29.7638C40.6219 30.3325 39.7194 31.3838 38.8544 32.9163C38.2775 34.2741 37.8024 35.6729 37.4331 37.1013C37.3131 37.5325 37.2031 37.9725 37.1006 38.4225C37.0644 38.5313 37.0323 38.6414 37.0044 38.7525C36.3419 40.9738 35.3894 42.8188 34.1469 44.2863C33.9906 44.47 33.8306 44.6488 33.6644 44.8238L33.4019 45.0863C32.6469 45.82 31.5981 46.7 30.2544 47.7288C28.9019 48.7563 27.7919 50.1413 26.9281 51.885C26.0444 53.62 25.9294 56.0238 26.5831 59.0988C26.9794 55.29 27.5906 52.79 28.4194 51.5963C29.2469 50.395 30.1119 49.3938 31.0144 48.5963C31.6456 48.0413 32.2481 47.5188 32.8219 47.0263L33.5669 46.4063C34.2477 45.8341 34.9154 45.2464 35.5694 44.6438L35.6106 44.6038C35.6619 44.555 35.7131 44.5038 35.7619 44.4525L35.9144 44.3013C35.9828 44.2505 36.0476 44.195 36.1081 44.135L36.1481 44.0938L36.5356 43.6813C36.5914 43.6314 36.642 43.5761 36.6869 43.5163C37.9594 42.2038 38.7044 40.5038 38.9244 38.4225C38.9594 38.2113 39.0019 38 39.0481 37.7888C39.0563 37.7009 39.0701 37.6136 39.0894 37.5275C39.4481 35.6925 39.8581 34.2875 40.3181 33.315C40.784 32.3254 41.4516 31.444 42.2781 30.7275C42.8944 30.2038 43.6719 29.8513 44.6106 29.6675C44.7144 29.6425 44.8156 29.6188 44.9144 29.5988L45.8106 29.5163C46.6482 29.5063 47.4666 29.7667 48.1444 30.2588C48.3806 30.4313 48.6069 30.6288 48.8206 30.8513C49.0781 31.1175 49.2906 31.4338 49.4556 31.8013C49.6306 32.1588 49.8419 32.8288 50.0906 33.81C50.3481 34.7925 50.6619 35.4675 51.0281 35.835C51.3798 36.1904 51.8546 36.3972 52.3544 36.4125C52.6581 36.4213 53.1419 36.2838 53.8044 36C53.7939 35.9977 53.784 35.993 53.7756 35.9863C53.1694 35.8863 52.5531 35.5613 51.9256 35.0088C51.6082 34.7317 51.3621 34.3823 51.2081 33.99C51.0446 33.5787 50.9651 33.1388 50.9744 32.6963V32.6825C50.9831 31.7163 51.0294 31.0788 51.1119 30.7688C50.3789 30.3086 49.6283 29.8758 48.8619 29.4738ZM34.2169 29.3513C35.0256 28.735 35.4219 28.13 35.4044 27.5338C35.3856 26.9188 35.1419 26.0338 34.6719 24.8763C34.3677 24.1301 34.3 23.3084 34.4781 22.5225C33.7056 23.11 33.3006 23.8075 33.2644 24.615C33.2269 25.4138 33.1719 25.9963 33.0981 26.3638C33.0244 26.7213 32.7769 27.0975 32.3531 27.4925C31.9206 27.8775 30.5956 28.3863 28.3781 29.02C26.1506 29.645 25.2444 30.8375 25.6581 32.6C23.8356 33.48 22.6856 34.2375 22.2081 34.8713C21.7744 35.4213 21.4019 36.2513 21.0894 37.3625C20.8767 38.1761 20.6974 38.998 20.5519 39.8263C20.3669 40.7538 20.1869 41.4225 20.0131 41.8363C19.7812 42.3991 19.5324 42.9548 19.2669 43.5025C19.0709 43.8847 18.8036 44.2258 18.4794 44.5075C18.1294 44.81 17.8631 45.2138 17.6794 45.7188C17.4856 46.2138 17.5094 46.5538 17.7481 46.7375C17.9781 46.9125 18.2044 46.7875 18.4244 46.3663C18.6369 45.9438 19.0369 45.37 19.6256 44.645C20.2056 43.91 21.2731 42.975 22.8281 41.8363C23.3156 41.4788 23.8319 41.1113 24.3744 40.7363C24.3088 40.3405 24.2766 39.9399 24.2781 39.5388C24.2781 38.455 24.5169 37.5188 24.9956 36.7288C25.2894 36.2425 25.7731 35.7788 26.4456 35.3388C26.4274 34.9001 26.4644 34.4608 26.5556 34.0313C26.7394 33.1588 27.2781 32.4663 28.1706 31.9525C29.0544 31.4388 30.0794 31.0263 31.2481 30.7138C32.4169 30.4013 33.4069 29.9475 34.2169 29.3513ZM36.0794 29.9425C35.8044 30.2088 35.2656 30.5525 34.4644 30.975C32.9556 31.7825 31.8019 32.4438 30.9994 32.9575C30.1806 33.4713 29.6006 34.0263 29.2619 34.6225C28.9231 35.2138 28.6674 35.849 28.5019 36.51C28.3356 37.1788 28.3094 37.71 28.4194 38.1063C30.4806 36.7288 31.9806 35.5913 32.9194 34.6925C34.0044 33.6275 35.0581 32.045 36.0794 29.9425ZM34.8094 35.505C35.7386 34.449 36.4179 33.1972 36.7969 31.8425C34.9756 34.4675 31.8094 37.2988 27.3006 40.3363C22.7831 43.3638 20.0819 46.2 19.1981 48.8438C18.2781 50.9175 18.0706 53.895 18.5769 57.7775C18.8519 59.4388 19.3956 61.1538 20.2056 62.9263C21.0056 64.6888 21.5769 65.6288 21.9181 65.7488C22.2481 65.8588 22.5019 65.7763 22.6769 65.5C22.8519 65.225 22.8106 64.61 22.5519 63.655C22.2667 62.6142 22.0228 61.5626 21.8206 60.5025C21.583 59.358 21.385 58.2057 21.2269 57.0475C21.0706 55.8913 20.9744 55.18 20.9369 54.9138C20.905 54.6893 20.8775 54.4643 20.8544 54.2388C20.8207 53.7531 20.7978 53.2667 20.7856 52.78C20.7481 51.9925 20.8594 51.0325 21.1169 49.9038C21.3644 48.7738 21.9169 47.6175 22.7731 46.4338C23.6194 45.2588 24.6919 44.1963 25.9894 43.24C27.2681 42.2863 28.8281 41.0288 30.6694 39.4688C32.4906 37.9 33.8719 36.5788 34.8094 35.505ZM34.5894 39.84C34.9669 38.7663 35.2056 38.12 35.3069 37.9C33.7981 39.5325 31.5244 41.4875 28.4881 43.7638C28.4231 43.81 28.3631 43.855 28.3094 43.9013L28.1706 43.9975C26.0619 45.64 24.6044 47.7475 23.7956 50.3163C23.0681 53.1063 22.9344 56.6025 23.3956 60.8063C23.7444 63.5138 23.7081 65.7338 23.2831 67.4688L23.2019 67.7988V67.9088C23.2019 68.3875 23.3344 68.625 23.6019 68.625C23.8769 68.625 24.0981 68.1713 24.2644 67.2625C24.3194 67.015 24.3694 66.6838 24.4156 66.2713C24.4062 66.0789 24.4062 65.8862 24.4156 65.6938C24.4056 58.9938 24.6544 54.6613 25.1606 52.6975C25.4006 51.8538 25.9019 50.9088 26.6656 49.8613C27.604 48.5945 28.709 47.4601 29.9506 46.4888C30.5306 46.03 31.0969 45.4938 31.6481 44.8788C32.2106 44.2538 32.7481 43.5288 33.2644 42.7038C33.8034 41.7978 34.2474 40.8373 34.5894 39.84ZM40.4006 41.9325C40.4931 42.0338 40.6581 42.0888 40.8969 42.0975C41.0344 42.0975 41.1919 42.08 41.3669 42.0425C42.0831 42.05 42.6856 42.1375 43.1744 42.305C43.5194 42.4 43.8419 42.5288 44.1406 42.69C44.2681 42.74 44.3406 42.7575 44.3619 42.745V42.7313C44.4094 42.71 44.4369 42.6775 44.4444 42.635C44.4444 42.5975 44.3944 42.4788 44.2931 42.2775C44.0209 41.779 43.6079 41.3716 43.1056 41.1063C42.7715 40.937 42.413 40.821 42.0431 40.7625C41.5831 40.6888 41.2194 40.7213 40.9531 40.86C40.6669 40.9975 40.4831 41.1663 40.4006 41.3688C40.3647 41.4375 40.3411 41.5119 40.3306 41.5888C40.323 41.596 40.3185 41.6058 40.3181 41.6163C40.3091 41.6908 40.3185 41.7663 40.3456 41.8363C40.3617 41.8696 40.3801 41.9018 40.4006 41.9325ZM33.1531 50.1925V49.89C32.4631 50.5513 32.0306 51.6375 31.8556 53.1525C31.6719 54.6575 31.7869 55.9238 32.2006 56.9525C32.2281 57.015 32.2556 57.0763 32.2844 57.1313C32.7256 58.0663 33.5719 58.92 34.8231 59.6913C34.8384 59.6986 34.8527 59.7079 34.8656 59.7188C36.2281 60.5438 37.1881 61.2275 37.7506 61.7688C38.2931 62.3025 38.7206 62.9763 39.0344 63.7938V63.0363C38.9881 61.9075 38.7344 61.0075 38.2744 60.3375C37.9431 59.8613 37.4644 59.315 36.8394 58.7C36.3438 58.2202 35.8327 57.7566 35.3069 57.31C35.2058 57.2183 35.1091 57.1219 35.0169 57.0213C33.8294 55.7725 33.2081 53.4963 33.1544 50.1925H33.1531ZM30.7244 57.3225C30.9081 58.59 31.1469 59.6225 31.4419 60.42C31.6169 60.8975 32.0406 61.6775 32.7119 62.7613C33.1431 63.4675 33.6869 64.2988 34.3406 65.2525L34.3956 65.335C35.0581 66.3175 35.6019 67.1063 36.0244 67.7025C36.2994 67.8963 36.5444 67.7525 36.7569 67.2763C36.8019 67.1838 36.8481 67.07 36.8944 66.9313C36.9856 66.6375 37.0456 66.235 37.0731 65.72C37.0832 65.6707 37.0882 65.6204 37.0881 65.57C37.1046 64.9741 36.9764 64.383 36.7144 63.8475C36.6711 63.7505 36.6253 63.6546 36.5769 63.56C36.2826 63.0693 35.9301 62.616 35.5269 62.21C35.1313 61.8186 34.717 61.4465 34.2856 61.095C33.8645 60.763 33.4458 60.4279 33.0294 60.09C32.5131 59.65 32.1594 59.3188 31.9669 59.0988C31.6256 58.7413 31.2119 58.1475 30.7244 57.3225ZM26.7494 64.2063C26.5831 64.0688 26.4444 64.775 26.3344 66.3263C26.2431 67.7575 26.0494 68.9638 25.7544 69.9463L25.6994 70.1388L25.6444 70.7313C25.6444 71.1263 25.7594 71.465 25.9894 71.75C26.2019 72.0075 26.4269 72.135 26.6644 72.135C26.9794 72.135 27.2869 71.9288 27.5906 71.5163C27.818 71.1994 27.999 70.8517 28.1281 70.4838C28.2126 70.2056 28.2683 69.9195 28.2944 69.63C28.2944 69.3363 28.2819 69.0338 28.2531 68.7213C28.0781 66.8125 27.5769 65.3075 26.7494 64.2063ZM33.3181 68.13C32.4641 65.9575 31.3123 63.9142 29.8956 62.0588C31.2756 65.6938 32.0581 69.8413 32.2419 74.5038C32.2519 74.6675 32.2569 74.8013 32.2569 74.9025C32.2569 74.9938 32.2744 75.1825 32.3119 75.4675C32.3494 75.7513 32.3856 76.0675 32.4219 76.4163C32.4594 76.7663 32.5694 77.0538 32.7531 77.2838C32.9281 77.5038 33.3931 77.6788 34.1469 77.8075C34.9019 77.9263 35.2331 77.2575 35.1419 75.7975C35.0406 74.3288 34.9244 73.2275 34.7956 72.4938C34.6581 71.75 34.1656 70.295 33.3194 68.13H33.3181ZM43.1469 43.7088C43.1381 43.7088 43.1294 43.7038 43.1194 43.695C43.0814 43.6851 43.0445 43.6713 43.0094 43.6538C41.9594 43.2588 40.7969 43.13 39.5169 43.2675C39.4956 43.3191 39.4727 43.3699 39.4481 43.42C39.2376 43.8822 38.9263 44.2914 38.5369 44.6175C39.5944 44.2775 40.5994 44.1588 41.5456 44.2588C42.3439 44.3311 43.1237 44.5409 43.8506 44.8788C44.2056 45.0425 44.5594 45.235 44.9131 45.4563C45.1631 45.365 45.1306 45.15 44.8181 44.81C44.4532 44.439 44.0285 44.1318 43.5619 43.9013C43.4919 43.8575 43.4178 43.8207 43.3406 43.7913L43.1481 43.7088H43.1469ZM42.7606 46.2838C42.9269 46.2463 43.0094 46.1913 43.0094 46.1175C43.0094 46.045 42.9406 45.975 42.8019 45.9113C42.7144 45.8714 42.6219 45.8437 42.5269 45.8288H42.4844C42.4569 45.8288 42.4206 45.8475 42.3744 45.8838C42.3281 45.9013 42.3006 45.9713 42.2919 46.09C42.2731 46.145 42.2819 46.1913 42.3194 46.2275C42.3447 46.2589 42.3779 46.2831 42.4156 46.2975C42.4356 46.31 42.4531 46.3175 42.4706 46.3238C42.5689 46.3258 42.6668 46.3131 42.7606 46.2838ZM38.7981 69.85C38.4219 69.8875 38.0944 70.0663 37.8194 70.3875C37.5501 70.6644 37.38 71.0226 37.3356 71.4063C37.3081 71.7725 37.3594 72.4113 37.4881 73.3188C37.6169 74.2188 37.6994 75.1413 37.7369 76.0863C37.7616 76.9067 37.596 77.7217 37.2531 78.4675C37.1776 78.6897 37.1313 78.9208 37.1156 79.155C37.1156 79.4775 37.2531 79.7425 37.5294 79.955C37.7681 80.1388 38.0306 80.23 38.3169 80.23C38.6669 80.23 39.1294 79.905 39.7094 79.2525C39.9594 78.9775 40.1519 78.6788 40.2894 78.3575C40.7319 77.2938 40.9519 76.3163 40.9519 75.425C40.9519 74.5175 40.9244 73.825 40.8694 73.3463C40.8007 72.844 40.7178 72.3438 40.6206 71.8463C40.5195 71.3144 40.2763 70.8199 39.9169 70.415C39.5494 69.9925 39.1744 69.805 38.7981 69.85ZM30.4756 72.975C30.2456 72.4975 29.8819 72.2775 29.3856 72.315C28.9806 72.3425 28.6956 72.5113 28.5294 72.8238C28.3631 73.1263 28.2906 73.3613 28.3081 73.5263C28.3269 73.6825 28.4231 73.8838 28.5981 74.1313C28.7644 74.38 28.9569 74.595 29.1781 74.7788C29.7206 75.2288 30.1444 75.4538 30.4481 75.4538C30.4481 75.4913 30.4981 75.4813 30.6006 75.425C30.6876 75.3727 30.7663 75.3078 30.8344 75.2325C30.8852 75.1649 30.914 75.0833 30.9169 74.9988V74.8888C30.9102 74.8014 30.9061 74.7139 30.9044 74.6263C30.8849 74.4572 30.8707 74.2875 30.8619 74.1175C30.8344 73.8338 30.7056 73.4525 30.4756 72.975ZM66.9869 60.6C66.6994 61.0038 66.4431 61.775 66.2131 62.9125C65.9831 64.0225 65.8681 65.0875 65.8681 66.105C65.8681 67.1338 66.0931 68.2038 66.5444 69.3138L67.8419 72.59C68.2656 73.6538 68.6706 74.4488 69.0569 74.9713C69.4344 75.4938 69.7056 75.7613 69.8719 75.77C70.0369 75.7788 70.1194 75.7013 70.1194 75.535C70.1106 75.3613 70.1519 75.0675 70.2444 74.655C70.3356 74.2325 70.5894 73.925 71.0031 73.7325C71.4081 73.53 71.6569 73.365 71.7481 73.2375C71.8235 73.1325 71.867 73.0079 71.8731 72.8788C71.8631 72.76 71.8544 72.6163 71.8444 72.4525C71.8356 72.2775 71.8219 72.09 71.8031 71.8875L71.7756 71.695C71.6678 71.0565 71.5157 70.4262 71.3206 69.8088C70.9331 68.58 70.4331 67.4275 69.8156 66.3538C68.7856 64.5638 68.1369 63.3988 67.8694 62.8575C67.4281 61.995 67.1331 61.2438 66.9869 60.6ZM52.2719 61.8375H52.2581L52.1206 61.9075C52.3581 61.9438 52.5381 61.9538 52.6581 61.935C52.2762 62.1444 51.8742 62.3148 51.4581 62.4438C51.5856 62.435 51.7156 62.4313 51.8431 62.4313C51.9081 62.44 51.9681 62.435 52.0231 62.4175C51.7663 62.6047 51.4754 62.7401 51.1669 62.8163C51.2044 62.825 51.2319 62.835 51.2494 62.8438H51.2644C50.6844 63.1375 50.0769 63.2013 49.4419 63.0363C49.4877 62.9804 49.5437 62.9338 49.6069 62.8988C49.4694 62.8988 49.3319 62.9038 49.1944 62.9125C48.9343 62.9452 48.6703 62.9018 48.4344 62.7875C48.7094 62.715 48.9956 62.655 49.2906 62.6088C49.1691 62.6023 49.0485 62.5839 48.9306 62.5538C48.9431 62.5575 48.9581 62.5575 48.9719 62.5538C48.9259 62.5517 48.88 62.5475 48.8344 62.5413C48.5164 62.4846 48.2028 62.4061 47.8956 62.3063C47.8576 62.2965 47.8207 62.2826 47.7856 62.265C47.7481 62.2563 47.7306 62.2375 47.7306 62.21C48.1556 62.185 48.5844 62.17 49.0144 62.1688H49.0694C48.9943 62.1503 48.9204 62.1273 48.8481 62.1C48.8902 62.1009 48.9322 62.0962 48.9731 62.0863C48.573 62.0603 48.1757 62.0005 47.7856 61.9075C47.2869 61.7951 46.8106 61.5994 46.3769 61.3288C46.2856 61.2663 46.2769 61.21 46.3494 61.1638C48.2919 61.7975 50.1494 61.8938 51.9269 61.4525C53.7019 61.0213 54.1769 61.0025 53.3481 61.3988L52.9331 61.605C52.7937 61.6707 52.6515 61.7303 52.5069 61.7838L52.2719 61.8375ZM44.8306 58.755C44.9056 58.755 44.9969 58.7688 45.1069 58.7963C45.1994 58.8238 45.3569 58.8375 45.5769 58.8375C45.7981 58.8275 46.0419 58.7175 46.3094 58.5075C46.4641 58.3782 46.6154 58.2448 46.7631 58.1075C46.7731 58.0988 46.7781 58.0888 46.7781 58.08C47.1173 57.6973 47.5241 57.3803 47.9781 57.145C48.5494 56.9325 49.0906 56.91 49.6069 57.0763C49.6444 57.0838 49.6906 57.0988 49.7444 57.1163C49.7819 57.135 49.8194 57.1488 49.8569 57.1575C49.9049 57.1748 49.9565 57.1795 50.0069 57.1713C50.0579 57.1812 50.1107 57.1769 50.1594 57.1588C50.1979 57.1493 50.2352 57.1355 50.2706 57.1175C50.3108 57.1008 50.3522 57.087 50.3944 57.0763C50.9194 56.91 51.4669 56.9338 52.0369 57.145C52.0919 57.1713 52.1519 57.2038 52.2156 57.24C52.5756 57.4525 52.9156 57.7313 53.2381 58.08L53.2644 58.1075C53.3106 58.1538 53.4581 58.2875 53.7069 58.5075C53.9731 58.7175 54.2181 58.8275 54.4381 58.8375C54.6594 58.8375 54.8206 58.825 54.9219 58.7963C55.0073 58.7714 55.0955 58.7575 55.1844 58.755C55.4231 58.8188 55.5019 58.9475 55.4181 59.14C55.2931 59.3525 55.0219 59.4863 54.6056 59.54C54.2572 59.5836 53.905 59.5878 53.5556 59.5525C52.3791 59.3883 51.1951 59.2827 50.0081 59.2363C49.0419 59.265 47.8544 59.37 46.4456 59.5538C45.9794 59.5913 45.5981 59.5825 45.3006 59.5263C44.9456 59.4638 44.7119 59.335 44.5969 59.14C44.5144 58.9475 44.5919 58.8188 44.8306 58.755ZM47.2881 52.9325C47.3344 53.3638 47.5281 53.4638 47.8681 53.235C48.2081 53.005 48.6556 53.0788 49.2069 53.455C49.7594 53.84 50.4119 53.8038 51.1669 53.345C51.9044 52.8763 52.4544 52.785 52.8231 53.07C53.0994 53.295 53.2281 53.495 53.2106 53.675C53.2084 53.7284 53.1938 53.7806 53.1681 53.8275C53.0581 54.0563 52.8231 54.1425 52.4644 54.0888C52.2995 54.0584 52.13 54.0648 51.9679 54.1076C51.8059 54.1504 51.6553 54.2285 51.5269 54.3363C51.2406 54.5463 50.9781 54.7538 50.7394 54.955C50.4906 55.1575 50.1681 55.2038 49.7731 55.0925C49.3781 54.9838 48.7931 54.6388 48.0206 54.0613C47.8424 54.0422 47.6665 54.0053 47.4956 53.9513C47.2194 53.8688 47.0206 53.73 46.9019 53.5375C46.7744 53.3225 46.7431 53.065 46.8056 52.7663C46.8368 52.6243 46.8829 52.486 46.9431 52.3538C47.1456 51.9038 47.4681 51.5875 47.9094 51.4038C48.0694 51.4188 48.1344 51.465 48.1031 51.5413C48.1131 51.6225 48.0069 51.7463 47.7856 51.9125C47.5256 52.115 47.3644 52.35 47.3019 52.615C47.2835 52.7198 47.278 52.8266 47.2881 52.9325ZM57.9031 34.1413L57.7381 34.4438C57.1031 35.4625 55.9944 36.2613 54.4119 36.84C53.8293 37.0928 53.2162 37.2684 52.5881 37.3625C52.529 37.3722 52.4692 37.3768 52.4094 37.3763C50.7994 37.5138 49.6531 36.6238 48.9719 34.7063C48.2094 32.5763 47.1919 31.4613 45.9219 31.3613C45.8847 31.3573 45.8476 31.3523 45.8106 31.3463H45.7706C45.7198 31.3512 45.669 31.3562 45.6181 31.3613L44.8306 31.4575C44.6533 31.4889 44.478 31.5306 44.3056 31.5825C44.0751 31.643 43.8495 31.7207 43.6306 31.815L43.4506 31.8975C43.3904 31.9331 43.3308 31.9698 43.2719 32.0075L43.1744 32.0763C43.1294 32.1051 43.0835 32.1327 43.0369 32.1588C42.9173 32.2496 42.8065 32.3513 42.7056 32.4625C41.9518 33.3312 41.3793 34.3418 41.0219 35.435C40.7919 36.1425 40.5531 37.1925 40.3044 38.5875C40.2481 38.89 40.1881 39.1888 40.1244 39.4825C40.2256 39.4847 40.3269 39.4847 40.4281 39.4825C40.8456 39.4913 41.2544 39.5188 41.6569 39.565C42.0656 39.62 42.4606 39.6888 42.8444 39.7713C43.3317 39.8874 43.811 40.0348 44.2794 40.2125C45.4281 40.6713 46.3581 41.345 47.0669 42.235C48.1444 43.8513 48.5294 45.205 48.2269 46.2975C48.199 46.3906 48.1669 46.4824 48.1306 46.5725C47.9856 46.8675 47.7931 47.0688 47.5506 47.1775C47.4506 47.2263 47.3434 47.2588 47.2331 47.2738C47.1 47.2923 46.9648 47.2881 46.8331 47.2613C46.5959 47.2393 46.3657 47.1686 46.1569 47.0538C45.9605 46.9502 45.7792 46.8203 45.6181 46.6675C45.1119 46.21 44.5369 46.045 43.8931 46.1725C43.8906 46.18 43.8869 46.185 43.8781 46.1863C43.6319 47.0338 42.7856 47.4838 41.3394 47.5363C40.2031 47.6138 39.4019 47.4163 38.9369 46.9438C38.8783 46.8824 38.8228 46.8182 38.7706 46.7513C38.6426 46.5829 38.5491 46.3909 38.4956 46.1863C38.4682 46.1882 38.4406 46.1882 38.4131 46.1863C38.0931 46.1988 37.7569 46.1075 37.4044 45.9113C37.2853 45.8453 37.1704 45.7718 37.0606 45.6913C36.7596 46.0734 36.4512 46.4497 36.1356 46.82C36.1028 46.861 36.0703 46.9023 36.0381 46.9438C35.8506 47.1938 35.7181 47.4138 35.6381 47.6038C35.3894 48.1638 35.2606 48.9038 35.2506 49.8213C35.2424 50.1984 35.2612 50.5756 35.3069 50.95C35.3794 51.5375 35.5131 52.1375 35.7069 52.7525C35.8631 53.2675 36.0244 53.7213 36.1906 54.115C36.3556 54.51 36.5306 54.8538 36.7156 55.1488C37.0656 55.6988 37.3631 56.1213 37.6119 56.415C37.8606 56.7088 38.3069 57.1175 38.9506 57.64C39.5856 58.1538 40.0181 58.7913 40.2481 59.5525C40.4781 60.305 40.6444 60.9525 40.7456 61.495C40.8281 62.0263 40.9331 62.5363 41.0631 63.0225C41.1731 63.5 41.4769 64.1738 41.9744 65.0463C42.1206 65.3125 42.3469 65.5838 42.6506 65.8588C43.2856 66.4463 44.3531 67.065 45.8519 67.7163C46.2206 67.9188 46.5931 68.0975 46.9706 68.2538C47.2381 68.345 47.5044 68.4325 47.7719 68.515C47.8819 68.5525 47.9919 68.58 48.1031 68.5975C48.5719 68.7263 49.0406 68.7988 49.5106 68.8175C49.7506 68.8363 49.9856 68.8413 50.2144 68.8313L50.6144 68.805C52.1606 68.6675 53.7069 68.0288 55.2531 66.8913C59.8906 64.6413 62.4594 61.6913 62.9556 58.0388C62.9556 58.0213 62.9606 58.0013 62.9681 57.9838C63.0056 57.6713 63.0344 57.355 63.0519 57.0338C63.2181 55.3463 63.5581 53.8313 64.0744 52.4913C64.7569 50.2363 64.8306 47.85 64.2944 45.3325C64.2905 45.3095 64.2859 45.2865 64.2806 45.2638L64.1706 44.8788C64.1894 44.97 64.1431 45.1 64.0331 45.2638C63.5956 45.7525 63.0294 46.0388 62.3344 46.1175C62.1344 46.145 61.9244 46.155 61.6994 46.145C61.6209 46.1431 61.5425 46.1385 61.4644 46.1313C61.0144 47.2238 60.1169 47.7513 58.7731 47.715H58.5931C58.5334 47.7066 58.4738 47.6974 58.4144 47.6875C58.3589 47.6829 58.3035 47.6779 58.2481 47.6725C57.3531 47.5688 56.7356 47.1975 56.3981 46.5588C56.3672 46.5052 56.3396 46.4496 56.3156 46.3925C55.7706 46.292 55.2076 46.3896 54.7281 46.6675L54.4931 46.7925C54.1106 46.9875 53.8581 47.1163 53.7344 47.1775C53.5969 47.2425 53.3844 47.2425 53.0994 47.1775C53.0667 47.1707 53.0345 47.1616 53.0031 47.15C52.8327 47.1051 52.6698 47.0356 52.5194 46.9438C52.2531 46.7063 52.1194 46.31 52.1194 45.76C52.126 45.3534 52.1678 44.9482 52.2444 44.5488C52.5019 43.2538 53.0944 42.1988 54.0244 41.3825C54.1256 41.29 54.2319 41.2075 54.3419 41.135C55.9894 39.8863 58.3044 39.2575 61.2856 39.2475C61.4419 39.285 61.5894 39.335 61.7269 39.4L61.5056 39.015H61.5344C61.2654 38.5802 60.9845 38.153 60.6919 37.7338L57.9044 34.1413H57.9031Z" fill="white"/>
</g>
<defs>
<clipPath id="clip0_46_2428">
<rect width="100" height="100" fill="white"/>
</clipPath>
</defs>
</svg>
