<svg width="70" height="20" viewBox="0 0 70 20" fill="none" xmlns="http://www.w3.org/2000/svg">
<path d="M50.5002 9.04102V19.9999H56.5373V13.5058H63.3794C66.257 13.4855 68.7021 11.6285 69.6277 9.04102H50.5002Z" fill="#808080"/>
<path d="M49.6953 0.0102539C50.0475 4.48514 54.2533 8.02649 59.3848 8.02649C59.405 8.02649 69.8793 8.02649 69.8793 8.02649C69.9598 7.6206 70 7.19442 70 6.7581C70 3.04425 67.0318 0.0406953 63.3593 0.0102539H49.6953Z" fill="#808080"/>
<path d="M40.7603 7.91487C40.8307 7.7931 40.9414 7.72207 41.0822 7.72207C41.2835 7.72207 41.4344 7.88443 41.4445 8.07722V19.8986H47.4816V0.0102539H41.4445C40.6798 0.0406953 39.8145 0.598787 39.4925 1.29894L34.693 11.6896C34.6829 11.7302 34.6628 11.7708 34.6427 11.8114C34.5723 11.9128 34.4515 11.9839 34.3107 11.9839C34.0893 11.9839 33.9082 11.8012 33.9082 11.578V0.0102539H27.8711V19.8986H33.9082C34.6628 19.858 35.508 19.3 35.83 18.6099L40.7603 7.94531C40.7502 7.93516 40.7603 7.92502 40.7603 7.91487Z" fill="#808080"/>
<path d="M18.2219 8.25977L14.6902 19.8985H10.3435L6.82191 8.24962C6.79172 8.06697 6.63073 7.92491 6.42949 7.92491C6.20814 7.92491 6.03708 8.10756 6.03708 8.32065V19.8884H0V0H5.18183H6.72129C7.82809 0 8.99526 0.872654 9.31723 1.9381L12.2553 11.6286C12.4062 12.1157 12.6376 12.1055 12.7886 11.6286L15.7266 1.9381C16.0486 0.862507 17.2158 0 18.3226 0H19.862H25.0438V19.8884H19.0068V8.32065C19.0068 8.32065 19.0068 8.32065 19.0068 8.3105C19.0068 8.08727 18.8256 7.91476 18.6143 7.91476C18.4131 7.92491 18.2521 8.06697 18.2219 8.25977Z" fill="#808080"/>
</svg>
