<svg width="17" height="16" viewBox="0 0 17 16" fill="none" xmlns="http://www.w3.org/2000/svg">
<g clip-path="url(#clip0_92_1838)">
<path fill-rule="evenodd" clip-rule="evenodd" d="M8.75049 8C6.98569 8 5.55049 6.5648 5.55049 4.8C5.55049 3.0352 6.98569 1.6 8.75049 1.6C10.5153 1.6 11.9505 3.0352 11.9505 4.8C11.9505 6.5648 10.5153 8 8.75049 8ZM11.7569 8.53838C12.8497 7.65918 13.5505 6.312 13.5505 4.8C13.5505 2.1488 11.4017 0 8.75049 0C6.09929 0 3.95049 2.1488 3.95049 4.8C3.95049 6.312 4.65129 7.65918 5.74409 8.53838C2.81689 9.63838 0.750488 12.356 0.750488 16H2.35049C2.35049 12 5.22169 9.6 8.75049 9.6C12.2793 9.6 15.1505 12 15.1505 16H16.7505C16.7505 12.356 14.6841 9.63838 11.7569 8.53838Z" fill="black"/>
</g>
<defs>
<clipPath id="clip0_92_1838">
<rect width="16" height="16" fill="white" transform="translate(0.750488)"/>
</clipPath>
</defs>
</svg>
