<svg width="33" height="20" viewBox="0 0 33 20" fill="none" xmlns="http://www.w3.org/2000/svg">
<path d="M12.4521 10.0001C12.4521 6.81037 13.9566 3.96907 16.2998 2.13808C14.5863 0.799167 12.4239 0 10.0737 0C4.51006 0 0 4.47712 0 10.0001C0 15.5229 4.51006 20 10.0737 20C12.4239 20 14.5863 19.2009 16.2998 17.8619C13.9566 16.0309 12.4521 13.1896 12.4521 10.0001Z" fill="#808080"/>
<path d="M32.5904 10.0001C32.5904 15.5229 28.0804 20 22.5167 20C20.1665 20 18.0041 19.2009 16.29 17.8619C18.6338 16.0309 20.1383 13.1896 20.1383 10.0001C20.1383 6.81037 18.6338 3.96907 16.29 2.13808C18.0041 0.799167 20.1665 0 22.5167 0C28.0804 0 32.5904 4.47712 32.5904 10.0001Z" fill="#808080"/>
</svg>
