<svg width="62" height="20" viewBox="0 0 62 20" fill="none" xmlns="http://www.w3.org/2000/svg">
<path d="M30.6982 0.359357L26.5575 19.7047H21.5466L25.6935 0.359357H30.6982ZM51.7776 12.8501L54.4133 5.58447L55.9327 12.8501H51.7776ZM57.3653 19.7047H62L57.9565 0.359357H53.6794C53.6732 0.359357 53.665 0.359357 53.6588 0.359357C52.7099 0.359357 51.8954 0.939694 51.5523 1.76373L51.5461 1.77819L44.0317 19.7047H49.2907L50.3368 16.8133H56.7637L57.3653 19.7047ZM44.2901 13.3891C44.3108 8.2817 37.2223 8.00083 37.2719 5.71871C37.2885 5.02478 37.9479 4.28542 39.395 4.09748C39.6637 4.07063 39.9738 4.05411 40.288 4.05411C41.7578 4.05411 43.1511 4.38868 44.3914 4.98761L44.3356 4.96282L45.2142 0.85915C43.8229 0.320116 42.2126 0.00619579 40.5299 0H40.5278C35.5747 0 32.0915 2.63321 32.0605 6.39818C32.0295 9.18216 34.5473 10.7332 36.4471 11.6625C38.4006 12.6105 39.0559 13.2197 39.0456 14.0644C39.0332 15.3656 37.4911 15.9356 36.0481 15.9583C35.982 15.9603 35.9014 15.9603 35.8228 15.9603C34.0223 15.9603 32.3272 15.5081 30.847 14.7088L30.9028 14.7356L29.9953 18.9736C31.6202 19.6241 33.5034 20 35.4755 20C35.5065 20 35.5375 20 35.5686 20H35.5644C40.8276 20 44.2695 17.404 44.2881 13.3829L44.2901 13.3891ZM23.5394 0.359357L15.4235 19.7047H10.1273L6.13344 4.2627C6.05695 3.51095 5.59596 2.88311 4.95512 2.56919L4.94272 2.56299C3.52047 1.86493 1.8667 1.29698 0.136437 0.939694L0 0.916977L0.119899 0.357291H8.64511C9.80688 0.357291 10.7723 1.20611 10.9521 2.31516L10.9542 2.32755L13.0648 13.5233L18.2783 0.355225L23.5394 0.359357Z" fill="#808080"/>
</svg>
